<svg width="36" height="36" viewBox="0 0 36 36" fill="none" xmlns="http://www.w3.org/2000/svg">
<g clip-path="url(#clip0_0_3)">
<path d="M18 21.1055C19.7721 21.1055 21.2087 19.7151 21.2087 18C21.2087 16.2849 19.7721 14.8945 18 14.8945C16.2279 14.8945 14.7913 16.2849 14.7913 18C14.7913 19.7151 16.2279 21.1055 18 21.1055Z" fill="#61DAFB"/>
<path d="M18 24.3626C27.5089 24.3626 35.2174 21.5139 35.2174 18C35.2174 14.4861 27.5089 11.6375 18 11.6375C8.49111 11.6375 0.782623 14.4861 0.782623 18C0.782623 21.5139 8.49111 24.3626 18 24.3626Z" stroke="#61DAFB"/>
<path d="M12.3068 21.1813C17.0613 29.1515 23.4645 34.1883 26.6087 32.4313C29.753 30.6743 28.4477 22.7889 23.6932 14.8187C18.9387 6.84853 12.5356 1.81173 9.39133 3.5687C6.24707 5.32567 7.5524 13.2111 12.3068 21.1813Z" stroke="#61DAFB"/>
<path d="M12.3068 14.8187C7.55238 22.7889 6.24706 30.6743 9.39131 32.4313C12.5356 34.1883 18.9387 29.1515 23.6932 21.1813C28.4476 13.2111 29.753 5.32566 26.6087 3.56869C23.4644 1.81172 17.0613 6.84853 12.3068 14.8187Z" stroke="#61DAFB"/>
</g>
<defs>
<clipPath id="clip0_0_3">
<rect width="36" height="31" fill="white" transform="translate(0 2.5)"/>
</clipPath>
</defs>
</svg>
