<svg width="365" height="194" viewBox="0 0 365 194" fill="none" xmlns="http://www.w3.org/2000/svg">
<path d="M14.5 6.26465H6C5.46957 6.26465 4.96086 6.47536 4.58579 6.85043C4.21071 7.22551 4 7.73422 4 8.26465V24.2646C4 24.7951 4.21071 25.3038 4.58579 25.6789C4.96086 26.0539 5.46957 26.2646 6 26.2646H18C18.5304 26.2646 19.0391 26.0539 19.4142 25.6789C19.7893 25.3038 20 24.7951 20 24.2646V11.7646L14.5 6.26465Z" stroke="black" stroke-width="2" stroke-linecap="round" stroke-linejoin="round"/>
<path d="M14 6.26465V12.2646H20" stroke="black" stroke-width="2" stroke-linecap="round" stroke-linejoin="round"/>
<path d="M16 17.2646H8" stroke="black" stroke-width="2" stroke-linecap="round" stroke-linejoin="round"/>
<path d="M16 21.2646H8" stroke="black" stroke-width="2" stroke-linecap="round" stroke-linejoin="round"/>
<path d="M10 13.2646H8" stroke="black" stroke-width="2" stroke-linecap="round" stroke-linejoin="round"/>
<path d="M36.7714 10.8446C37.3847 10.8446 37.9136 10.9246 38.358 11.0846C38.8069 11.2446 39.2314 11.4869 39.6314 11.8113L38.7047 12.9113C38.1536 12.458 37.5314 12.2313 36.838 12.2313C36.3892 12.2313 35.9869 12.3491 35.6314 12.5846C35.2803 12.8202 35.0003 13.1913 34.7914 13.698C34.5825 14.2046 34.478 14.8513 34.478 15.638C34.478 16.7891 34.6914 17.6424 35.118 18.198C35.5492 18.7491 36.1269 19.0246 36.8514 19.0246C37.2825 19.0246 37.6536 18.9535 37.9647 18.8113C38.2758 18.6691 38.5869 18.4713 38.898 18.218L39.758 19.3046C38.9758 20.078 37.9803 20.4646 36.7714 20.4646C35.9536 20.4646 35.2292 20.2802 34.598 19.9113C33.9714 19.538 33.4803 18.9891 33.1247 18.2646C32.7692 17.5358 32.5914 16.6602 32.5914 15.638C32.5914 14.638 32.7736 13.778 33.138 13.058C33.5069 12.3335 34.0069 11.7846 34.638 11.4113C35.2736 11.0335 35.9847 10.8446 36.7714 10.8446ZM47.5828 15.6513C47.5828 16.6202 47.445 17.4669 47.1694 18.1913C46.8983 18.9113 46.4939 19.4713 45.9561 19.8713C45.4183 20.2669 44.765 20.4646 43.9961 20.4646C43.2228 20.4646 42.5672 20.2713 42.0294 19.8846C41.4961 19.4935 41.0916 18.938 40.8161 18.218C40.545 17.498 40.4094 16.6446 40.4094 15.658C40.4094 14.6935 40.545 13.8491 40.8161 13.1246C41.0916 12.4002 41.4983 11.8402 42.0361 11.4446C42.5739 11.0446 43.2272 10.8446 43.9961 10.8446C44.7694 10.8446 45.4228 11.0402 45.9561 11.4313C46.4939 11.818 46.8983 12.3735 47.1694 13.098C47.445 13.818 47.5828 14.6691 47.5828 15.6513ZM45.7028 15.6513C45.7028 14.8602 45.645 14.2135 45.5294 13.7113C45.4139 13.2091 45.2294 12.8358 44.9761 12.5913C44.7272 12.3424 44.4005 12.218 43.9961 12.218C43.5916 12.218 43.2628 12.3424 43.0094 12.5913C42.7605 12.8402 42.5783 13.218 42.4628 13.7246C42.3472 14.2269 42.2894 14.8713 42.2894 15.658C42.2894 16.8313 42.425 17.6958 42.6961 18.2513C42.9716 18.8069 43.405 19.0846 43.9961 19.0846C44.405 19.0846 44.7339 18.9602 44.9828 18.7113C45.2361 18.4624 45.4183 18.0869 45.5294 17.5846C45.645 17.0824 45.7028 16.438 45.7028 15.6513ZM55.5541 15.6113C55.5541 17.3402 55.1453 18.5491 54.3275 19.238C53.5141 19.9224 52.4697 20.2646 51.1941 20.2646H48.8341V11.0446H51.0341C51.9008 11.0446 52.663 11.1691 53.3208 11.418C53.983 11.6669 54.5208 12.1291 54.9341 12.8046C55.3475 13.4758 55.5541 14.4113 55.5541 15.6113ZM53.6475 15.6113C53.6475 14.7491 53.543 14.0824 53.3341 13.6113C53.1297 13.1402 52.8586 12.8224 52.5208 12.658C52.1875 12.4891 51.7941 12.4046 51.3408 12.4046H50.6608V18.9113H51.3475C52.0541 18.9113 52.6141 18.6691 53.0275 18.1846C53.4408 17.6958 53.6475 16.838 53.6475 15.6113ZM62.9455 12.3913H59.2122V14.918H62.4789V16.2446H59.2122V18.9246H63.1789V20.2646H57.3855V11.0446H63.1322L62.9455 12.3913ZM71.5769 15.6513C71.5769 16.6202 71.4391 17.4669 71.1636 18.1913C70.8925 18.9113 70.488 19.4713 69.9502 19.8713C69.4125 20.2669 68.7591 20.4646 67.9902 20.4646C67.2169 20.4646 66.5613 20.2713 66.0236 19.8846C65.4902 19.4935 65.0858 18.938 64.8102 18.218C64.5391 17.498 64.4036 16.6446 64.4036 15.658C64.4036 14.6935 64.5391 13.8491 64.8102 13.1246C65.0858 12.4002 65.4925 11.8402 66.0302 11.4446C66.568 11.0446 67.2213 10.8446 67.9902 10.8446C68.7636 10.8446 69.4169 11.0402 69.9502 11.4313C70.488 11.818 70.8925 12.3735 71.1636 13.098C71.4391 13.818 71.5769 14.6691 71.5769 15.6513ZM69.6969 15.6513C69.6969 14.8602 69.6391 14.2135 69.5236 13.7113C69.408 13.2091 69.2236 12.8358 68.9702 12.5913C68.7213 12.3424 68.3947 12.218 67.9902 12.218C67.5858 12.218 67.2569 12.3424 67.0036 12.5913C66.7547 12.8402 66.5725 13.218 66.4569 13.7246C66.3413 14.2269 66.2836 14.8713 66.2836 15.658C66.2836 16.8313 66.4191 17.6958 66.6902 18.2513C66.9658 18.8069 67.3991 19.0846 67.9902 19.0846C68.3991 19.0846 68.728 18.9602 68.9769 18.7113C69.2302 18.4624 69.4125 18.0869 69.5236 17.5846C69.6391 17.0824 69.6969 16.438 69.6969 15.6513ZM78.3816 11.0446H79.9949L78.8016 20.2646H76.7949L75.9883 13.5446L75.1349 20.2646H73.0883L71.9816 11.0446H73.7216L74.2683 18.6046L75.1483 12.1113H76.8683L77.7016 18.6046L78.3816 11.0446ZM82.1397 12.6046C82.3219 13.9913 82.413 15.2513 82.413 16.3846V20.2646H80.8263V11.0446H83.1463L85.833 18.6913C85.6508 17.4513 85.5597 16.2069 85.5597 14.958V11.0446H87.1463V20.2646H84.853L82.1397 12.6046ZM94.9377 12.3913H91.2044V14.918H94.471V16.2446H91.2044V18.9246H95.171V20.2646H89.3777V11.0446H95.1244L94.9377 12.3913ZM103.356 13.7713C103.356 14.4113 103.174 14.9446 102.809 15.3713C102.449 15.7935 101.969 16.1046 101.369 16.3046L103.896 20.2646H101.802L99.6224 16.5913H98.7824V20.2646H96.9624V11.0446H99.6758C102.129 11.0446 103.356 11.9535 103.356 13.7713ZM101.462 13.7713C101.462 13.2824 101.318 12.9269 101.029 12.7046C100.745 12.478 100.309 12.3646 99.7224 12.3646H98.7824V15.298H99.7824C100.338 15.298 100.756 15.1758 101.036 14.9313C101.32 14.6869 101.462 14.3002 101.462 13.7713ZM111.407 17.618C111.407 18.178 111.263 18.6735 110.974 19.1046C110.685 19.5313 110.267 19.8646 109.72 20.1046C109.178 20.3446 108.534 20.4646 107.787 20.4646C106.325 20.4646 105.158 20.0402 104.287 19.1913L105.247 18.118C105.954 18.7535 106.792 19.0713 107.76 19.0713C108.272 19.0713 108.689 18.9558 109.014 18.7246C109.343 18.4891 109.507 18.1602 109.507 17.738C109.507 17.4802 109.454 17.2669 109.347 17.098C109.24 16.9246 109.058 16.7713 108.8 16.638C108.547 16.5002 108.185 16.3602 107.714 16.218C107.016 16.0046 106.449 15.7735 106.014 15.5246C105.583 15.2713 105.26 14.9735 105.047 14.6313C104.838 14.2891 104.734 13.8824 104.734 13.4113C104.734 12.8958 104.878 12.4446 105.167 12.058C105.456 11.6669 105.852 11.3669 106.354 11.158C106.856 10.9491 107.418 10.8446 108.04 10.8446C108.707 10.8446 109.3 10.9424 109.82 11.138C110.345 11.3291 110.812 11.6113 111.22 11.9846L110.307 13.018C109.996 12.7513 109.658 12.5535 109.294 12.4246C108.929 12.2913 108.554 12.2246 108.167 12.2246C107.705 12.2246 107.332 12.318 107.047 12.5046C106.763 12.6869 106.62 12.9491 106.62 13.2913C106.62 13.5135 106.68 13.7002 106.8 13.8513C106.925 14.0024 107.129 14.1424 107.414 14.2713C107.698 14.4002 108.114 14.5491 108.66 14.718C109.256 14.9002 109.752 15.1069 110.147 15.338C110.543 15.5691 110.852 15.8691 111.074 16.238C111.296 16.6069 111.407 17.0669 111.407 17.618Z" fill="black"/>
<path d="M6 58.2647L7.5 55.3647C7.66307 55.0409 7.91112 54.7675 8.21761 54.5737C8.5241 54.3799 8.8775 54.2731 9.24 54.2647H20M20 54.2647C20.3055 54.2642 20.6071 54.3337 20.8816 54.4678C21.1561 54.602 21.3963 54.7972 21.5836 55.0386C21.7709 55.28 21.9004 55.5611 21.9622 55.8603C22.024 56.1595 22.0164 56.4689 21.94 56.7647L20.4 62.7647C20.2886 63.1963 20.0362 63.5783 19.6829 63.85C19.3296 64.1218 18.8957 64.2678 18.45 64.2647H4C3.46957 64.2647 2.96086 64.054 2.58579 63.679C2.21071 63.3039 2 62.7952 2 62.2647V49.2647C2 48.7343 2.21071 48.2256 2.58579 47.8505C2.96086 47.4755 3.46957 47.2647 4 47.2647H7.9C8.23449 47.2615 8.56445 47.3421 8.8597 47.4994C9.15495 47.6566 9.40604 47.8854 9.59 48.1647L10.4 49.3647C10.5821 49.6413 10.83 49.8683 11.1215 50.0253C11.413 50.1824 11.7389 50.2647 12.07 50.2647H18C18.5304 50.2647 19.0391 50.4755 19.4142 50.8505C19.7893 51.2256 20 51.7343 20 52.2647V54.2647Z" stroke="#A3A3A3" stroke-width="2" stroke-linecap="round" stroke-linejoin="round"/>
<path d="M36.718 53.0046C38.4336 53.0046 39.2914 54.2424 39.2914 56.718C39.2914 57.4469 39.1847 58.0935 38.9714 58.658C38.7625 59.2224 38.4536 59.6646 38.0447 59.9846C37.6403 60.3046 37.1514 60.4646 36.578 60.4646C35.8625 60.4646 35.2803 60.2091 34.8314 59.698V62.9846L33.0714 63.1713V53.2046H34.618L34.7114 54.0646C34.9825 53.7135 35.2914 53.4491 35.638 53.2713C35.9847 53.0935 36.3447 53.0046 36.718 53.0046ZM36.2047 54.3246C35.6803 54.3246 35.2225 54.6335 34.8314 55.2513V58.4113C35.1558 58.8913 35.5692 59.1313 36.0714 59.1313C36.5292 59.1313 36.8736 58.9402 37.1047 58.558C37.3403 58.1713 37.458 57.5646 37.458 56.738C37.458 55.8713 37.3536 55.2535 37.1447 54.8846C36.9403 54.5113 36.6269 54.3246 36.2047 54.3246ZM46.7028 58.4046C46.7028 58.6669 46.7405 58.8624 46.8161 58.9913C46.8961 59.1158 47.0272 59.2091 47.2094 59.2713L46.8294 60.4513C46.4383 60.4113 46.1116 60.3158 45.8494 60.1646C45.5916 60.0091 45.3939 59.7869 45.2561 59.498C44.9983 59.8135 44.6672 60.0535 44.2628 60.218C43.8583 60.3824 43.4272 60.4646 42.9694 60.4646C42.4983 60.4646 42.085 60.3735 41.7294 60.1913C41.3739 60.0046 41.1005 59.7446 40.9094 59.4113C40.7183 59.078 40.6228 58.6935 40.6228 58.258C40.6228 57.7602 40.7539 57.3358 41.0161 56.9846C41.2783 56.6335 41.6628 56.3669 42.1694 56.1846C42.6761 56.0024 43.2894 55.9113 44.0094 55.9113H44.9961V55.5313C44.9961 55.1224 44.8694 54.8224 44.6161 54.6313C44.3628 54.4358 43.9894 54.338 43.4961 54.338C43.2561 54.338 42.965 54.3713 42.6228 54.438C42.2805 54.5002 41.9383 54.5891 41.5961 54.7046L41.1761 53.498C41.6072 53.338 42.0494 53.2158 42.5028 53.1313C42.9605 53.0469 43.385 53.0046 43.7761 53.0046C44.7494 53.0046 45.4805 53.2135 45.9694 53.6313C46.4583 54.0446 46.7028 54.6402 46.7028 55.418V58.4046ZM43.5428 59.1913C43.8183 59.1913 44.0894 59.1158 44.3561 58.9646C44.6272 58.8091 44.8405 58.598 44.9961 58.3313V56.958H44.3028C43.6628 56.958 43.1939 57.0602 42.8961 57.2646C42.5983 57.4646 42.4494 57.7624 42.4494 58.158C42.4494 58.4913 42.5428 58.7469 42.7294 58.9246C42.9161 59.1024 43.1872 59.1913 43.5428 59.1913ZM52.6208 59.0513C52.9141 59.0513 53.1941 58.998 53.4608 58.8913C53.7319 58.7846 54.0075 58.6335 54.2875 58.438L55.0875 59.5646C54.7675 59.8402 54.3853 60.0602 53.9408 60.2246C53.4964 60.3846 53.0319 60.4646 52.5475 60.4646C51.8186 60.4646 51.1875 60.3113 50.6541 60.0046C50.1253 59.698 49.7186 59.2669 49.4341 58.7113C49.1541 58.1558 49.0141 57.5113 49.0141 56.778C49.0141 56.0491 49.1564 55.4002 49.4408 54.8313C49.7297 54.258 50.143 53.8113 50.6808 53.4913C51.2186 53.1669 51.8497 53.0046 52.5741 53.0046C53.0764 53.0046 53.5319 53.0758 53.9408 53.218C54.3541 53.3602 54.7341 53.5758 55.0808 53.8646L54.3008 54.9446C53.7541 54.5713 53.1964 54.3846 52.6275 54.3846C52.0808 54.3846 51.6497 54.5802 51.3341 54.9713C51.023 55.3624 50.8675 55.9646 50.8675 56.778C50.8675 57.5735 51.023 58.1513 51.3341 58.5113C51.6497 58.8713 52.0786 59.0513 52.6208 59.0513ZM57.0922 50.3846L58.8522 50.198V60.2646H57.0922V50.3846ZM61.5522 53.2046H63.4922L60.8722 56.3513L63.7455 60.2646H61.6722L58.9522 56.398L61.5522 53.2046ZM70.6969 58.4046C70.6969 58.6669 70.7347 58.8624 70.8102 58.9913C70.8902 59.1158 71.0213 59.2091 71.2036 59.2713L70.8236 60.4513C70.4325 60.4113 70.1058 60.3158 69.8436 60.1646C69.5858 60.0091 69.388 59.7869 69.2502 59.498C68.9925 59.8135 68.6613 60.0535 68.2569 60.218C67.8525 60.3824 67.4213 60.4646 66.9636 60.4646C66.4925 60.4646 66.0791 60.3735 65.7236 60.1913C65.368 60.0046 65.0947 59.7446 64.9036 59.4113C64.7125 59.078 64.6169 58.6935 64.6169 58.258C64.6169 57.7602 64.748 57.3358 65.0102 56.9846C65.2725 56.6335 65.6569 56.3669 66.1636 56.1846C66.6702 56.0024 67.2836 55.9113 68.0036 55.9113H68.9902V55.5313C68.9902 55.1224 68.8636 54.8224 68.6102 54.6313C68.3569 54.4358 67.9836 54.338 67.4902 54.338C67.2502 54.338 66.9591 54.3713 66.6169 54.438C66.2747 54.5002 65.9325 54.5891 65.5902 54.7046L65.1702 53.498C65.6013 53.338 66.0436 53.2158 66.4969 53.1313C66.9547 53.0469 67.3791 53.0046 67.7702 53.0046C68.7436 53.0046 69.4747 53.2135 69.9636 53.6313C70.4525 54.0446 70.6969 54.6402 70.6969 55.418V58.4046ZM67.5369 59.1913C67.8125 59.1913 68.0836 59.1158 68.3502 58.9646C68.6213 58.8091 68.8347 58.598 68.9902 58.3313V56.958H68.2969C67.6569 56.958 67.188 57.0602 66.8902 57.2646C66.5925 57.4646 66.4436 57.7624 66.4436 58.158C66.4436 58.4913 66.5369 58.7469 66.7236 58.9246C66.9102 59.1024 67.1813 59.1913 67.5369 59.1913ZM79.5883 53.5846C79.3305 53.678 79.0372 53.7446 78.7083 53.7846C78.3794 53.8202 77.9905 53.838 77.5416 53.838C77.9861 54.0291 78.3172 54.2713 78.5349 54.5646C78.7527 54.8535 78.8616 55.2113 78.8616 55.638C78.8616 56.0958 78.7438 56.5069 78.5083 56.8713C78.2772 57.2313 77.9438 57.5135 77.5083 57.718C77.0772 57.918 76.5705 58.018 75.9883 58.018C75.6549 58.018 75.3549 57.9846 75.0883 57.918C75.0038 57.9669 74.9349 58.038 74.8816 58.1313C74.8327 58.2246 74.8083 58.3202 74.8083 58.418C74.8083 58.5691 74.8661 58.6891 74.9816 58.778C75.1016 58.8624 75.3216 58.9046 75.6416 58.9046H76.8416C77.3527 58.9046 77.8061 58.9913 78.2016 59.1646C78.6016 59.338 78.9105 59.578 79.1283 59.8846C79.3505 60.1869 79.4616 60.5269 79.4616 60.9046C79.4616 61.3802 79.3216 61.7869 79.0416 62.1246C78.7661 62.4669 78.3572 62.7269 77.8149 62.9046C77.2727 63.0824 76.6105 63.1713 75.8283 63.1713C74.9972 63.1713 74.3416 63.0869 73.8616 62.918C73.3861 62.7491 73.0505 62.5024 72.8549 62.178C72.6594 61.858 72.5616 61.4513 72.5616 60.958H74.1283C74.1283 61.2024 74.1749 61.3935 74.2683 61.5313C74.3661 61.6735 74.5394 61.778 74.7883 61.8446C75.0372 61.9158 75.3949 61.9513 75.8616 61.9513C76.5327 61.9513 77.0083 61.8713 77.2883 61.7113C77.5683 61.5558 77.7083 61.3269 77.7083 61.0246C77.7083 60.7713 77.5994 60.5735 77.3816 60.4313C77.1683 60.2891 76.8683 60.218 76.4816 60.218H75.3149C74.8572 60.218 74.4749 60.1558 74.1683 60.0313C73.8661 59.9069 73.6416 59.7402 73.4949 59.5313C73.3483 59.3224 73.2749 59.0913 73.2749 58.838C73.2749 58.5846 73.3416 58.3446 73.4749 58.118C73.6127 57.8913 73.8083 57.698 74.0616 57.538C73.6305 57.3113 73.3172 57.038 73.1216 56.718C72.9261 56.3935 72.8283 56.0002 72.8283 55.538C72.8283 55.0358 72.9572 54.5935 73.2149 54.2113C73.4727 53.8291 73.8305 53.5335 74.2883 53.3246C74.7505 53.1158 75.2772 53.0113 75.8683 53.0113C76.3838 53.0158 76.8327 52.9846 77.2149 52.918C77.6016 52.8513 77.9327 52.7624 78.2083 52.6513C78.4883 52.5402 78.8016 52.3935 79.1483 52.2113L79.5883 53.5846ZM75.9016 54.1846C75.4927 54.1846 75.1749 54.3046 74.9483 54.5446C74.7261 54.7846 74.6149 55.1113 74.6149 55.5246C74.6149 55.9469 74.7283 56.2802 74.9549 56.5246C75.1816 56.7646 75.4994 56.8846 75.9083 56.8846C76.3083 56.8846 76.6149 56.7669 76.8283 56.5313C77.0416 56.2913 77.1483 55.9491 77.1483 55.5046C77.1483 54.6246 76.7327 54.1846 75.9016 54.1846ZM82.5597 57.2713C82.6086 57.9069 82.7952 58.378 83.1197 58.6846C83.4486 58.9913 83.8686 59.1446 84.3797 59.1446C84.7041 59.1446 85.0152 59.0935 85.313 58.9913C85.6108 58.8891 85.9108 58.738 86.213 58.538L86.9463 59.5446C86.6041 59.8335 86.2041 60.0602 85.7463 60.2246C85.2886 60.3846 84.7952 60.4646 84.2663 60.4646C83.5152 60.4646 82.8752 60.3091 82.3463 59.998C81.8219 59.6869 81.4241 59.2513 81.153 58.6913C80.8863 58.1313 80.753 57.4824 80.753 56.7446C80.753 56.038 80.8841 55.4024 81.1463 54.838C81.413 54.2691 81.7952 53.8224 82.293 53.498C82.7952 53.1691 83.3863 53.0046 84.0663 53.0046C84.7063 53.0046 85.2641 53.1469 85.7397 53.4313C86.2152 53.7158 86.5819 54.1269 86.8397 54.6646C87.0974 55.198 87.2263 55.8335 87.2263 56.5713C87.2263 56.8246 87.2152 57.058 87.193 57.2713H82.5597ZM84.073 54.2446C83.633 54.2446 83.2774 54.4024 83.0063 54.718C82.7397 55.0291 82.5841 55.5046 82.5397 56.1446H85.513C85.5041 55.5358 85.3774 55.0669 85.133 54.738C84.893 54.4091 84.5397 54.2446 84.073 54.2446ZM91.7444 59.1646C92.1666 59.1646 92.4999 59.0935 92.7444 58.9513C92.9933 58.8046 93.1177 58.6002 93.1177 58.338C93.1177 58.1558 93.0755 58.0069 92.991 57.8913C92.9066 57.7758 92.7444 57.6669 92.5044 57.5646C92.2688 57.458 91.911 57.3402 91.431 57.2113C90.9422 57.0869 90.5333 56.9402 90.2044 56.7713C89.8755 56.598 89.6199 56.3758 89.4377 56.1046C89.2555 55.8291 89.1644 55.4913 89.1644 55.0913C89.1644 54.6824 89.2799 54.3202 89.511 54.0046C89.7466 53.6891 90.0844 53.4446 90.5244 53.2713C90.9688 53.0935 91.4933 53.0046 92.0977 53.0046C93.1733 53.0046 94.091 53.2802 94.851 53.8313L94.131 54.9046C93.4866 54.4958 92.8222 54.2913 92.1377 54.2913C91.3466 54.2913 90.951 54.518 90.951 54.9713C90.951 55.1269 90.9977 55.2558 91.091 55.358C91.1888 55.4602 91.3555 55.558 91.591 55.6513C91.831 55.7446 92.1977 55.8602 92.691 55.998C93.1977 56.1402 93.611 56.2958 93.931 56.4646C94.2555 56.6335 94.5066 56.858 94.6844 57.138C94.8666 57.418 94.9577 57.7758 94.9577 58.2113C94.9577 58.7002 94.811 59.1158 94.5177 59.458C94.2288 59.7958 93.8422 60.0491 93.3577 60.218C92.8733 60.3824 92.3377 60.4646 91.751 60.4646C91.111 60.4646 90.5399 60.3735 90.0377 60.1913C89.5355 60.0091 89.1022 59.758 88.7377 59.438L89.651 58.4113C89.9399 58.6424 90.2622 58.8269 90.6177 58.9646C90.9733 59.098 91.3488 59.1646 91.7444 59.1646Z" fill="#A3A3A3"/>
<path d="M43.998 104.265C44.5285 104.265 45.0372 104.054 45.4123 103.679C45.7873 103.304 45.998 102.795 45.998 102.265V92.2646C45.998 91.7342 45.7873 91.2255 45.4123 90.8504C45.0372 90.4754 44.5285 90.2646 43.998 90.2646H36.098C35.7636 90.2679 35.4336 90.1873 35.1383 90.03C34.8431 89.8728 34.592 89.644 34.408 89.3646L33.598 88.1646C33.4159 87.8881 33.168 87.6611 32.8765 87.504C32.5851 87.347 32.2592 87.2647 31.928 87.2646H27.998C27.4676 87.2646 26.9589 87.4754 26.5838 87.8504C26.2088 88.2255 25.998 88.7342 25.998 89.2646V102.265C25.998 102.795 26.2088 103.304 26.5838 103.679C26.9589 104.054 27.4676 104.265 27.998 104.265H43.998Z" stroke="#A3A3A3" stroke-width="2" stroke-linecap="round" stroke-linejoin="round"/>
<path d="M58.8314 98.098C58.8314 98.4713 58.9047 98.738 59.0514 98.898C59.198 99.058 59.4203 99.138 59.718 99.138C59.9892 99.138 60.2558 99.0558 60.518 98.8913C60.7847 98.7269 61.0003 98.5135 61.1647 98.2513V93.2046H62.9247V100.265H61.3914L61.298 99.398C61.0492 99.7402 60.7292 100.005 60.338 100.191C59.9469 100.374 59.5336 100.465 59.098 100.465C58.4269 100.465 57.9203 100.276 57.578 99.898C57.2403 99.5202 57.0714 98.9913 57.0714 98.3113V93.2046H58.8314V98.098ZM67.9894 89.6446C68.2028 89.6446 68.3916 89.6913 68.5561 89.7846C68.7205 89.8735 68.8494 89.998 68.9428 90.158C69.0361 90.318 69.0828 90.4958 69.0828 90.6913C69.0828 90.8869 69.0361 91.0646 68.9428 91.2246C68.8494 91.3846 68.7205 91.5113 68.5561 91.6046C68.3916 91.698 68.2028 91.7446 67.9894 91.7446C67.7761 91.7446 67.585 91.698 67.4161 91.6046C67.2516 91.5113 67.1228 91.3846 67.0294 91.2246C66.9361 91.0646 66.8894 90.8869 66.8894 90.6913C66.8894 90.4958 66.9361 90.318 67.0294 90.158C67.1228 89.998 67.2516 89.8735 67.4161 89.7846C67.585 89.6913 67.7761 89.6446 67.9894 89.6446ZM65.3694 93.2046H69.1294V99.018H70.9894V100.265H65.3028V99.018H67.3694V94.4513H65.3694V93.2046ZM78.8075 97.3246H73.1808V95.9246H78.8075V97.3246ZM85.1589 90.198L86.9189 90.3846V100.265H85.3589L85.2522 99.4313C85.0211 99.7558 84.7389 100.009 84.4055 100.191C84.0766 100.374 83.7033 100.465 83.2855 100.465C82.4189 100.465 81.7633 100.131 81.3189 99.4646C80.8789 98.798 80.6589 97.8846 80.6589 96.7246C80.6589 96.0046 80.77 95.3646 80.9922 94.8046C81.2189 94.2402 81.5433 93.8002 81.9655 93.4846C82.3877 93.1646 82.8833 93.0046 83.4522 93.0046C84.1366 93.0046 84.7055 93.2424 85.1589 93.718V90.198ZM83.9255 94.318C83.4677 94.318 83.1144 94.5158 82.8655 94.9113C82.6166 95.3069 82.4922 95.9135 82.4922 96.7313C82.4922 97.5846 82.6033 98.2002 82.8255 98.578C83.0522 98.9558 83.3766 99.1446 83.7989 99.1446C84.3189 99.1446 84.7722 98.838 85.1589 98.2246V95.0113C84.8166 94.5491 84.4055 94.318 83.9255 94.318ZM90.5636 97.2713C90.6125 97.9069 90.7991 98.378 91.1236 98.6846C91.4525 98.9913 91.8725 99.1446 92.3836 99.1446C92.708 99.1446 93.0191 99.0935 93.3169 98.9913C93.6147 98.8891 93.9147 98.738 94.2169 98.538L94.9502 99.5446C94.608 99.8335 94.208 100.06 93.7502 100.225C93.2925 100.385 92.7991 100.465 92.2702 100.465C91.5191 100.465 90.8791 100.309 90.3502 99.998C89.8258 99.6869 89.428 99.2513 89.1569 98.6913C88.8902 98.1313 88.7569 97.4824 88.7569 96.7446C88.7569 96.038 88.888 95.4024 89.1502 94.838C89.4169 94.2691 89.7991 93.8224 90.2969 93.498C90.7991 93.1691 91.3902 93.0046 92.0702 93.0046C92.7102 93.0046 93.268 93.1469 93.7436 93.4313C94.2191 93.7158 94.5858 94.1269 94.8436 94.6646C95.1013 95.198 95.2302 95.8335 95.2302 96.5713C95.2302 96.8246 95.2191 97.058 95.1969 97.2713H90.5636ZM92.0769 94.2446C91.6369 94.2446 91.2813 94.4024 91.0102 94.718C90.7436 95.0291 90.588 95.5046 90.5436 96.1446H93.5169C93.508 95.5358 93.3813 95.0669 93.1369 94.738C92.8969 94.4091 92.5436 94.2446 92.0769 94.2446ZM99.7483 99.1646C100.171 99.1646 100.504 99.0935 100.748 98.9513C100.997 98.8046 101.122 98.6002 101.122 98.338C101.122 98.1558 101.079 98.0069 100.995 97.8913C100.911 97.7758 100.748 97.6669 100.508 97.5646C100.273 97.458 99.9149 97.3402 99.4349 97.2113C98.9461 97.0869 98.5372 96.9402 98.2083 96.7713C97.8794 96.598 97.6238 96.3758 97.4416 96.1046C97.2594 95.8291 97.1683 95.4913 97.1683 95.0913C97.1683 94.6824 97.2838 94.3202 97.5149 94.0046C97.7505 93.6891 98.0883 93.4446 98.5283 93.2713C98.9727 93.0935 99.4972 93.0046 100.102 93.0046C101.177 93.0046 102.095 93.2802 102.855 93.8313L102.135 94.9046C101.491 94.4958 100.826 94.2913 100.142 94.2913C99.3505 94.2913 98.9549 94.518 98.9549 94.9713C98.9549 95.1269 99.0016 95.2558 99.0949 95.358C99.1927 95.4602 99.3594 95.558 99.5949 95.6513C99.8349 95.7446 100.202 95.8602 100.695 95.998C101.202 96.1402 101.615 96.2958 101.935 96.4646C102.259 96.6335 102.511 96.858 102.688 97.138C102.871 97.418 102.962 97.7758 102.962 98.2113C102.962 98.7002 102.815 99.1158 102.522 99.458C102.233 99.7958 101.846 100.049 101.362 100.218C100.877 100.382 100.342 100.465 99.7549 100.465C99.1149 100.465 98.5438 100.374 98.0416 100.191C97.5394 100.009 97.1061 99.758 96.7416 99.438L97.6549 98.4113C97.9438 98.6424 98.2661 98.8269 98.6216 98.9646C98.9772 99.098 99.3527 99.1646 99.7483 99.1646ZM107.98 89.6446C108.193 89.6446 108.382 89.6913 108.546 89.7846C108.711 89.8735 108.84 89.998 108.933 90.158C109.026 90.318 109.073 90.4958 109.073 90.6913C109.073 90.8869 109.026 91.0646 108.933 91.2246C108.84 91.3846 108.711 91.5113 108.546 91.6046C108.382 91.698 108.193 91.7446 107.98 91.7446C107.766 91.7446 107.575 91.698 107.406 91.6046C107.242 91.5113 107.113 91.3846 107.02 91.2246C106.926 91.0646 106.88 90.8869 106.88 90.6913C106.88 90.4958 106.926 90.318 107.02 90.158C107.113 89.998 107.242 89.8735 107.406 89.7846C107.575 89.6913 107.766 89.6446 107.98 89.6446ZM105.36 93.2046H109.12V99.018H110.98V100.265H105.293V99.018H107.36V94.4513H105.36V93.2046ZM119.584 93.5846C119.327 93.678 119.033 93.7446 118.704 93.7846C118.375 93.8202 117.987 93.838 117.538 93.838C117.982 94.0291 118.313 94.2713 118.531 94.5646C118.749 94.8535 118.858 95.2113 118.858 95.638C118.858 96.0958 118.74 96.5069 118.504 96.8713C118.273 97.2313 117.94 97.5135 117.504 97.718C117.073 97.918 116.567 98.018 115.984 98.018C115.651 98.018 115.351 97.9846 115.084 97.918C115 97.9669 114.931 98.038 114.878 98.1313C114.829 98.2246 114.804 98.3202 114.804 98.418C114.804 98.5691 114.862 98.6891 114.978 98.778C115.098 98.8624 115.318 98.9046 115.638 98.9046H116.838C117.349 98.9046 117.802 98.9913 118.198 99.1646C118.598 99.338 118.907 99.578 119.124 99.8846C119.347 100.187 119.458 100.527 119.458 100.905C119.458 101.38 119.318 101.787 119.038 102.125C118.762 102.467 118.353 102.727 117.811 102.905C117.269 103.082 116.607 103.171 115.824 103.171C114.993 103.171 114.338 103.087 113.858 102.918C113.382 102.749 113.047 102.502 112.851 102.178C112.655 101.858 112.558 101.451 112.558 100.958H114.124C114.124 101.202 114.171 101.394 114.264 101.531C114.362 101.674 114.535 101.778 114.784 101.845C115.033 101.916 115.391 101.951 115.858 101.951C116.529 101.951 117.004 101.871 117.284 101.711C117.564 101.556 117.704 101.327 117.704 101.025C117.704 100.771 117.595 100.574 117.378 100.431C117.164 100.289 116.864 100.218 116.478 100.218H115.311C114.853 100.218 114.471 100.156 114.164 100.031C113.862 99.9069 113.638 99.7402 113.491 99.5313C113.344 99.3224 113.271 99.0913 113.271 98.838C113.271 98.5846 113.338 98.3446 113.471 98.118C113.609 97.8913 113.804 97.698 114.058 97.538C113.627 97.3113 113.313 97.038 113.118 96.718C112.922 96.3935 112.824 96.0002 112.824 95.538C112.824 95.0358 112.953 94.5935 113.211 94.2113C113.469 93.8291 113.827 93.5335 114.284 93.3246C114.747 93.1158 115.273 93.0113 115.864 93.0113C116.38 93.0158 116.829 92.9846 117.211 92.918C117.598 92.8513 117.929 92.7624 118.204 92.6513C118.484 92.5402 118.798 92.3935 119.144 92.2113L119.584 93.5846ZM115.898 94.1846C115.489 94.1846 115.171 94.3046 114.944 94.5446C114.722 94.7846 114.611 95.1113 114.611 95.5246C114.611 95.9469 114.724 96.2802 114.951 96.5246C115.178 96.7646 115.495 96.8846 115.904 96.8846C116.304 96.8846 116.611 96.7669 116.824 96.5313C117.038 96.2913 117.144 95.9491 117.144 95.5046C117.144 94.6246 116.729 94.1846 115.898 94.1846ZM121.056 100.265V93.2046H122.589L122.716 94.078C123.018 93.7224 123.358 93.4558 123.736 93.278C124.114 93.0958 124.52 93.0046 124.956 93.0046C125.587 93.0046 126.069 93.1869 126.402 93.5513C126.74 93.9158 126.909 94.4313 126.909 95.098V100.265H125.149V95.7846C125.149 95.4113 125.125 95.1224 125.076 94.918C125.031 94.7091 124.947 94.558 124.822 94.4646C124.702 94.3669 124.525 94.318 124.289 94.318C123.774 94.318 123.282 94.6313 122.816 95.258V100.265H121.056ZM134.794 97.3246H129.167V95.9246H134.794V97.3246ZM139.739 99.1646C140.161 99.1646 140.494 99.0935 140.739 98.9513C140.987 98.8046 141.112 98.6002 141.112 98.338C141.112 98.1558 141.07 98.0069 140.985 97.8913C140.901 97.7758 140.739 97.6669 140.499 97.5646C140.263 97.458 139.905 97.3402 139.425 97.2113C138.936 97.0869 138.527 96.9402 138.199 96.7713C137.87 96.598 137.614 96.3758 137.432 96.1046C137.25 95.8291 137.159 95.4913 137.159 95.0913C137.159 94.6824 137.274 94.3202 137.505 94.0046C137.741 93.6891 138.079 93.4446 138.519 93.2713C138.963 93.0935 139.487 93.0046 140.092 93.0046C141.167 93.0046 142.085 93.2802 142.845 93.8313L142.125 94.9046C141.481 94.4958 140.816 94.2913 140.132 94.2913C139.341 94.2913 138.945 94.518 138.945 94.9713C138.945 95.1269 138.992 95.2558 139.085 95.358C139.183 95.4602 139.35 95.558 139.585 95.6513C139.825 95.7446 140.192 95.8602 140.685 95.998C141.192 96.1402 141.605 96.2958 141.925 96.4646C142.25 96.6335 142.501 96.858 142.679 97.138C142.861 97.418 142.952 97.7758 142.952 98.2113C142.952 98.7002 142.805 99.1158 142.512 99.458C142.223 99.7958 141.836 100.049 141.352 100.218C140.867 100.382 140.332 100.465 139.745 100.465C139.105 100.465 138.534 100.374 138.032 100.191C137.53 100.009 137.096 99.758 136.732 99.438L137.645 98.4113C137.934 98.6424 138.256 98.8269 138.612 98.9646C138.967 99.098 139.343 99.1646 139.739 99.1646ZM149.05 100.278C148.748 101.18 148.305 101.871 147.723 102.351C147.145 102.836 146.363 103.111 145.377 103.178L145.157 101.905C145.623 101.838 145.999 101.738 146.283 101.605C146.568 101.476 146.794 101.305 146.963 101.091C147.137 100.882 147.29 100.607 147.423 100.265H146.823L144.51 93.2046H146.37L147.97 99.0913L149.637 93.2046H151.443L149.05 100.278ZM155.735 99.1646C156.157 99.1646 156.49 99.0935 156.735 98.9513C156.983 98.8046 157.108 98.6002 157.108 98.338C157.108 98.1558 157.066 98.0069 156.981 97.8913C156.897 97.7758 156.735 97.6669 156.495 97.5646C156.259 97.458 155.901 97.3402 155.421 97.2113C154.932 97.0869 154.523 96.9402 154.195 96.7713C153.866 96.598 153.61 96.3758 153.428 96.1046C153.246 95.8291 153.155 95.4913 153.155 95.0913C153.155 94.6824 153.27 94.3202 153.501 94.0046C153.737 93.6891 154.075 93.4446 154.515 93.2713C154.959 93.0935 155.483 93.0046 156.088 93.0046C157.163 93.0046 158.081 93.2802 158.841 93.8313L158.121 94.9046C157.477 94.4958 156.812 94.2913 156.128 94.2913C155.337 94.2913 154.941 94.518 154.941 94.9713C154.941 95.1269 154.988 95.2558 155.081 95.358C155.179 95.4602 155.346 95.558 155.581 95.6513C155.821 95.7446 156.188 95.8602 156.681 95.998C157.188 96.1402 157.601 96.2958 157.921 96.4646C158.246 96.6335 158.497 96.858 158.675 97.138C158.857 97.418 158.948 97.7758 158.948 98.2113C158.948 98.7002 158.801 99.1158 158.508 99.458C158.219 99.7958 157.832 100.049 157.348 100.218C156.863 100.382 156.328 100.465 155.741 100.465C155.101 100.465 154.53 100.374 154.028 100.191C153.526 100.009 153.092 99.758 152.728 99.438L153.641 98.4113C153.93 98.6424 154.252 98.8269 154.608 98.9646C154.963 99.098 155.339 99.1646 155.735 99.1646ZM167.139 99.8713C166.864 100.054 166.537 100.198 166.159 100.305C165.786 100.411 165.39 100.465 164.973 100.465C164.408 100.465 163.93 100.365 163.539 100.165C163.153 99.9646 162.862 99.6824 162.666 99.318C162.47 98.9491 162.373 98.5135 162.373 98.0113V94.4513H160.839V93.2046H162.373V91.6513L164.133 91.438V93.2046H166.466L166.286 94.4513H164.133V98.0046C164.133 98.3735 164.222 98.6424 164.399 98.8113C164.577 98.9758 164.864 99.058 165.259 99.058C165.713 99.058 166.137 98.9513 166.533 98.738L167.139 99.8713ZM170.544 97.2713C170.593 97.9069 170.78 98.378 171.104 98.6846C171.433 98.9913 171.853 99.1446 172.364 99.1446C172.688 99.1446 173 99.0935 173.297 98.9913C173.595 98.8891 173.895 98.738 174.197 98.538L174.931 99.5446C174.588 99.8335 174.188 100.06 173.731 100.225C173.273 100.385 172.78 100.465 172.251 100.465C171.5 100.465 170.86 100.309 170.331 99.998C169.806 99.6869 169.408 99.2513 169.137 98.6913C168.871 98.1313 168.737 97.4824 168.737 96.7446C168.737 96.038 168.868 95.4024 169.131 94.838C169.397 94.2691 169.78 93.8224 170.277 93.498C170.78 93.1691 171.371 93.0046 172.051 93.0046C172.691 93.0046 173.248 93.1469 173.724 93.4313C174.2 93.7158 174.566 94.1269 174.824 94.6646C175.082 95.198 175.211 95.8335 175.211 96.5713C175.211 96.8246 175.2 97.058 175.177 97.2713H170.544ZM172.057 94.2446C171.617 94.2446 171.262 94.4024 170.991 94.718C170.724 95.0291 170.568 95.5046 170.524 96.1446H173.497C173.488 95.5358 173.362 95.0669 173.117 94.738C172.877 94.4091 172.524 94.2446 172.057 94.2446ZM182.062 93.0046C182.533 93.0046 182.891 93.1602 183.135 93.4713C183.38 93.7824 183.502 94.3024 183.502 95.0313V100.265H181.969V95.2513C181.969 95.0246 181.958 94.8513 181.935 94.7313C181.918 94.6069 181.878 94.5158 181.815 94.458C181.758 94.4002 181.669 94.3713 181.549 94.3713C181.224 94.3713 180.922 94.5691 180.642 94.9646V100.265H179.315V95.2513C179.315 95.0246 179.304 94.8513 179.282 94.7313C179.264 94.6069 179.224 94.5158 179.162 94.458C179.104 94.4002 179.015 94.3713 178.895 94.3713C178.735 94.3713 178.582 94.418 178.435 94.5113C178.289 94.6002 178.14 94.7513 177.989 94.9646V100.265H176.435V93.2046H177.749L177.862 93.938C178.089 93.6269 178.315 93.3935 178.542 93.238C178.773 93.0824 179.044 93.0046 179.355 93.0046C179.64 93.0046 179.882 93.0758 180.082 93.218C180.282 93.3558 180.424 93.5735 180.509 93.8713C180.731 93.5958 180.967 93.3824 181.215 93.2313C181.469 93.0802 181.751 93.0046 182.062 93.0046Z" fill="#A3A3A3"/>
<path d="M43.998 144.765C44.5285 144.765 45.0372 144.554 45.4123 144.179C45.7873 143.804 45.998 143.295 45.998 142.765V132.765C45.998 132.234 45.7873 131.726 45.4123 131.35C45.0372 130.975 44.5285 130.765 43.998 130.765H36.098C35.7636 130.768 35.4336 130.687 35.1383 130.53C34.8431 130.373 34.592 130.144 34.408 129.865L33.598 128.665C33.4159 128.388 33.168 128.161 32.8765 128.004C32.5851 127.847 32.2592 127.765 31.928 127.765H27.998C27.4676 127.765 26.9589 127.975 26.5838 128.35C26.2088 128.726 25.998 129.234 25.998 129.765V142.765C25.998 143.295 26.2088 143.804 26.5838 144.179C26.9589 144.554 27.4676 144.765 27.998 144.765H43.998Z" stroke="black" stroke-width="2" stroke-linecap="round" stroke-linejoin="round"/>
<path d="M60.6247 139.051C60.918 139.051 61.198 138.998 61.4647 138.891C61.7358 138.785 62.0114 138.634 62.2914 138.438L63.0914 139.565C62.7714 139.84 62.3892 140.06 61.9447 140.225C61.5003 140.385 61.0358 140.465 60.5514 140.465C59.8225 140.465 59.1914 140.311 58.658 140.005C58.1292 139.698 57.7225 139.267 57.438 138.711C57.158 138.156 57.018 137.511 57.018 136.778C57.018 136.049 57.1603 135.4 57.4447 134.831C57.7336 134.258 58.1469 133.811 58.6847 133.491C59.2225 133.167 59.8536 133.005 60.578 133.005C61.0803 133.005 61.5358 133.076 61.9447 133.218C62.358 133.36 62.738 133.576 63.0847 133.865L62.3047 134.945C61.758 134.571 61.2003 134.385 60.6314 134.385C60.0847 134.385 59.6536 134.58 59.338 134.971C59.0269 135.362 58.8714 135.965 58.8714 136.778C58.8714 137.574 59.0269 138.151 59.338 138.511C59.6536 138.871 60.0825 139.051 60.6247 139.051ZM68.0028 133.005C68.6961 133.005 69.2894 133.158 69.7828 133.465C70.2761 133.767 70.6494 134.198 70.9028 134.758C71.1605 135.314 71.2894 135.967 71.2894 136.718C71.2894 137.482 71.1605 138.147 70.9028 138.711C70.645 139.271 70.2672 139.705 69.7694 140.011C69.2761 140.314 68.685 140.465 67.9961 140.465C67.3028 140.465 66.7094 140.316 66.2161 140.018C65.7228 139.72 65.3472 139.291 65.0894 138.731C64.8316 138.171 64.7028 137.505 64.7028 136.731C64.7028 135.994 64.8316 135.345 65.0894 134.785C65.3516 134.22 65.7294 133.782 66.2228 133.471C66.7205 133.16 67.3139 133.005 68.0028 133.005ZM68.0028 134.331C67.505 134.331 67.1361 134.527 66.8961 134.918C66.6561 135.305 66.5361 135.909 66.5361 136.731C66.5361 137.562 66.6561 138.171 66.8961 138.558C67.1361 138.945 67.5028 139.138 67.9961 139.138C68.4894 139.138 68.8561 138.945 69.0961 138.558C69.3361 138.167 69.4561 137.554 69.4561 136.718C69.4561 135.905 69.3361 135.305 69.0961 134.918C68.8561 134.527 68.4916 134.331 68.0028 134.331ZM73.0675 140.265V133.205H74.6008L74.7275 134.078C75.0297 133.722 75.3697 133.456 75.7475 133.278C76.1253 133.096 76.5319 133.005 76.9675 133.005C77.5986 133.005 78.0808 133.187 78.4141 133.551C78.7519 133.916 78.9208 134.431 78.9208 135.098V140.265H77.1608V135.785C77.1608 135.411 77.1364 135.122 77.0875 134.918C77.043 134.709 76.9586 134.558 76.8341 134.465C76.7141 134.367 76.5364 134.318 76.3008 134.318C75.7853 134.318 75.2941 134.631 74.8275 135.258V140.265H73.0675ZM85.4455 130.198C86.2811 130.198 87.03 130.338 87.6922 130.618L87.1855 131.805C86.7277 131.618 86.2233 131.525 85.6722 131.525C85.2277 131.525 84.9033 131.609 84.6989 131.778C84.4989 131.942 84.3989 132.207 84.3989 132.571V133.685H86.7322L86.5389 134.945H84.3989V140.265H82.6455V134.945H81.0922V133.685H82.6455V132.531C82.6455 132.078 82.7566 131.676 82.9789 131.325C83.2055 130.969 83.53 130.694 83.9522 130.498C84.3744 130.298 84.8722 130.198 85.4455 130.198ZM91.9836 130.031C92.1969 130.031 92.3858 130.078 92.5502 130.171C92.7147 130.26 92.8436 130.385 92.9369 130.545C93.0302 130.705 93.0769 130.882 93.0769 131.078C93.0769 131.278 93.0302 131.458 92.9369 131.618C92.8436 131.778 92.7147 131.905 92.5502 131.998C92.3858 132.087 92.1969 132.131 91.9836 132.131C91.7702 132.131 91.5791 132.087 91.4102 131.998C91.2458 131.905 91.1169 131.778 91.0236 131.618C90.9302 131.458 90.8836 131.278 90.8836 131.078C90.8836 130.882 90.9302 130.705 91.0236 130.545C91.1169 130.385 91.2458 130.26 91.4102 130.171C91.5791 130.078 91.7702 130.031 91.9836 130.031ZM89.3636 133.685H93.1236V139.018H94.9836V140.265H89.2969V139.018H91.3636V134.945H89.3636V133.685ZM103.588 133.585C103.331 133.678 103.037 133.745 102.708 133.785C102.379 133.82 101.991 133.838 101.542 133.838C101.986 134.029 102.317 134.271 102.535 134.565C102.753 134.854 102.862 135.211 102.862 135.638C102.862 136.096 102.744 136.507 102.508 136.871C102.277 137.231 101.944 137.514 101.508 137.718C101.077 137.918 100.571 138.018 99.9883 138.018C99.6549 138.018 99.3549 137.985 99.0883 137.918C99.0038 137.967 98.9349 138.038 98.8816 138.131C98.8327 138.225 98.8083 138.32 98.8083 138.418C98.8083 138.569 98.8661 138.689 98.9816 138.778C99.1016 138.862 99.3216 138.905 99.6416 138.905H100.842C101.353 138.905 101.806 138.991 102.202 139.165C102.602 139.338 102.911 139.578 103.128 139.885C103.351 140.187 103.462 140.527 103.462 140.905C103.462 141.38 103.322 141.787 103.042 142.125C102.766 142.467 102.357 142.727 101.815 142.905C101.273 143.082 100.611 143.171 99.8283 143.171C98.9972 143.171 98.3416 143.087 97.8616 142.918C97.3861 142.749 97.0505 142.502 96.8549 142.178C96.6594 141.858 96.5616 141.451 96.5616 140.958H98.1283C98.1283 141.202 98.1749 141.394 98.2683 141.531C98.3661 141.674 98.5394 141.778 98.7883 141.845C99.0372 141.916 99.3949 141.951 99.8616 141.951C100.533 141.951 101.008 141.871 101.288 141.711C101.568 141.556 101.708 141.327 101.708 141.025C101.708 140.771 101.599 140.574 101.382 140.431C101.168 140.289 100.868 140.218 100.482 140.218H99.3149C98.8572 140.218 98.4749 140.156 98.1683 140.031C97.8661 139.907 97.6416 139.74 97.4949 139.531C97.3483 139.322 97.2749 139.091 97.2749 138.838C97.2749 138.585 97.3416 138.345 97.4749 138.118C97.6127 137.891 97.8083 137.698 98.0616 137.538C97.6305 137.311 97.3172 137.038 97.1216 136.718C96.9261 136.394 96.8283 136 96.8283 135.538C96.8283 135.036 96.9572 134.594 97.2149 134.211C97.4727 133.829 97.8305 133.534 98.2883 133.325C98.7505 133.116 99.2772 133.011 99.8683 133.011C100.384 133.016 100.833 132.985 101.215 132.918C101.602 132.851 101.933 132.762 102.208 132.651C102.488 132.54 102.802 132.394 103.148 132.211L103.588 133.585ZM99.9016 134.185C99.4927 134.185 99.1749 134.305 98.9483 134.545C98.7261 134.785 98.6149 135.111 98.6149 135.525C98.6149 135.947 98.7283 136.28 98.9549 136.525C99.1816 136.765 99.4994 136.885 99.9083 136.885C100.308 136.885 100.615 136.767 100.828 136.531C101.042 136.291 101.148 135.949 101.148 135.505C101.148 134.625 100.733 134.185 99.9016 134.185ZM110.8 137.325H105.173V135.925H110.8V137.325ZM114.558 137.271C114.607 137.907 114.793 138.378 115.118 138.685C115.447 138.991 115.867 139.145 116.378 139.145C116.702 139.145 117.013 139.094 117.311 138.991C117.609 138.889 117.909 138.738 118.211 138.538L118.944 139.545C118.602 139.834 118.202 140.06 117.744 140.225C117.287 140.385 116.793 140.465 116.264 140.465C115.513 140.465 114.873 140.309 114.344 139.998C113.82 139.687 113.422 139.251 113.151 138.691C112.884 138.131 112.751 137.482 112.751 136.745C112.751 136.038 112.882 135.402 113.144 134.838C113.411 134.269 113.793 133.822 114.291 133.498C114.793 133.169 115.384 133.005 116.064 133.005C116.704 133.005 117.262 133.147 117.738 133.431C118.213 133.716 118.58 134.127 118.838 134.665C119.095 135.198 119.224 135.834 119.224 136.571C119.224 136.825 119.213 137.058 119.191 137.271H114.558ZM116.071 134.245C115.631 134.245 115.275 134.402 115.004 134.718C114.738 135.029 114.582 135.505 114.538 136.145H117.511C117.502 135.536 117.375 135.067 117.131 134.738C116.891 134.409 116.538 134.245 116.071 134.245ZM123.742 139.165C124.165 139.165 124.498 139.094 124.742 138.951C124.991 138.805 125.116 138.6 125.116 138.338C125.116 138.156 125.074 138.007 124.989 137.891C124.905 137.776 124.742 137.667 124.502 137.565C124.267 137.458 123.909 137.34 123.429 137.211C122.94 137.087 122.531 136.94 122.202 136.771C121.874 136.598 121.618 136.376 121.436 136.105C121.254 135.829 121.162 135.491 121.162 135.091C121.162 134.682 121.278 134.32 121.509 134.005C121.745 133.689 122.082 133.445 122.522 133.271C122.967 133.094 123.491 133.005 124.096 133.005C125.171 133.005 126.089 133.28 126.849 133.831L126.129 134.905C125.485 134.496 124.82 134.291 124.136 134.291C123.345 134.291 122.949 134.518 122.949 134.971C122.949 135.127 122.996 135.256 123.089 135.358C123.187 135.46 123.354 135.558 123.589 135.651C123.829 135.745 124.196 135.86 124.689 135.998C125.196 136.14 125.609 136.296 125.929 136.465C126.254 136.634 126.505 136.858 126.682 137.138C126.865 137.418 126.956 137.776 126.956 138.211C126.956 138.7 126.809 139.116 126.516 139.458C126.227 139.796 125.84 140.049 125.356 140.218C124.871 140.382 124.336 140.465 123.749 140.465C123.109 140.465 122.538 140.374 122.036 140.191C121.534 140.009 121.1 139.758 120.736 139.438L121.649 138.411C121.938 138.642 122.26 138.827 122.616 138.965C122.971 139.098 123.347 139.165 123.742 139.165ZM132.414 138.211C132.414 138.776 132.747 139.058 133.414 139.058C133.752 139.058 134.105 138.985 134.474 138.838L134.907 140.038C134.356 140.322 133.718 140.465 132.994 140.465C132.234 140.465 131.654 140.249 131.254 139.818C130.854 139.387 130.654 138.789 130.654 138.025V131.631H128.54V130.385H132.414V138.211ZM139.972 129.645C140.185 129.645 140.374 129.691 140.539 129.785C140.703 129.874 140.832 129.998 140.925 130.158C141.019 130.318 141.065 130.496 141.065 130.691C141.065 130.887 141.019 131.065 140.925 131.225C140.832 131.385 140.703 131.511 140.539 131.605C140.374 131.698 140.185 131.745 139.972 131.745C139.759 131.745 139.567 131.698 139.399 131.605C139.234 131.511 139.105 131.385 139.012 131.225C138.919 131.065 138.872 130.887 138.872 130.691C138.872 130.496 138.919 130.318 139.012 130.158C139.105 129.998 139.234 129.874 139.399 129.785C139.567 129.691 139.759 129.645 139.972 129.645ZM137.352 133.205H141.112V139.018H142.972V140.265H137.285V139.018H139.352V134.451H137.352V133.205ZM145.05 140.265V133.205H146.583L146.71 134.078C147.012 133.722 147.352 133.456 147.73 133.278C148.108 133.096 148.514 133.005 148.95 133.005C149.581 133.005 150.063 133.187 150.397 133.551C150.734 133.916 150.903 134.431 150.903 135.098V140.265H149.143V135.785C149.143 135.411 149.119 135.122 149.07 134.918C149.025 134.709 148.941 134.558 148.817 134.465C148.697 134.367 148.519 134.318 148.283 134.318C147.768 134.318 147.277 134.631 146.81 135.258V140.265H145.05ZM159.141 139.871C158.866 140.054 158.539 140.198 158.161 140.305C157.788 140.411 157.392 140.465 156.975 140.465C156.41 140.465 155.932 140.365 155.541 140.165C155.155 139.965 154.863 139.682 154.668 139.318C154.472 138.949 154.375 138.514 154.375 138.011V134.451H152.841V133.205H154.375V131.651L156.135 131.438V133.205H158.468L158.288 134.451H156.135V138.005C156.135 138.374 156.223 138.642 156.401 138.811C156.579 138.976 156.866 139.058 157.261 139.058C157.715 139.058 158.139 138.951 158.535 138.738L159.141 139.871Z" fill="black"/>
<path d="M43.998 184.765C44.5285 184.765 45.0372 184.554 45.4123 184.179C45.7873 183.804 45.998 183.295 45.998 182.765V172.765C45.998 172.234 45.7873 171.726 45.4123 171.35C45.0372 170.975 44.5285 170.765 43.998 170.765H36.098C35.7636 170.768 35.4336 170.687 35.1383 170.53C34.8431 170.373 34.592 170.144 34.408 169.865L33.598 168.665C33.4159 168.388 33.168 168.161 32.8765 168.004C32.5851 167.847 32.2592 167.765 31.928 167.765H27.998C27.4676 167.765 26.9589 167.975 26.5838 168.35C26.2088 168.726 25.998 169.234 25.998 169.765V182.765C25.998 183.295 26.2088 183.804 26.5838 184.179C26.9589 184.554 27.4676 184.765 27.998 184.765H43.998Z" stroke="black" stroke-width="2" stroke-linecap="round" stroke-linejoin="round"/>
<path d="M60.6247 179.551C60.918 179.551 61.198 179.498 61.4647 179.391C61.7358 179.285 62.0114 179.134 62.2914 178.938L63.0914 180.065C62.7714 180.34 62.3892 180.56 61.9447 180.725C61.5003 180.885 61.0358 180.965 60.5514 180.965C59.8225 180.965 59.1914 180.811 58.658 180.505C58.1292 180.198 57.7225 179.767 57.438 179.211C57.158 178.656 57.018 178.011 57.018 177.278C57.018 176.549 57.1603 175.9 57.4447 175.331C57.7336 174.758 58.1469 174.311 58.6847 173.991C59.2225 173.667 59.8536 173.505 60.578 173.505C61.0803 173.505 61.5358 173.576 61.9447 173.718C62.358 173.86 62.738 174.076 63.0847 174.365L62.3047 175.445C61.758 175.071 61.2003 174.885 60.6314 174.885C60.0847 174.885 59.6536 175.08 59.338 175.471C59.0269 175.862 58.8714 176.465 58.8714 177.278C58.8714 178.074 59.0269 178.651 59.338 179.011C59.6536 179.371 60.0825 179.551 60.6247 179.551ZM68.0028 173.505C68.6961 173.505 69.2894 173.658 69.7828 173.965C70.2761 174.267 70.6494 174.698 70.9028 175.258C71.1605 175.814 71.2894 176.467 71.2894 177.218C71.2894 177.982 71.1605 178.647 70.9028 179.211C70.645 179.771 70.2672 180.205 69.7694 180.511C69.2761 180.814 68.685 180.965 67.9961 180.965C67.3028 180.965 66.7094 180.816 66.2161 180.518C65.7228 180.22 65.3472 179.791 65.0894 179.231C64.8316 178.671 64.7028 178.005 64.7028 177.231C64.7028 176.494 64.8316 175.845 65.0894 175.285C65.3516 174.72 65.7294 174.282 66.2228 173.971C66.7205 173.66 67.3139 173.505 68.0028 173.505ZM68.0028 174.831C67.505 174.831 67.1361 175.027 66.8961 175.418C66.6561 175.805 66.5361 176.409 66.5361 177.231C66.5361 178.062 66.6561 178.671 66.8961 179.058C67.1361 179.445 67.5028 179.638 67.9961 179.638C68.4894 179.638 68.8561 179.445 69.0961 179.058C69.3361 178.667 69.4561 178.054 69.4561 177.218C69.4561 176.405 69.3361 175.805 69.0961 175.418C68.8561 175.027 68.4916 174.831 68.0028 174.831ZM73.0675 180.765V173.705H74.6008L74.7275 174.578C75.0297 174.222 75.3697 173.956 75.7475 173.778C76.1253 173.596 76.5319 173.505 76.9675 173.505C77.5986 173.505 78.0808 173.687 78.4141 174.051C78.7519 174.416 78.9208 174.931 78.9208 175.598V180.765H77.1608V176.285C77.1608 175.911 77.1364 175.622 77.0875 175.418C77.043 175.209 76.9586 175.058 76.8341 174.965C76.7141 174.867 76.5364 174.818 76.3008 174.818C75.7853 174.818 75.2941 175.131 74.8275 175.758V180.765H73.0675ZM85.4455 170.698C86.2811 170.698 87.03 170.838 87.6922 171.118L87.1855 172.305C86.7277 172.118 86.2233 172.025 85.6722 172.025C85.2277 172.025 84.9033 172.109 84.6989 172.278C84.4989 172.442 84.3989 172.707 84.3989 173.071V174.185H86.7322L86.5389 175.445H84.3989V180.765H82.6455V175.445H81.0922V174.185H82.6455V173.031C82.6455 172.578 82.7566 172.176 82.9789 171.825C83.2055 171.469 83.53 171.194 83.9522 170.998C84.3744 170.798 84.8722 170.698 85.4455 170.698ZM91.9836 170.531C92.1969 170.531 92.3858 170.578 92.5502 170.671C92.7147 170.76 92.8436 170.885 92.9369 171.045C93.0302 171.205 93.0769 171.382 93.0769 171.578C93.0769 171.778 93.0302 171.958 92.9369 172.118C92.8436 172.278 92.7147 172.405 92.5502 172.498C92.3858 172.587 92.1969 172.631 91.9836 172.631C91.7702 172.631 91.5791 172.587 91.4102 172.498C91.2458 172.405 91.1169 172.278 91.0236 172.118C90.9302 171.958 90.8836 171.778 90.8836 171.578C90.8836 171.382 90.9302 171.205 91.0236 171.045C91.1169 170.885 91.2458 170.76 91.4102 170.671C91.5791 170.578 91.7702 170.531 91.9836 170.531ZM89.3636 174.185H93.1236V179.518H94.9836V180.765H89.2969V179.518H91.3636V175.445H89.3636V174.185ZM103.588 174.085C103.331 174.178 103.037 174.245 102.708 174.285C102.379 174.32 101.991 174.338 101.542 174.338C101.986 174.529 102.317 174.771 102.535 175.065C102.753 175.354 102.862 175.711 102.862 176.138C102.862 176.596 102.744 177.007 102.508 177.371C102.277 177.731 101.944 178.014 101.508 178.218C101.077 178.418 100.571 178.518 99.9883 178.518C99.6549 178.518 99.3549 178.485 99.0883 178.418C99.0038 178.467 98.9349 178.538 98.8816 178.631C98.8327 178.725 98.8083 178.82 98.8083 178.918C98.8083 179.069 98.8661 179.189 98.9816 179.278C99.1016 179.362 99.3216 179.405 99.6416 179.405H100.842C101.353 179.405 101.806 179.491 102.202 179.665C102.602 179.838 102.911 180.078 103.128 180.385C103.351 180.687 103.462 181.027 103.462 181.405C103.462 181.88 103.322 182.287 103.042 182.625C102.766 182.967 102.357 183.227 101.815 183.405C101.273 183.582 100.611 183.671 99.8283 183.671C98.9972 183.671 98.3416 183.587 97.8616 183.418C97.3861 183.249 97.0505 183.002 96.8549 182.678C96.6594 182.358 96.5616 181.951 96.5616 181.458H98.1283C98.1283 181.702 98.1749 181.894 98.2683 182.031C98.3661 182.174 98.5394 182.278 98.7883 182.345C99.0372 182.416 99.3949 182.451 99.8616 182.451C100.533 182.451 101.008 182.371 101.288 182.211C101.568 182.056 101.708 181.827 101.708 181.525C101.708 181.271 101.599 181.074 101.382 180.931C101.168 180.789 100.868 180.718 100.482 180.718H99.3149C98.8572 180.718 98.4749 180.656 98.1683 180.531C97.8661 180.407 97.6416 180.24 97.4949 180.031C97.3483 179.822 97.2749 179.591 97.2749 179.338C97.2749 179.085 97.3416 178.845 97.4749 178.618C97.6127 178.391 97.8083 178.198 98.0616 178.038C97.6305 177.811 97.3172 177.538 97.1216 177.218C96.9261 176.894 96.8283 176.5 96.8283 176.038C96.8283 175.536 96.9572 175.094 97.2149 174.711C97.4727 174.329 97.8305 174.034 98.2883 173.825C98.7505 173.616 99.2772 173.511 99.8683 173.511C100.384 173.516 100.833 173.485 101.215 173.418C101.602 173.351 101.933 173.262 102.208 173.151C102.488 173.04 102.802 172.894 103.148 172.711L103.588 174.085ZM99.9016 174.685C99.4927 174.685 99.1749 174.805 98.9483 175.045C98.7261 175.285 98.6149 175.611 98.6149 176.025C98.6149 176.447 98.7283 176.78 98.9549 177.025C99.1816 177.265 99.4994 177.385 99.9083 177.385C100.308 177.385 100.615 177.267 100.828 177.031C101.042 176.791 101.148 176.449 101.148 176.005C101.148 175.125 100.733 174.685 99.9016 174.685ZM110.8 177.825H105.173V176.425H110.8V177.825ZM119.151 180.371C118.875 180.554 118.549 180.698 118.171 180.805C117.798 180.911 117.402 180.965 116.984 180.965C116.42 180.965 115.942 180.865 115.551 180.665C115.164 180.465 114.873 180.182 114.678 179.818C114.482 179.449 114.384 179.014 114.384 178.511V174.951H112.851V173.705H114.384V172.151L116.144 171.938V173.705H118.478L118.298 174.951H116.144V178.505C116.144 178.874 116.233 179.142 116.411 179.311C116.589 179.476 116.875 179.558 117.271 179.558C117.724 179.558 118.149 179.451 118.544 179.238L119.151 180.371ZM123.742 179.665C124.165 179.665 124.498 179.594 124.742 179.451C124.991 179.305 125.116 179.1 125.116 178.838C125.116 178.656 125.074 178.507 124.989 178.391C124.905 178.276 124.742 178.167 124.502 178.065C124.267 177.958 123.909 177.84 123.429 177.711C122.94 177.587 122.531 177.44 122.202 177.271C121.874 177.098 121.618 176.876 121.436 176.605C121.254 176.329 121.162 175.991 121.162 175.591C121.162 175.182 121.278 174.82 121.509 174.505C121.745 174.189 122.082 173.945 122.522 173.771C122.967 173.594 123.491 173.505 124.096 173.505C125.171 173.505 126.089 173.78 126.849 174.331L126.129 175.405C125.485 174.996 124.82 174.791 124.136 174.791C123.345 174.791 122.949 175.018 122.949 175.471C122.949 175.627 122.996 175.756 123.089 175.858C123.187 175.96 123.354 176.058 123.589 176.151C123.829 176.245 124.196 176.36 124.689 176.498C125.196 176.64 125.609 176.796 125.929 176.965C126.254 177.134 126.505 177.358 126.682 177.638C126.865 177.918 126.956 178.276 126.956 178.711C126.956 179.2 126.809 179.616 126.516 179.958C126.227 180.296 125.84 180.549 125.356 180.718C124.871 180.882 124.336 180.965 123.749 180.965C123.109 180.965 122.538 180.874 122.036 180.691C121.534 180.509 121.1 180.258 120.736 179.938L121.649 178.911C121.938 179.142 122.26 179.327 122.616 179.465C122.971 179.598 123.347 179.665 123.742 179.665ZM132.607 179.551C132.9 179.551 133.18 179.498 133.447 179.391C133.718 179.285 133.994 179.134 134.274 178.938L135.074 180.065C134.754 180.34 134.372 180.56 133.927 180.725C133.483 180.885 133.018 180.965 132.534 180.965C131.805 180.965 131.174 180.811 130.64 180.505C130.112 180.198 129.705 179.767 129.42 179.211C129.14 178.656 129 178.011 129 177.278C129 176.549 129.143 175.9 129.427 175.331C129.716 174.758 130.129 174.311 130.667 173.991C131.205 173.667 131.836 173.505 132.56 173.505C133.063 173.505 133.518 173.576 133.927 173.718C134.34 173.86 134.72 174.076 135.067 174.365L134.287 175.445C133.74 175.071 133.183 174.885 132.614 174.885C132.067 174.885 131.636 175.08 131.32 175.471C131.009 175.862 130.854 176.465 130.854 177.278C130.854 178.074 131.009 178.651 131.32 179.011C131.636 179.371 132.065 179.551 132.607 179.551ZM139.985 173.505C140.679 173.505 141.272 173.658 141.765 173.965C142.259 174.267 142.632 174.698 142.885 175.258C143.143 175.814 143.272 176.467 143.272 177.218C143.272 177.982 143.143 178.647 142.885 179.211C142.627 179.771 142.25 180.205 141.752 180.511C141.259 180.814 140.667 180.965 139.979 180.965C139.285 180.965 138.692 180.816 138.199 180.518C137.705 180.22 137.33 179.791 137.072 179.231C136.814 178.671 136.685 178.005 136.685 177.231C136.685 176.494 136.814 175.845 137.072 175.285C137.334 174.72 137.712 174.282 138.205 173.971C138.703 173.66 139.296 173.505 139.985 173.505ZM139.985 174.831C139.487 174.831 139.119 175.027 138.879 175.418C138.639 175.805 138.519 176.409 138.519 177.231C138.519 178.062 138.639 178.671 138.879 179.058C139.119 179.445 139.485 179.638 139.979 179.638C140.472 179.638 140.839 179.445 141.079 179.058C141.319 178.667 141.439 178.054 141.439 177.218C141.439 176.405 141.319 175.805 141.079 175.418C140.839 175.027 140.474 174.831 139.985 174.831ZM145.05 180.765V173.705H146.583L146.71 174.578C147.012 174.222 147.352 173.956 147.73 173.778C148.108 173.596 148.514 173.505 148.95 173.505C149.581 173.505 150.063 173.687 150.397 174.051C150.734 174.416 150.903 174.931 150.903 175.598V180.765H149.143V176.285C149.143 175.911 149.119 175.622 149.07 175.418C149.025 175.209 148.941 175.058 148.817 174.965C148.697 174.867 148.519 174.818 148.283 174.818C147.768 174.818 147.277 175.131 146.81 175.758V180.765H145.05ZM157.428 170.698C158.263 170.698 159.012 170.838 159.675 171.118L159.168 172.305C158.71 172.118 158.206 172.025 157.655 172.025C157.21 172.025 156.886 172.109 156.681 172.278C156.481 172.442 156.381 172.707 156.381 173.071V174.185H158.715L158.521 175.445H156.381V180.765H154.628V175.445H153.075V174.185H154.628V173.031C154.628 172.578 154.739 172.176 154.961 171.825C155.188 171.469 155.512 171.194 155.935 170.998C156.357 170.798 156.855 170.698 157.428 170.698ZM163.966 170.531C164.179 170.531 164.368 170.578 164.533 170.671C164.697 170.76 164.826 170.885 164.919 171.045C165.013 171.205 165.059 171.382 165.059 171.578C165.059 171.778 165.013 171.958 164.919 172.118C164.826 172.278 164.697 172.405 164.533 172.498C164.368 172.587 164.179 172.631 163.966 172.631C163.753 172.631 163.562 172.587 163.393 172.498C163.228 172.405 163.099 172.278 163.006 172.118C162.913 171.958 162.866 171.778 162.866 171.578C162.866 171.382 162.913 171.205 163.006 171.045C163.099 170.885 163.228 170.76 163.393 170.671C163.562 170.578 163.753 170.531 163.966 170.531ZM161.346 174.185H165.106V179.518H166.966V180.765H161.279V179.518H163.346V175.445H161.346V174.185ZM175.571 174.085C175.313 174.178 175.02 174.245 174.691 174.285C174.362 174.32 173.973 174.338 173.524 174.338C173.968 174.529 174.3 174.771 174.517 175.065C174.735 175.354 174.844 175.711 174.844 176.138C174.844 176.596 174.726 177.007 174.491 177.371C174.26 177.731 173.926 178.014 173.491 178.218C173.06 178.418 172.553 178.518 171.971 178.518C171.637 178.518 171.337 178.485 171.071 178.418C170.986 178.467 170.917 178.538 170.864 178.631C170.815 178.725 170.791 178.82 170.791 178.918C170.791 179.069 170.848 179.189 170.964 179.278C171.084 179.362 171.304 179.405 171.624 179.405H172.824C173.335 179.405 173.788 179.491 174.184 179.665C174.584 179.838 174.893 180.078 175.111 180.385C175.333 180.687 175.444 181.027 175.444 181.405C175.444 181.88 175.304 182.287 175.024 182.625C174.748 182.967 174.34 183.227 173.797 183.405C173.255 183.582 172.593 183.671 171.811 183.671C170.98 183.671 170.324 183.587 169.844 183.418C169.368 183.249 169.033 183.002 168.837 182.678C168.642 182.358 168.544 181.951 168.544 181.458H170.111C170.111 181.702 170.157 181.894 170.251 182.031C170.348 182.174 170.522 182.278 170.771 182.345C171.02 182.416 171.377 182.451 171.844 182.451C172.515 182.451 172.991 182.371 173.271 182.211C173.551 182.056 173.691 181.827 173.691 181.525C173.691 181.271 173.582 181.074 173.364 180.931C173.151 180.789 172.851 180.718 172.464 180.718H171.297C170.84 180.718 170.457 180.656 170.151 180.531C169.848 180.407 169.624 180.24 169.477 180.031C169.331 179.822 169.257 179.591 169.257 179.338C169.257 179.085 169.324 178.845 169.457 178.618C169.595 178.391 169.791 178.198 170.044 178.038C169.613 177.811 169.3 177.538 169.104 177.218C168.908 176.894 168.811 176.5 168.811 176.038C168.811 175.536 168.94 175.094 169.197 174.711C169.455 174.329 169.813 174.034 170.271 173.825C170.733 173.616 171.26 173.511 171.851 173.511C172.366 173.516 172.815 173.485 173.197 173.418C173.584 173.351 173.915 173.262 174.191 173.151C174.471 173.04 174.784 172.894 175.131 172.711L175.571 174.085ZM171.884 174.685C171.475 174.685 171.157 174.805 170.931 175.045C170.708 175.285 170.597 175.611 170.597 176.025C170.597 176.447 170.711 176.78 170.937 177.025C171.164 177.265 171.482 177.385 171.891 177.385C172.291 177.385 172.597 177.267 172.811 177.031C173.024 176.791 173.131 176.449 173.131 176.005C173.131 175.125 172.715 174.685 171.884 174.685Z" fill="black"/>
<path d="M124.283 15.5342H221.895V97.8904M187.763 177.487H221.895V136.242M221.895 136.242H170.461M221.895 136.242V97.8904M221.895 97.8904H239.223" stroke="black"/>
<path d="M253.903 91.58C254.943 91.58 255.765 91.8156 256.37 92.2867C256.974 92.7578 257.399 93.4 257.643 94.2133C257.888 95.0222 258.01 95.9889 258.01 97.1133C258.01 98.3044 257.952 99.2689 257.837 100.007C257.721 100.74 257.514 101.296 257.217 101.673C256.919 102.051 256.499 102.24 255.957 102.24C255.623 102.24 255.341 102.149 255.11 101.967C254.883 101.789 254.708 101.558 254.583 101.273C254.463 100.993 254.392 100.696 254.37 100.38H254.317C254.161 100.749 253.928 101.051 253.617 101.287C253.31 101.522 252.925 101.64 252.463 101.64C251.734 101.64 251.201 101.367 250.863 100.82C250.53 100.269 250.363 99.5267 250.363 98.5933C250.363 97.46 250.594 96.5889 251.057 95.98C251.523 95.3667 252.21 95.06 253.117 95.06C253.85 95.06 254.554 95.2444 255.23 95.6133V99.5933C255.23 100.14 255.285 100.522 255.397 100.74C255.512 100.958 255.683 101.067 255.91 101.067C256.11 101.067 256.257 100.929 256.35 100.653C256.443 100.378 256.501 99.9867 256.523 99.48C256.545 98.9733 256.557 98.2089 256.557 97.1867C256.557 96.2089 256.481 95.4022 256.33 94.7667C256.183 94.1267 255.912 93.6333 255.517 93.2867C255.121 92.9356 254.561 92.76 253.837 92.76C253.339 92.76 252.848 92.8533 252.363 93.04C251.883 93.2267 251.392 93.5422 250.89 93.9867L250.123 93.0867C250.719 92.5667 251.325 92.1867 251.943 91.9467C252.561 91.7022 253.214 91.58 253.903 91.58ZM253.11 96.2067C252.817 96.2067 252.588 96.2867 252.423 96.4467C252.259 96.6022 252.141 96.8511 252.07 97.1933C252.003 97.5356 251.97 98.0022 251.97 98.5933C251.97 99.2467 252.028 99.7267 252.143 100.033C252.259 100.336 252.463 100.487 252.757 100.487C252.979 100.487 253.157 100.433 253.29 100.327C253.423 100.22 253.519 100.098 253.577 99.96C253.639 99.8178 253.692 99.6533 253.737 99.4667V96.3533C253.634 96.3 253.534 96.2622 253.437 96.24C253.343 96.2178 253.234 96.2067 253.11 96.2067ZM262.808 93.74C264.523 93.74 265.381 94.9778 265.381 97.4533C265.381 98.1822 265.275 98.8289 265.061 99.3933C264.852 99.9578 264.543 100.4 264.135 100.72C263.73 101.04 263.241 101.2 262.668 101.2C261.952 101.2 261.37 100.944 260.921 100.433V103.72L259.161 103.907V93.94H260.708L260.801 94.8C261.072 94.4489 261.381 94.1844 261.728 94.0067C262.075 93.8289 262.435 93.74 262.808 93.74ZM262.295 95.06C261.77 95.06 261.312 95.3689 260.921 95.9867V99.1467C261.246 99.6267 261.659 99.8667 262.161 99.8667C262.619 99.8667 262.963 99.6756 263.195 99.2933C263.43 98.9067 263.548 98.3 263.548 97.4733C263.548 96.6067 263.443 95.9889 263.235 95.62C263.03 95.2467 262.717 95.06 262.295 95.06ZM270.519 98.9467C270.519 99.5111 270.853 99.7933 271.519 99.7933C271.857 99.7933 272.21 99.72 272.579 99.5733L273.013 100.773C272.461 101.058 271.824 101.2 271.099 101.2C270.339 101.2 269.759 100.984 269.359 100.553C268.959 100.122 268.759 99.5244 268.759 98.76V92.3667H266.646V91.12H270.519V98.9467ZM280.791 99.14C280.791 99.4022 280.828 99.5978 280.904 99.7267C280.984 99.8511 281.115 99.9444 281.297 100.007L280.917 101.187C280.526 101.147 280.2 101.051 279.937 100.9C279.68 100.744 279.482 100.522 279.344 100.233C279.086 100.549 278.755 100.789 278.351 100.953C277.946 101.118 277.515 101.2 277.057 101.2C276.586 101.2 276.173 101.109 275.817 100.927C275.462 100.74 275.188 100.48 274.997 100.147C274.806 99.8133 274.711 99.4289 274.711 98.9933C274.711 98.4956 274.842 98.0711 275.104 97.72C275.366 97.3689 275.751 97.1022 276.257 96.92C276.764 96.7378 277.377 96.6467 278.097 96.6467H279.084V96.2667C279.084 95.8578 278.957 95.5578 278.704 95.3667C278.451 95.1711 278.077 95.0733 277.584 95.0733C277.344 95.0733 277.053 95.1067 276.711 95.1733C276.368 95.2356 276.026 95.3244 275.684 95.44L275.264 94.2333C275.695 94.0733 276.137 93.9511 276.591 93.8667C277.048 93.7822 277.473 93.74 277.864 93.74C278.837 93.74 279.568 93.9489 280.057 94.3667C280.546 94.78 280.791 95.3756 280.791 96.1533V99.14ZM277.631 99.9267C277.906 99.9267 278.177 99.8511 278.444 99.7C278.715 99.5444 278.928 99.3333 279.084 99.0667V97.6933H278.391C277.751 97.6933 277.282 97.7956 276.984 98C276.686 98.2 276.537 98.4978 276.537 98.8933C276.537 99.2267 276.631 99.4822 276.817 99.66C277.004 99.8378 277.275 99.9267 277.631 99.9267ZM289.249 100.607C288.973 100.789 288.646 100.933 288.269 101.04C287.895 101.147 287.5 101.2 287.082 101.2C286.518 101.2 286.04 101.1 285.649 100.9C285.262 100.7 284.971 100.418 284.775 100.053C284.58 99.6844 284.482 99.2489 284.482 98.7467V95.1867H282.949V93.94H284.482V92.3867L286.242 92.1733V93.94H288.575L288.395 95.1867H286.242V98.74C286.242 99.1089 286.331 99.3778 286.509 99.5467C286.686 99.7111 286.973 99.7933 287.369 99.7933C287.822 99.7933 288.246 99.6867 288.642 99.4733L289.249 100.607ZM295.533 90.9333C296.369 90.9333 297.118 91.0733 297.78 91.3533L297.273 92.54C296.816 92.3533 296.311 92.26 295.76 92.26C295.316 92.26 294.991 92.3444 294.787 92.5133C294.587 92.6778 294.487 92.9422 294.487 93.3067V94.42H296.82L296.627 95.68H294.487V101H292.733V95.68H291.18V94.42H292.733V93.2667C292.733 92.8133 292.845 92.4111 293.067 92.06C293.293 91.7044 293.618 91.4289 294.04 91.2333C294.462 91.0333 294.96 90.9333 295.533 90.9333ZM302.085 93.74C302.778 93.74 303.371 93.8933 303.865 94.2C304.358 94.5022 304.731 94.9333 304.985 95.4933C305.243 96.0489 305.371 96.7022 305.371 97.4533C305.371 98.2178 305.243 98.8822 304.985 99.4467C304.727 100.007 304.349 100.44 303.851 100.747C303.358 101.049 302.767 101.2 302.078 101.2C301.385 101.2 300.791 101.051 300.298 100.753C299.805 100.456 299.429 100.027 299.171 99.4667C298.914 98.9067 298.785 98.24 298.785 97.4667C298.785 96.7289 298.914 96.08 299.171 95.52C299.434 94.9556 299.811 94.5178 300.305 94.2067C300.803 93.8956 301.396 93.74 302.085 93.74ZM302.085 95.0667C301.587 95.0667 301.218 95.2622 300.978 95.6533C300.738 96.04 300.618 96.6444 300.618 97.4667C300.618 98.2978 300.738 98.9067 300.978 99.2933C301.218 99.68 301.585 99.8733 302.078 99.8733C302.571 99.8733 302.938 99.68 303.178 99.2933C303.418 98.9022 303.538 98.2889 303.538 97.4533C303.538 96.64 303.418 96.04 303.178 95.6533C302.938 95.2622 302.574 95.0667 302.085 95.0667ZM312.323 93.7467C312.536 93.7467 312.73 93.7644 312.903 93.8C313.081 93.8311 313.256 93.8778 313.43 93.94L313.116 96.6933H311.943V95.3133C311.494 95.3489 311.101 95.5511 310.763 95.92C310.43 96.2889 310.165 96.7889 309.97 97.42V99.78H311.376V101H307.216V99.78H308.21V95.1533H307.216V93.94H309.55L309.876 95.56C310.138 94.9511 310.465 94.4978 310.856 94.2C311.252 93.8978 311.741 93.7467 312.323 93.7467ZM320.168 93.74C320.639 93.74 320.996 93.8956 321.241 94.2067C321.485 94.5178 321.608 95.0378 321.608 95.7667V101H320.074V95.9867C320.074 95.76 320.063 95.5867 320.041 95.4667C320.023 95.3422 319.983 95.2511 319.921 95.1933C319.863 95.1356 319.774 95.1067 319.654 95.1067C319.33 95.1067 319.028 95.3044 318.748 95.7V101H317.421V95.9867C317.421 95.76 317.41 95.5867 317.388 95.4667C317.37 95.3422 317.33 95.2511 317.268 95.1933C317.21 95.1356 317.121 95.1067 317.001 95.1067C316.841 95.1067 316.688 95.1533 316.541 95.2467C316.394 95.3356 316.245 95.4867 316.094 95.7V101H314.541V93.94H315.854L315.968 94.6733C316.194 94.3622 316.421 94.1289 316.648 93.9733C316.879 93.8178 317.15 93.74 317.461 93.74C317.745 93.74 317.988 93.8111 318.188 93.9533C318.388 94.0911 318.53 94.3089 318.614 94.6067C318.836 94.3311 319.072 94.1178 319.321 93.9667C319.574 93.8156 319.856 93.74 320.168 93.74ZM328.886 98.06H323.259V96.66H328.886V98.06ZM337.237 100.607C336.961 100.789 336.635 100.933 336.257 101.04C335.884 101.147 335.488 101.2 335.07 101.2C334.506 101.2 334.028 101.1 333.637 100.9C333.25 100.7 332.959 100.418 332.764 100.053C332.568 99.6844 332.47 99.2489 332.47 98.7467V95.1867H330.937V93.94H332.47V92.3867L334.23 92.1733V93.94H336.564L336.384 95.1867H334.23V98.74C334.23 99.1089 334.319 99.3778 334.497 99.5467C334.675 99.7111 334.961 99.7933 335.357 99.7933C335.81 99.7933 336.235 99.6867 336.63 99.4733L337.237 100.607ZM340.642 98.0067C340.691 98.6422 340.877 99.1133 341.202 99.42C341.531 99.7267 341.951 99.88 342.462 99.88C342.786 99.88 343.097 99.8289 343.395 99.7267C343.693 99.6244 343.993 99.4733 344.295 99.2733L345.028 100.28C344.686 100.569 344.286 100.796 343.828 100.96C343.371 101.12 342.877 101.2 342.348 101.2C341.597 101.2 340.957 101.044 340.428 100.733C339.904 100.422 339.506 99.9867 339.235 99.4267C338.968 98.8667 338.835 98.2178 338.835 97.48C338.835 96.7733 338.966 96.1378 339.228 95.5733C339.495 95.0044 339.877 94.5578 340.375 94.2333C340.877 93.9044 341.468 93.74 342.148 93.74C342.788 93.74 343.346 93.8822 343.822 94.1667C344.297 94.4511 344.664 94.8622 344.922 95.4C345.179 95.9333 345.308 96.5689 345.308 97.3067C345.308 97.56 345.297 97.7933 345.275 98.0067H340.642ZM342.155 94.98C341.715 94.98 341.359 95.1378 341.088 95.4533C340.822 95.7644 340.666 96.24 340.622 96.88H343.595C343.586 96.2711 343.459 95.8022 343.215 95.4733C342.975 95.1444 342.622 94.98 342.155 94.98ZM352.773 99.14C352.773 99.4022 352.811 99.5978 352.886 99.7267C352.966 99.8511 353.098 99.9444 353.28 100.007L352.9 101.187C352.509 101.147 352.182 101.051 351.92 100.9C351.662 100.744 351.464 100.522 351.326 100.233C351.069 100.549 350.738 100.789 350.333 100.953C349.929 101.118 349.498 101.2 349.04 101.2C348.569 101.2 348.155 101.109 347.8 100.927C347.444 100.74 347.171 100.48 346.98 100.147C346.789 99.8133 346.693 99.4289 346.693 98.9933C346.693 98.4956 346.824 98.0711 347.086 97.72C347.349 97.3689 347.733 97.1022 348.24 96.92C348.746 96.7378 349.36 96.6467 350.08 96.6467H351.066V96.2667C351.066 95.8578 350.94 95.5578 350.686 95.3667C350.433 95.1711 350.06 95.0733 349.566 95.0733C349.326 95.0733 349.035 95.1067 348.693 95.1733C348.351 95.2356 348.009 95.3244 347.666 95.44L347.246 94.2333C347.678 94.0733 348.12 93.9511 348.573 93.8667C349.031 93.7822 349.455 93.74 349.846 93.74C350.82 93.74 351.551 93.9489 352.04 94.3667C352.529 94.78 352.773 95.3756 352.773 96.1533V99.14ZM349.613 99.9267C349.889 99.9267 350.16 99.8511 350.426 99.7C350.698 99.5444 350.911 99.3333 351.066 99.0667V97.6933H350.373C349.733 97.6933 349.264 97.7956 348.966 98C348.669 98.2 348.52 98.4978 348.52 98.8933C348.52 99.2267 348.613 99.4822 348.8 99.66C348.986 99.8378 349.258 99.9267 349.613 99.9267ZM360.158 93.74C360.629 93.74 360.987 93.8956 361.231 94.2067C361.476 94.5178 361.598 95.0378 361.598 95.7667V101H360.064V95.9867C360.064 95.76 360.053 95.5867 360.031 95.4667C360.013 95.3422 359.973 95.2511 359.911 95.1933C359.853 95.1356 359.764 95.1067 359.644 95.1067C359.32 95.1067 359.018 95.3044 358.738 95.7V101H357.411V95.9867C357.411 95.76 357.4 95.5867 357.378 95.4667C357.36 95.3422 357.32 95.2511 357.258 95.1933C357.2 95.1356 357.111 95.1067 356.991 95.1067C356.831 95.1067 356.678 95.1533 356.531 95.2467C356.384 95.3356 356.236 95.4867 356.084 95.7V101H354.531V93.94H355.844L355.958 94.6733C356.184 94.3622 356.411 94.1289 356.638 93.9733C356.869 93.8178 357.14 93.74 357.451 93.74C357.736 93.74 357.978 93.8111 358.178 93.9533C358.378 94.0911 358.52 94.3089 358.604 94.6067C358.827 94.3311 359.062 94.1178 359.311 93.9667C359.564 93.8156 359.847 93.74 360.158 93.74Z" fill="black"/>
</svg>
