<svg width="193" height="165" viewBox="0 0 193 165" fill="none" xmlns="http://www.w3.org/2000/svg">
<circle cx="49.4319" cy="2.60764" r="0.607637" fill="#D9D9D9"/>
<circle cx="81.0285" cy="2.60764" r="0.607637" fill="#D9D9D9"/>
<circle cx="112.625" cy="2.60764" r="0.607637" fill="#D9D9D9"/>
<circle cx="144.223" cy="2.60764" r="0.607637" fill="#D9D9D9"/>
<circle cx="49.4319" cy="2.60764" r="0.607637" fill="#D9D9D9"/>
<circle cx="81.0285" cy="2.60764" r="0.607637" fill="#D9D9D9"/>
<circle cx="112.625" cy="2.60764" r="0.607637" fill="#D9D9D9"/>
<circle cx="144.223" cy="2.60764" r="0.607637" fill="#D9D9D9"/>
<circle cx="49.4319" cy="21.2424" r="0.607637" fill="#D9D9D9"/>
<circle cx="81.0285" cy="21.2424" r="0.607637" fill="#D9D9D9"/>
<circle cx="112.625" cy="21.2424" r="0.607637" fill="#D9D9D9"/>
<circle cx="144.223" cy="21.2424" r="0.607637" fill="#D9D9D9"/>
<circle cx="49.4319" cy="21.2424" r="0.607637" fill="#D9D9D9"/>
<circle cx="81.0285" cy="21.2424" r="0.607637" fill="#D9D9D9"/>
<circle cx="112.625" cy="21.2424" r="0.607637" fill="#D9D9D9"/>
<circle cx="144.223" cy="21.2424" r="0.607637" fill="#D9D9D9"/>
<circle cx="65.2317" cy="11.925" r="0.607637" fill="#D9D9D9"/>
<circle cx="96.8283" cy="11.925" r="0.607637" fill="#D9D9D9"/>
<circle cx="128.425" cy="11.925" r="0.607637" fill="#D9D9D9"/>
<circle cx="65.2317" cy="11.925" r="0.607637" fill="#D9D9D9"/>
<circle cx="96.8283" cy="11.925" r="0.607637" fill="#D9D9D9"/>
<circle cx="128.425" cy="11.925" r="0.607637" fill="#D9D9D9"/>
<circle cx="49.4319" cy="2.60764" r="0.607637" fill="#D9D9D9"/>
<circle cx="81.0285" cy="2.60764" r="0.607637" fill="#D9D9D9"/>
<circle cx="112.625" cy="2.60764" r="0.607637" fill="#D9D9D9"/>
<circle cx="144.223" cy="2.60764" r="0.607637" fill="#D9D9D9"/>
<circle cx="49.4319" cy="2.60764" r="0.607637" fill="#D9D9D9"/>
<circle cx="81.0285" cy="2.60764" r="0.607637" fill="#D9D9D9"/>
<circle cx="112.625" cy="2.60764" r="0.607637" fill="#D9D9D9"/>
<circle cx="144.223" cy="2.60764" r="0.607637" fill="#D9D9D9"/>
<circle cx="49.4319" cy="21.2424" r="0.607637" fill="#D9D9D9"/>
<circle cx="81.0285" cy="21.2424" r="0.607637" fill="#D9D9D9"/>
<circle cx="112.625" cy="21.2424" r="0.607637" fill="#D9D9D9"/>
<circle cx="144.223" cy="21.2424" r="0.607637" fill="#D9D9D9"/>
<circle cx="49.4319" cy="21.2424" r="0.607637" fill="#D9D9D9"/>
<circle cx="81.0285" cy="21.2424" r="0.607637" fill="#D9D9D9"/>
<circle cx="112.625" cy="21.2424" r="0.607637" fill="#D9D9D9"/>
<circle cx="144.223" cy="21.2424" r="0.607637" fill="#D9D9D9"/>
<circle cx="65.2317" cy="11.925" r="0.607637" fill="#D9D9D9"/>
<circle cx="96.8283" cy="11.925" r="0.607637" fill="#D9D9D9"/>
<circle cx="128.425" cy="11.925" r="0.607637" fill="#D9D9D9"/>
<circle cx="65.2317" cy="11.925" r="0.607637" fill="#D9D9D9"/>
<circle cx="96.8283" cy="11.925" r="0.607637" fill="#D9D9D9"/>
<circle cx="128.425" cy="11.925" r="0.607637" fill="#D9D9D9"/>
<circle cx="49.4319" cy="39.8762" r="0.607637" fill="#D9D9D9"/>
<circle cx="81.0285" cy="39.8762" r="0.607637" fill="#D9D9D9"/>
<circle cx="112.625" cy="39.8762" r="0.607637" fill="#D9D9D9"/>
<circle cx="144.223" cy="39.8762" r="0.607637" fill="#D9D9D9"/>
<circle cx="49.4319" cy="39.8762" r="0.607637" fill="#D9D9D9"/>
<circle cx="81.0285" cy="39.8762" r="0.607637" fill="#D9D9D9"/>
<circle cx="112.625" cy="39.8762" r="0.607637" fill="#D9D9D9"/>
<circle cx="144.223" cy="39.8762" r="0.607637" fill="#D9D9D9"/>
<circle cx="65.2317" cy="30.5588" r="0.607637" fill="#D9D9D9"/>
<circle cx="96.8283" cy="30.5588" r="0.607637" fill="#D9D9D9"/>
<circle cx="128.425" cy="30.5588" r="0.607637" fill="#D9D9D9"/>
<circle cx="65.2317" cy="30.5588" r="0.607637" fill="#D9D9D9"/>
<circle cx="96.8283" cy="30.5588" r="0.607637" fill="#D9D9D9"/>
<circle cx="128.425" cy="30.5588" r="0.607637" fill="#D9D9D9"/>
<circle cx="49.4319" cy="39.8762" r="0.607637" fill="#D9D9D9"/>
<circle cx="81.0285" cy="39.8762" r="0.607637" fill="#D9D9D9"/>
<circle cx="112.625" cy="39.8762" r="0.607637" fill="#D9D9D9"/>
<circle cx="144.223" cy="39.8762" r="0.607637" fill="#D9D9D9"/>
<circle cx="49.4319" cy="39.8762" r="0.607637" fill="#D9D9D9"/>
<circle cx="81.0285" cy="39.8762" r="0.607637" fill="#D9D9D9"/>
<circle cx="112.625" cy="39.8762" r="0.607637" fill="#D9D9D9"/>
<circle cx="144.223" cy="39.8762" r="0.607637" fill="#D9D9D9"/>
<circle cx="65.2317" cy="30.5588" r="0.607637" fill="#D9D9D9"/>
<circle cx="96.8283" cy="30.5588" r="0.607637" fill="#D9D9D9"/>
<circle cx="128.425" cy="30.5588" r="0.607637" fill="#D9D9D9"/>
<circle cx="65.2317" cy="30.5588" r="0.607637" fill="#D9D9D9"/>
<circle cx="96.8283" cy="30.5588" r="0.607637" fill="#D9D9D9"/>
<circle cx="128.425" cy="30.5588" r="0.607637" fill="#D9D9D9"/>
<circle cx="49.4319" cy="58.51" r="0.607637" fill="#D9D9D9"/>
<circle cx="81.0285" cy="58.51" r="0.607637" fill="#D9D9D9"/>
<circle cx="112.625" cy="58.51" r="0.607637" fill="#D9D9D9"/>
<circle cx="144.223" cy="58.51" r="0.607637" fill="#D9D9D9"/>
<circle cx="49.4319" cy="58.51" r="0.607637" fill="#D9D9D9"/>
<circle cx="81.0285" cy="58.51" r="0.607637" fill="#D9D9D9"/>
<circle cx="112.625" cy="58.51" r="0.607637" fill="#D9D9D9"/>
<circle cx="144.223" cy="58.51" r="0.607637" fill="#D9D9D9"/>
<circle cx="65.2317" cy="49.1926" r="0.607637" fill="#D9D9D9"/>
<circle cx="96.8283" cy="49.1926" r="0.607637" fill="#D9D9D9"/>
<circle cx="128.425" cy="49.1926" r="0.607637" fill="#D9D9D9"/>
<circle cx="65.2317" cy="49.1926" r="0.607637" fill="#D9D9D9"/>
<circle cx="96.8283" cy="49.1926" r="0.607637" fill="#D9D9D9"/>
<circle cx="128.425" cy="49.1926" r="0.607637" fill="#D9D9D9"/>
<circle cx="49.4319" cy="58.51" r="0.607637" fill="#D9D9D9"/>
<circle cx="81.0285" cy="58.51" r="0.607637" fill="#D9D9D9"/>
<circle cx="112.625" cy="58.51" r="0.607637" fill="#D9D9D9"/>
<circle cx="144.223" cy="58.51" r="0.607637" fill="#D9D9D9"/>
<circle cx="49.4319" cy="58.51" r="0.607637" fill="#D9D9D9"/>
<circle cx="81.0285" cy="58.51" r="0.607637" fill="#D9D9D9"/>
<circle cx="112.625" cy="58.51" r="0.607637" fill="#D9D9D9"/>
<circle cx="144.223" cy="58.51" r="0.607637" fill="#D9D9D9"/>
<circle cx="65.2317" cy="49.1926" r="0.607637" fill="#D9D9D9"/>
<circle cx="96.8283" cy="49.1926" r="0.607637" fill="#D9D9D9"/>
<circle cx="128.425" cy="49.1926" r="0.607637" fill="#D9D9D9"/>
<circle cx="65.2317" cy="49.1926" r="0.607637" fill="#D9D9D9"/>
<circle cx="96.8283" cy="49.1926" r="0.607637" fill="#D9D9D9"/>
<circle cx="128.425" cy="49.1926" r="0.607637" fill="#D9D9D9"/>
<circle cx="49.4319" cy="77.1438" r="0.607637" fill="#D9D9D9"/>
<circle cx="81.0285" cy="77.1438" r="0.607637" fill="#D9D9D9"/>
<circle cx="112.625" cy="77.1438" r="0.607637" fill="#D9D9D9"/>
<circle cx="144.223" cy="77.1438" r="0.607637" fill="#D9D9D9"/>
<circle cx="49.4319" cy="77.1438" r="0.607637" fill="#D9D9D9"/>
<circle cx="81.0285" cy="77.1438" r="0.607637" fill="#D9D9D9"/>
<circle cx="112.625" cy="77.1438" r="0.607637" fill="#D9D9D9"/>
<circle cx="144.223" cy="77.1438" r="0.607637" fill="#D9D9D9"/>
<circle cx="65.2317" cy="67.8274" r="0.607637" fill="#D9D9D9"/>
<circle cx="96.8283" cy="67.8274" r="0.607637" fill="#D9D9D9"/>
<circle cx="128.425" cy="67.8274" r="0.607637" fill="#D9D9D9"/>
<circle cx="65.2317" cy="67.8274" r="0.607637" fill="#D9D9D9"/>
<circle cx="96.8283" cy="67.8274" r="0.607637" fill="#D9D9D9"/>
<circle cx="128.425" cy="67.8274" r="0.607637" fill="#D9D9D9"/>
<circle cx="49.4319" cy="77.1438" r="0.607637" fill="#D9D9D9"/>
<circle cx="81.0285" cy="77.1438" r="0.607637" fill="#D9D9D9"/>
<circle cx="112.625" cy="77.1438" r="0.607637" fill="#D9D9D9"/>
<circle cx="144.223" cy="77.1438" r="0.607637" fill="#D9D9D9"/>
<circle cx="49.4319" cy="77.1438" r="0.607637" fill="#D9D9D9"/>
<circle cx="81.0285" cy="77.1438" r="0.607637" fill="#D9D9D9"/>
<circle cx="112.625" cy="77.1438" r="0.607637" fill="#D9D9D9"/>
<circle cx="144.223" cy="77.1438" r="0.607637" fill="#D9D9D9"/>
<circle cx="65.2317" cy="67.8274" r="0.607637" fill="#D9D9D9"/>
<circle cx="96.8283" cy="67.8274" r="0.607637" fill="#D9D9D9"/>
<circle cx="128.425" cy="67.8274" r="0.607637" fill="#D9D9D9"/>
<circle cx="65.2317" cy="67.8274" r="0.607637" fill="#D9D9D9"/>
<circle cx="96.8283" cy="67.8274" r="0.607637" fill="#D9D9D9"/>
<circle cx="128.425" cy="67.8274" r="0.607637" fill="#D9D9D9"/>
<circle cx="49.4319" cy="95.7785" r="0.607637" fill="#D9D9D9"/>
<circle cx="81.0285" cy="95.7785" r="0.607637" fill="#D9D9D9"/>
<circle cx="112.625" cy="95.7785" r="0.607637" fill="#D9D9D9"/>
<circle cx="144.223" cy="95.7785" r="0.607637" fill="#D9D9D9"/>
<circle cx="49.4319" cy="95.7785" r="0.607637" fill="#D9D9D9"/>
<circle cx="81.0285" cy="95.7785" r="0.607637" fill="#D9D9D9"/>
<circle cx="112.625" cy="95.7785" r="0.607637" fill="#D9D9D9"/>
<circle cx="144.223" cy="95.7785" r="0.607637" fill="#D9D9D9"/>
<circle cx="65.2317" cy="86.4612" r="0.607637" fill="#D9D9D9"/>
<circle cx="96.8283" cy="86.4612" r="0.607637" fill="#D9D9D9"/>
<circle cx="128.425" cy="86.4612" r="0.607637" fill="#D9D9D9"/>
<circle cx="65.2317" cy="86.4612" r="0.607637" fill="#D9D9D9"/>
<circle cx="96.8283" cy="86.4612" r="0.607637" fill="#D9D9D9"/>
<circle cx="128.425" cy="86.4612" r="0.607637" fill="#D9D9D9"/>
<circle cx="49.4319" cy="95.7785" r="0.607637" fill="#D9D9D9"/>
<circle cx="81.0285" cy="95.7785" r="0.607637" fill="#D9D9D9"/>
<circle cx="112.625" cy="95.7785" r="0.607637" fill="#D9D9D9"/>
<circle cx="144.223" cy="95.7785" r="0.607637" fill="#D9D9D9"/>
<circle cx="49.4319" cy="95.7785" r="0.607637" fill="#D9D9D9"/>
<circle cx="81.0285" cy="95.7785" r="0.607637" fill="#D9D9D9"/>
<circle cx="112.625" cy="95.7785" r="0.607637" fill="#D9D9D9"/>
<circle cx="144.223" cy="95.7785" r="0.607637" fill="#D9D9D9"/>
<circle cx="65.2317" cy="86.4612" r="0.607637" fill="#D9D9D9"/>
<circle cx="96.8283" cy="86.4612" r="0.607637" fill="#D9D9D9"/>
<circle cx="128.425" cy="86.4612" r="0.607637" fill="#D9D9D9"/>
<circle cx="65.2317" cy="86.4612" r="0.607637" fill="#D9D9D9"/>
<circle cx="96.8283" cy="86.4612" r="0.607637" fill="#D9D9D9"/>
<circle cx="128.425" cy="86.4612" r="0.607637" fill="#D9D9D9"/>
<circle cx="49.4319" cy="114.413" r="0.607637" fill="#D9D9D9"/>
<circle cx="81.0285" cy="114.413" r="0.607637" fill="#D9D9D9"/>
<circle cx="112.625" cy="114.413" r="0.607637" fill="#D9D9D9"/>
<circle cx="144.223" cy="114.413" r="0.607637" fill="#D9D9D9"/>
<circle cx="49.4319" cy="114.413" r="0.607637" fill="#D9D9D9"/>
<circle cx="81.0285" cy="114.413" r="0.607637" fill="#D9D9D9"/>
<circle cx="112.625" cy="114.413" r="0.607637" fill="#D9D9D9"/>
<circle cx="144.223" cy="114.413" r="0.607637" fill="#D9D9D9"/>
<circle cx="65.2317" cy="105.095" r="0.607637" fill="#D9D9D9"/>
<circle cx="96.8283" cy="105.095" r="0.607637" fill="#D9D9D9"/>
<circle cx="128.425" cy="105.095" r="0.607637" fill="#D9D9D9"/>
<circle cx="65.2317" cy="105.095" r="0.607637" fill="#D9D9D9"/>
<circle cx="96.8283" cy="105.095" r="0.607637" fill="#D9D9D9"/>
<circle cx="128.425" cy="105.095" r="0.607637" fill="#D9D9D9"/>
<circle cx="49.4319" cy="114.413" r="0.607637" fill="#D9D9D9"/>
<circle cx="81.0285" cy="114.413" r="0.607637" fill="#D9D9D9"/>
<circle cx="112.625" cy="114.413" r="0.607637" fill="#D9D9D9"/>
<circle cx="144.223" cy="114.413" r="0.607637" fill="#D9D9D9"/>
<circle cx="49.4319" cy="114.413" r="0.607637" fill="#D9D9D9"/>
<circle cx="81.0285" cy="114.413" r="0.607637" fill="#D9D9D9"/>
<circle cx="112.625" cy="114.413" r="0.607637" fill="#D9D9D9"/>
<circle cx="144.223" cy="114.413" r="0.607637" fill="#D9D9D9"/>
<circle cx="65.2317" cy="105.095" r="0.607637" fill="#D9D9D9"/>
<circle cx="96.8283" cy="105.095" r="0.607637" fill="#D9D9D9"/>
<circle cx="128.425" cy="105.095" r="0.607637" fill="#D9D9D9"/>
<circle cx="65.2317" cy="105.095" r="0.607637" fill="#D9D9D9"/>
<circle cx="96.8283" cy="105.095" r="0.607637" fill="#D9D9D9"/>
<circle cx="128.425" cy="105.095" r="0.607637" fill="#D9D9D9"/>
<circle cx="49.4319" cy="133.047" r="0.607637" fill="#D9D9D9"/>
<circle cx="81.0285" cy="133.047" r="0.607637" fill="#D9D9D9"/>
<circle cx="112.625" cy="133.047" r="0.607637" fill="#D9D9D9"/>
<circle cx="144.223" cy="133.047" r="0.607637" fill="#D9D9D9"/>
<circle cx="49.4319" cy="133.047" r="0.607637" fill="#D9D9D9"/>
<circle cx="81.0285" cy="133.047" r="0.607637" fill="#D9D9D9"/>
<circle cx="112.625" cy="133.047" r="0.607637" fill="#D9D9D9"/>
<circle cx="144.223" cy="133.047" r="0.607637" fill="#D9D9D9"/>
<circle cx="65.2317" cy="123.729" r="0.607637" fill="#D9D9D9"/>
<circle cx="96.8283" cy="123.729" r="0.607637" fill="#D9D9D9"/>
<circle cx="128.425" cy="123.729" r="0.607637" fill="#D9D9D9"/>
<circle cx="65.2317" cy="123.729" r="0.607637" fill="#D9D9D9"/>
<circle cx="96.8283" cy="123.729" r="0.607637" fill="#D9D9D9"/>
<circle cx="128.425" cy="123.729" r="0.607637" fill="#D9D9D9"/>
<circle cx="49.4319" cy="133.047" r="0.607637" fill="#D9D9D9"/>
<circle cx="81.0285" cy="133.047" r="0.607637" fill="#D9D9D9"/>
<circle cx="112.625" cy="133.047" r="0.607637" fill="#D9D9D9"/>
<circle cx="144.223" cy="133.047" r="0.607637" fill="#D9D9D9"/>
<circle cx="49.4319" cy="133.047" r="0.607637" fill="#D9D9D9"/>
<circle cx="81.0285" cy="133.047" r="0.607637" fill="#D9D9D9"/>
<circle cx="112.625" cy="133.047" r="0.607637" fill="#D9D9D9"/>
<circle cx="144.223" cy="133.047" r="0.607637" fill="#D9D9D9"/>
<circle cx="65.2317" cy="123.729" r="0.607637" fill="#D9D9D9"/>
<circle cx="96.8283" cy="123.729" r="0.607637" fill="#D9D9D9"/>
<circle cx="128.425" cy="123.729" r="0.607637" fill="#D9D9D9"/>
<circle cx="65.2317" cy="123.729" r="0.607637" fill="#D9D9D9"/>
<circle cx="96.8283" cy="123.729" r="0.607637" fill="#D9D9D9"/>
<circle cx="128.425" cy="123.729" r="0.607637" fill="#D9D9D9"/>
<circle cx="49.4319" cy="151.683" r="0.607637" fill="#D9D9D9"/>
<circle cx="81.0285" cy="151.683" r="0.607637" fill="#D9D9D9"/>
<circle cx="112.625" cy="151.683" r="0.607637" fill="#D9D9D9"/>
<circle cx="144.223" cy="151.683" r="0.607637" fill="#D9D9D9"/>
<circle cx="49.4319" cy="151.683" r="0.607637" fill="#D9D9D9"/>
<circle cx="81.0285" cy="151.683" r="0.607637" fill="#D9D9D9"/>
<circle cx="112.625" cy="151.683" r="0.607637" fill="#D9D9D9"/>
<circle cx="144.223" cy="151.683" r="0.607637" fill="#D9D9D9"/>
<circle cx="65.2317" cy="142.363" r="0.607637" fill="#D9D9D9"/>
<circle cx="96.8283" cy="142.363" r="0.607637" fill="#D9D9D9"/>
<circle cx="128.425" cy="142.363" r="0.607637" fill="#D9D9D9"/>
<circle cx="65.2317" cy="142.363" r="0.607637" fill="#D9D9D9"/>
<circle cx="96.8283" cy="142.363" r="0.607637" fill="#D9D9D9"/>
<circle cx="128.425" cy="142.363" r="0.607637" fill="#D9D9D9"/>
<circle cx="49.4319" cy="151.683" r="0.607637" fill="#D9D9D9"/>
<circle cx="81.0285" cy="151.683" r="0.607637" fill="#D9D9D9"/>
<circle cx="112.625" cy="151.683" r="0.607637" fill="#D9D9D9"/>
<circle cx="144.223" cy="151.683" r="0.607637" fill="#D9D9D9"/>
<circle cx="17.8342" cy="2.60764" r="0.607637" fill="#D9D9D9"/>
<circle cx="17.8342" cy="2.60764" r="0.607637" fill="#D9D9D9"/>
<circle cx="17.8342" cy="21.2424" r="0.607637" fill="#D9D9D9"/>
<circle cx="17.8342" cy="21.2424" r="0.607637" fill="#D9D9D9"/>
<circle cx="17.8342" cy="2.60764" r="0.607637" fill="#D9D9D9"/>
<circle cx="17.8342" cy="2.60764" r="0.607637" fill="#D9D9D9"/>
<circle cx="17.8342" cy="21.2424" r="0.607637" fill="#D9D9D9"/>
<circle cx="17.8342" cy="21.2424" r="0.607637" fill="#D9D9D9"/>
<circle cx="17.8342" cy="39.8762" r="0.607637" fill="#D9D9D9"/>
<circle cx="17.8342" cy="39.8762" r="0.607637" fill="#D9D9D9"/>
<circle cx="17.8342" cy="39.8762" r="0.607637" fill="#D9D9D9"/>
<circle cx="17.8342" cy="39.8762" r="0.607637" fill="#D9D9D9"/>
<circle cx="17.8342" cy="58.51" r="0.607637" fill="#D9D9D9"/>
<circle cx="17.8342" cy="58.51" r="0.607637" fill="#D9D9D9"/>
<circle cx="17.8342" cy="58.51" r="0.607637" fill="#D9D9D9"/>
<circle cx="17.8342" cy="58.51" r="0.607637" fill="#D9D9D9"/>
<circle cx="17.8342" cy="77.1438" r="0.607637" fill="#D9D9D9"/>
<circle cx="17.8342" cy="77.1438" r="0.607637" fill="#D9D9D9"/>
<circle cx="17.8342" cy="77.1438" r="0.607637" fill="#D9D9D9"/>
<circle cx="17.8342" cy="77.1438" r="0.607637" fill="#D9D9D9"/>
<circle cx="17.8342" cy="95.7785" r="0.607637" fill="#D9D9D9"/>
<circle cx="17.8342" cy="95.7785" r="0.607637" fill="#D9D9D9"/>
<circle cx="17.8342" cy="95.7785" r="0.607637" fill="#D9D9D9"/>
<circle cx="17.8342" cy="95.7785" r="0.607637" fill="#D9D9D9"/>
<circle cx="17.8342" cy="114.413" r="0.607637" fill="#D9D9D9"/>
<circle cx="17.8342" cy="114.413" r="0.607637" fill="#D9D9D9"/>
<circle cx="17.8342" cy="114.413" r="0.607637" fill="#D9D9D9"/>
<circle cx="17.8342" cy="114.413" r="0.607637" fill="#D9D9D9"/>
<circle cx="17.8342" cy="133.047" r="0.607637" fill="#D9D9D9"/>
<circle cx="17.8342" cy="133.047" r="0.607637" fill="#D9D9D9"/>
<circle cx="17.8342" cy="133.047" r="0.607637" fill="#D9D9D9"/>
<circle cx="17.8342" cy="133.047" r="0.607637" fill="#D9D9D9"/>
<circle cx="17.8342" cy="151.683" r="0.607637" fill="#D9D9D9"/>
<circle cx="17.8342" cy="151.683" r="0.607637" fill="#D9D9D9"/>
<circle cx="17.8342" cy="151.683" r="0.607637" fill="#D9D9D9"/>
<circle cx="17.8342" cy="151.683" r="0.607637" fill="#D9D9D9"/>
<circle cx="49.4319" cy="151.683" r="0.607637" fill="#D9D9D9"/>
<circle cx="81.0285" cy="151.683" r="0.607637" fill="#D9D9D9"/>
<circle cx="112.625" cy="151.683" r="0.607637" fill="#D9D9D9"/>
<circle cx="144.223" cy="151.683" r="0.607637" fill="#D9D9D9"/>
<circle cx="175.82" cy="2.60764" r="0.607637" fill="#D9D9D9"/>
<circle cx="175.82" cy="2.60764" r="0.607637" fill="#D9D9D9"/>
<circle cx="175.82" cy="21.2424" r="0.607637" fill="#D9D9D9"/>
<circle cx="175.82" cy="21.2424" r="0.607637" fill="#D9D9D9"/>
<circle cx="175.82" cy="2.60764" r="0.607637" fill="#D9D9D9"/>
<circle cx="175.82" cy="2.60764" r="0.607637" fill="#D9D9D9"/>
<circle cx="175.82" cy="21.2424" r="0.607637" fill="#D9D9D9"/>
<circle cx="175.82" cy="21.2424" r="0.607637" fill="#D9D9D9"/>
<circle cx="175.82" cy="39.8762" r="0.607637" fill="#D9D9D9"/>
<circle cx="175.82" cy="39.8762" r="0.607637" fill="#D9D9D9"/>
<circle cx="175.82" cy="39.8762" r="0.607637" fill="#D9D9D9"/>
<circle cx="175.82" cy="39.8762" r="0.607637" fill="#D9D9D9"/>
<circle cx="175.82" cy="58.51" r="0.607637" fill="#D9D9D9"/>
<circle cx="175.82" cy="58.51" r="0.607637" fill="#D9D9D9"/>
<circle cx="175.82" cy="58.51" r="0.607637" fill="#D9D9D9"/>
<circle cx="175.82" cy="58.51" r="0.607637" fill="#D9D9D9"/>
<circle cx="175.82" cy="77.1438" r="0.607637" fill="#D9D9D9"/>
<circle cx="175.82" cy="77.1438" r="0.607637" fill="#D9D9D9"/>
<circle cx="175.82" cy="77.1438" r="0.607637" fill="#D9D9D9"/>
<circle cx="175.82" cy="77.1438" r="0.607637" fill="#D9D9D9"/>
<circle cx="175.82" cy="95.7785" r="0.607637" fill="#D9D9D9"/>
<circle cx="175.82" cy="95.7785" r="0.607637" fill="#D9D9D9"/>
<circle cx="175.82" cy="95.7785" r="0.607637" fill="#D9D9D9"/>
<circle cx="175.82" cy="95.7785" r="0.607637" fill="#D9D9D9"/>
<circle cx="175.82" cy="114.413" r="0.607637" fill="#D9D9D9"/>
<circle cx="175.82" cy="114.413" r="0.607637" fill="#D9D9D9"/>
<circle cx="175.82" cy="114.413" r="0.607637" fill="#D9D9D9"/>
<circle cx="175.82" cy="114.413" r="0.607637" fill="#D9D9D9"/>
<circle cx="175.82" cy="133.047" r="0.607637" fill="#D9D9D9"/>
<circle cx="175.82" cy="133.047" r="0.607637" fill="#D9D9D9"/>
<circle cx="175.82" cy="133.047" r="0.607637" fill="#D9D9D9"/>
<circle cx="175.82" cy="133.047" r="0.607637" fill="#D9D9D9"/>
<circle cx="175.82" cy="151.683" r="0.607637" fill="#D9D9D9"/>
<circle cx="175.82" cy="151.683" r="0.607637" fill="#D9D9D9"/>
<circle cx="175.82" cy="151.683" r="0.607637" fill="#D9D9D9"/>
<circle cx="175.82" cy="151.683" r="0.607637" fill="#D9D9D9"/>
<circle cx="65.2317" cy="142.363" r="0.607637" fill="#D9D9D9"/>
<circle cx="96.8283" cy="142.363" r="0.607637" fill="#D9D9D9"/>
<circle cx="128.425" cy="142.363" r="0.607637" fill="#D9D9D9"/>
<circle cx="65.2317" cy="142.363" r="0.607637" fill="#D9D9D9"/>
<circle cx="96.8283" cy="142.363" r="0.607637" fill="#D9D9D9"/>
<circle cx="128.425" cy="142.363" r="0.607637" fill="#D9D9D9"/>
<circle cx="65.2317" cy="160.608" r="0.607637" fill="#D9D9D9"/>
<circle cx="96.8283" cy="160.608" r="0.607637" fill="#D9D9D9"/>
<circle cx="128.425" cy="160.608" r="0.607637" fill="#D9D9D9"/>
<circle cx="33.634" cy="11.925" r="0.607637" fill="#D9D9D9"/>
<circle cx="33.634" cy="11.925" r="0.607637" fill="#D9D9D9"/>
<circle cx="33.634" cy="11.925" r="0.607637" fill="#D9D9D9"/>
<circle cx="33.634" cy="11.925" r="0.607637" fill="#D9D9D9"/>
<circle cx="33.634" cy="30.5588" r="0.607637" fill="#D9D9D9"/>
<circle cx="33.634" cy="30.5588" r="0.607637" fill="#D9D9D9"/>
<circle cx="33.634" cy="30.5588" r="0.607637" fill="#D9D9D9"/>
<circle cx="33.634" cy="30.5588" r="0.607637" fill="#D9D9D9"/>
<circle cx="33.634" cy="49.1926" r="0.607637" fill="#D9D9D9"/>
<circle cx="33.634" cy="49.1926" r="0.607637" fill="#D9D9D9"/>
<circle cx="33.634" cy="49.1926" r="0.607637" fill="#D9D9D9"/>
<circle cx="33.634" cy="49.1926" r="0.607637" fill="#D9D9D9"/>
<circle cx="33.634" cy="67.8274" r="0.607637" fill="#D9D9D9"/>
<circle cx="33.634" cy="67.8274" r="0.607637" fill="#D9D9D9"/>
<circle cx="33.634" cy="67.8274" r="0.607637" fill="#D9D9D9"/>
<circle cx="33.634" cy="67.8274" r="0.607637" fill="#D9D9D9"/>
<circle cx="33.634" cy="86.4612" r="0.607637" fill="#D9D9D9"/>
<circle cx="33.634" cy="86.4612" r="0.607637" fill="#D9D9D9"/>
<circle cx="33.634" cy="86.4612" r="0.607637" fill="#D9D9D9"/>
<circle cx="33.634" cy="86.4612" r="0.607637" fill="#D9D9D9"/>
<circle cx="33.634" cy="105.095" r="0.607637" fill="#D9D9D9"/>
<circle cx="33.634" cy="105.095" r="0.607637" fill="#D9D9D9"/>
<circle cx="33.634" cy="105.095" r="0.607637" fill="#D9D9D9"/>
<circle cx="33.634" cy="105.095" r="0.607637" fill="#D9D9D9"/>
<circle cx="33.634" cy="123.729" r="0.607637" fill="#D9D9D9"/>
<circle cx="33.634" cy="123.729" r="0.607637" fill="#D9D9D9"/>
<circle cx="33.634" cy="123.729" r="0.607637" fill="#D9D9D9"/>
<circle cx="33.634" cy="123.729" r="0.607637" fill="#D9D9D9"/>
<circle cx="33.634" cy="142.363" r="0.607637" fill="#D9D9D9"/>
<circle cx="33.634" cy="142.363" r="0.607637" fill="#D9D9D9"/>
<circle cx="33.634" cy="142.363" r="0.607637" fill="#D9D9D9"/>
<circle cx="33.634" cy="142.363" r="0.607637" fill="#D9D9D9"/>
<circle cx="33.634" cy="160.608" r="0.607637" fill="#D9D9D9"/>
<circle cx="33.634" cy="160.608" r="0.607637" fill="#D9D9D9"/>
<circle cx="65.2317" cy="160.608" r="0.607637" fill="#D9D9D9"/>
<circle cx="96.8283" cy="160.608" r="0.607637" fill="#D9D9D9"/>
<circle cx="128.425" cy="160.608" r="0.607637" fill="#D9D9D9"/>
<circle cx="160.023" cy="11.925" r="0.607637" fill="#D9D9D9"/>
<circle cx="160.023" cy="11.925" r="0.607637" fill="#D9D9D9"/>
<circle cx="160.023" cy="11.925" r="0.607637" fill="#D9D9D9"/>
<circle cx="160.023" cy="11.925" r="0.607637" fill="#D9D9D9"/>
<circle cx="160.023" cy="30.5588" r="0.607637" fill="#D9D9D9"/>
<circle cx="160.023" cy="30.5588" r="0.607637" fill="#D9D9D9"/>
<circle cx="160.023" cy="30.5588" r="0.607637" fill="#D9D9D9"/>
<circle cx="160.023" cy="30.5588" r="0.607637" fill="#D9D9D9"/>
<circle cx="160.023" cy="49.1926" r="0.607637" fill="#D9D9D9"/>
<circle cx="160.023" cy="49.1926" r="0.607637" fill="#D9D9D9"/>
<circle cx="160.023" cy="49.1926" r="0.607637" fill="#D9D9D9"/>
<circle cx="160.023" cy="49.1926" r="0.607637" fill="#D9D9D9"/>
<circle cx="160.023" cy="67.8274" r="0.607637" fill="#D9D9D9"/>
<circle cx="160.023" cy="67.8274" r="0.607637" fill="#D9D9D9"/>
<circle cx="160.023" cy="67.8274" r="0.607637" fill="#D9D9D9"/>
<circle cx="160.023" cy="67.8274" r="0.607637" fill="#D9D9D9"/>
<circle cx="160.023" cy="86.4612" r="0.607637" fill="#D9D9D9"/>
<circle cx="160.023" cy="86.4612" r="0.607637" fill="#D9D9D9"/>
<circle cx="160.023" cy="86.4612" r="0.607637" fill="#D9D9D9"/>
<circle cx="160.023" cy="86.4612" r="0.607637" fill="#D9D9D9"/>
<circle cx="160.023" cy="105.095" r="0.607637" fill="#D9D9D9"/>
<circle cx="160.023" cy="105.095" r="0.607637" fill="#D9D9D9"/>
<circle cx="160.023" cy="105.095" r="0.607637" fill="#D9D9D9"/>
<circle cx="160.023" cy="105.095" r="0.607637" fill="#D9D9D9"/>
<circle cx="160.023" cy="123.729" r="0.607637" fill="#D9D9D9"/>
<circle cx="160.023" cy="123.729" r="0.607637" fill="#D9D9D9"/>
<circle cx="160.023" cy="123.729" r="0.607637" fill="#D9D9D9"/>
<circle cx="160.023" cy="123.729" r="0.607637" fill="#D9D9D9"/>
<circle cx="160.023" cy="142.363" r="0.607637" fill="#D9D9D9"/>
<circle cx="160.023" cy="142.363" r="0.607637" fill="#D9D9D9"/>
<circle cx="160.023" cy="142.363" r="0.607637" fill="#D9D9D9"/>
<circle cx="160.023" cy="142.363" r="0.607637" fill="#D9D9D9"/>
<circle cx="160.023" cy="160.608" r="0.607637" fill="#D9D9D9"/>
<circle cx="160.023" cy="160.608" r="0.607637" fill="#D9D9D9"/>
<circle cx="191.616" cy="11.925" r="0.607637" fill="#D9D9D9"/>
<circle cx="191.616" cy="11.925" r="0.607637" fill="#D9D9D9"/>
<circle cx="191.616" cy="11.925" r="0.607637" fill="#D9D9D9"/>
<circle cx="191.616" cy="11.925" r="0.607637" fill="#D9D9D9"/>
<circle cx="191.616" cy="30.5588" r="0.607637" fill="#D9D9D9"/>
<circle cx="191.616" cy="30.5588" r="0.607637" fill="#D9D9D9"/>
<circle cx="191.616" cy="30.5588" r="0.607637" fill="#D9D9D9"/>
<circle cx="191.616" cy="30.5588" r="0.607637" fill="#D9D9D9"/>
<circle cx="191.616" cy="49.1926" r="0.607637" fill="#D9D9D9"/>
<circle cx="191.616" cy="49.1926" r="0.607637" fill="#D9D9D9"/>
<circle cx="191.616" cy="49.1926" r="0.607637" fill="#D9D9D9"/>
<circle cx="191.616" cy="49.1926" r="0.607637" fill="#D9D9D9"/>
<circle cx="191.616" cy="67.8274" r="0.607637" fill="#D9D9D9"/>
<circle cx="191.616" cy="67.8274" r="0.607637" fill="#D9D9D9"/>
<circle cx="191.616" cy="67.8274" r="0.607637" fill="#D9D9D9"/>
<circle cx="191.616" cy="67.8274" r="0.607637" fill="#D9D9D9"/>
<circle cx="191.616" cy="86.4612" r="0.607637" fill="#D9D9D9"/>
<circle cx="191.616" cy="86.4612" r="0.607637" fill="#D9D9D9"/>
<circle cx="191.616" cy="86.4612" r="0.607637" fill="#D9D9D9"/>
<circle cx="191.616" cy="86.4612" r="0.607637" fill="#D9D9D9"/>
<circle cx="191.616" cy="105.095" r="0.607637" fill="#D9D9D9"/>
<circle cx="191.616" cy="105.095" r="0.607637" fill="#D9D9D9"/>
<circle cx="191.616" cy="105.095" r="0.607637" fill="#D9D9D9"/>
<circle cx="191.616" cy="105.095" r="0.607637" fill="#D9D9D9"/>
<circle cx="191.616" cy="123.729" r="0.607637" fill="#D9D9D9"/>
<circle cx="191.616" cy="123.729" r="0.607637" fill="#D9D9D9"/>
<circle cx="191.616" cy="123.729" r="0.607637" fill="#D9D9D9"/>
<circle cx="191.616" cy="123.729" r="0.607637" fill="#D9D9D9"/>
<circle cx="191.616" cy="142.363" r="0.607637" fill="#D9D9D9"/>
<circle cx="191.616" cy="142.363" r="0.607637" fill="#D9D9D9"/>
<circle cx="191.616" cy="142.363" r="0.607637" fill="#D9D9D9"/>
<circle cx="191.616" cy="142.363" r="0.607637" fill="#D9D9D9"/>
<circle cx="191.616" cy="160.608" r="0.607637" fill="#D9D9D9"/>
<circle cx="191.616" cy="160.608" r="0.607637" fill="#D9D9D9"/>
<circle cx="2.81565" cy="11.925" r="0.607637" fill="#D9D9D9"/>
<circle cx="2.81565" cy="11.925" r="0.607637" fill="#D9D9D9"/>
<circle cx="2.81565" cy="11.925" r="0.607637" fill="#D9D9D9"/>
<circle cx="2.81565" cy="11.925" r="0.607637" fill="#D9D9D9"/>
<circle cx="2.81565" cy="30.5598" r="0.607637" fill="#D9D9D9"/>
<circle cx="2.81565" cy="30.5598" r="0.607637" fill="#D9D9D9"/>
<circle cx="2.81565" cy="30.5598" r="0.607637" fill="#D9D9D9"/>
<circle cx="2.81565" cy="30.5598" r="0.607637" fill="#D9D9D9"/>
<circle cx="2.81565" cy="49.1926" r="0.607637" fill="#D9D9D9"/>
<circle cx="2.81565" cy="49.1926" r="0.607637" fill="#D9D9D9"/>
<circle cx="2.81565" cy="49.1926" r="0.607637" fill="#D9D9D9"/>
<circle cx="2.81565" cy="49.1926" r="0.607637" fill="#D9D9D9"/>
<circle cx="2.81565" cy="67.8274" r="0.607637" fill="#D9D9D9"/>
<circle cx="2.81565" cy="67.8274" r="0.607637" fill="#D9D9D9"/>
<circle cx="2.81565" cy="67.8274" r="0.607637" fill="#D9D9D9"/>
<circle cx="2.81565" cy="67.8274" r="0.607637" fill="#D9D9D9"/>
<circle cx="2.81565" cy="86.4621" r="0.607637" fill="#D9D9D9"/>
<circle cx="2.81565" cy="86.4621" r="0.607637" fill="#D9D9D9"/>
<circle cx="2.81565" cy="86.4621" r="0.607637" fill="#D9D9D9"/>
<circle cx="2.81565" cy="86.4621" r="0.607637" fill="#D9D9D9"/>
<circle cx="2.81565" cy="105.095" r="0.607637" fill="#D9D9D9"/>
<circle cx="2.81565" cy="105.095" r="0.607637" fill="#D9D9D9"/>
<circle cx="2.81565" cy="105.095" r="0.607637" fill="#D9D9D9"/>
<circle cx="2.81565" cy="105.095" r="0.607637" fill="#D9D9D9"/>
<circle cx="2.81565" cy="123.73" r="0.607637" fill="#D9D9D9"/>
<circle cx="2.81565" cy="123.73" r="0.607637" fill="#D9D9D9"/>
<circle cx="2.81565" cy="123.73" r="0.607637" fill="#D9D9D9"/>
<circle cx="2.81565" cy="123.73" r="0.607637" fill="#D9D9D9"/>
<circle cx="2.81565" cy="142.364" r="0.607637" fill="#D9D9D9"/>
<circle cx="2.81565" cy="142.364" r="0.607637" fill="#D9D9D9"/>
<circle cx="2.81565" cy="142.364" r="0.607637" fill="#D9D9D9"/>
<circle cx="2.81565" cy="142.364" r="0.607637" fill="#D9D9D9"/>
<circle cx="2.81565" cy="160.609" r="0.607637" fill="#D9D9D9"/>
<circle cx="2.81565" cy="160.609" r="0.607637" fill="#D9D9D9"/>
<path d="M135.813 72.2722L144.25 77.143L152.687 72.2722L144.25 67.4014L135.813 72.2722Z" fill="#E5E5E5"/>
<path d="M152.687 72.2722L144.25 77.143L144.25 86.8848L152.687 82.0139V72.2722Z" fill="#E5E5E5"/>
<path d="M135.813 72.2722L144.25 77.143L144.25 86.8848L135.813 82.0139L135.813 72.2722Z" fill="#E5E5E5"/>
<path d="M144.25 77.143L135.813 72.2722M144.25 77.143L152.687 72.2722M144.25 77.143L144.25 86.8848M135.813 72.2722L144.25 67.4014L152.687 72.2722M135.813 72.2722L135.813 82.0139L144.25 86.8848M152.687 72.2722V82.0139L144.25 86.8848" stroke="#A3A3A3" stroke-width="0.5"/>
<path d="M135.787 16.3708L144.224 21.2416L152.66 16.3708L144.224 11.5L135.787 16.3708Z" fill="#E5E5E5"/>
<path d="M152.66 16.3708L144.224 21.2416L144.224 30.9834L152.66 26.1125V16.3708Z" fill="#E5E5E5"/>
<path d="M135.787 16.3708L144.224 21.2416L144.224 30.9834L135.787 26.1125L135.787 16.3708Z" fill="#E5E5E5"/>
<path d="M144.224 21.2416L135.787 16.3708M144.224 21.2416L152.66 16.3708M144.224 21.2416L144.224 30.9834M135.787 16.3708L144.224 11.5L152.66 16.3708M135.787 16.3708L135.787 26.1125L144.224 30.9834M152.66 16.3708V26.1125L144.224 30.9834" stroke="#A3A3A3" stroke-width="0.5"/>
<path d="M88.3926 100.224L96.8292 105.095L105.266 100.224L96.8292 95.3535L88.3926 100.224Z" fill="#E5E5E5"/>
<path d="M105.266 100.224L96.8292 105.095L96.8292 114.837L105.266 109.966V100.224Z" fill="#E5E5E5"/>
<path d="M88.3926 100.224L96.8292 105.095L96.8292 114.837L88.3926 109.966L88.3926 100.224Z" fill="#E5E5E5"/>
<path d="M96.8292 105.095L88.3926 100.224M96.8292 105.095L105.266 100.224M96.8292 105.095L96.8292 114.837M88.3926 100.224L96.8292 95.3535L105.266 100.224M88.3926 100.224L88.3926 109.966L96.8292 114.837M105.266 100.224V109.966L96.8292 114.837" stroke="#A3A3A3" stroke-width="0.5"/>
<path d="M135.787 128.176L144.224 133.047L152.66 128.176L144.224 123.306L135.787 128.176Z" fill="#E5E5E5"/>
<path d="M152.66 128.176L144.224 133.047L144.224 142.789L152.66 137.918V128.176Z" fill="#E5E5E5"/>
<path d="M135.787 128.176L144.224 133.047L144.224 142.789L135.787 137.918L135.787 128.176Z" fill="#E5E5E5"/>
<path d="M144.224 133.047L135.787 128.176M144.224 133.047L152.66 128.176M144.224 133.047L144.224 142.789M135.787 128.176L144.224 123.306L152.66 128.176M135.787 128.176L135.787 137.918L144.224 142.789M152.66 128.176V137.918L144.224 142.789" stroke="#A3A3A3" stroke-width="0.5"/>
<path d="M40.9951 128.176L49.4317 133.047L57.8683 128.176L49.4317 123.306L40.9951 128.176Z" fill="#E5E5E5"/>
<path d="M57.8683 128.176L49.4317 133.047L49.4318 142.789L57.8683 137.918V128.176Z" fill="#E5E5E5"/>
<path d="M40.9951 128.176L49.4317 133.047L49.4318 142.789L40.9951 137.918L40.9951 128.176Z" fill="#E5E5E5"/>
<path d="M49.4317 133.047L40.9951 128.176M49.4317 133.047L57.8683 128.176M49.4317 133.047L49.4318 142.789M40.9951 128.176L49.4317 123.306L57.8683 128.176M40.9951 128.176L40.9951 137.918L49.4318 142.789M57.8683 128.176V137.918L49.4318 142.789" stroke="#A3A3A3" stroke-width="0.5"/>
<path d="M88.3916 44.322L96.8282 49.1928L105.265 44.322L96.8282 39.4512L88.3916 44.322Z" fill="#E5E5E5"/>
<path d="M105.265 44.322L96.8282 49.1928L96.8282 58.9346L105.265 54.0637V44.322Z" fill="#E5E5E5"/>
<path d="M88.3916 44.322L96.8282 49.1928L96.8282 58.9346L88.3916 54.0637L88.3916 44.322Z" fill="#E5E5E5"/>
<path d="M96.8282 49.1928L88.3916 44.322M96.8282 49.1928L105.265 44.322M96.8282 49.1928L96.8282 58.9346M88.3916 44.322L96.8282 39.4512L105.265 44.322M88.3916 44.322L88.3916 54.0637L96.8282 58.9346M105.265 44.322V54.0637L96.8282 58.9346" stroke="#A3A3A3" stroke-width="0.5"/>
<path d="M40.9951 72.2731L49.4317 77.144L57.8683 72.2731L49.4317 67.4023L40.9951 72.2731Z" fill="#E5E5E5"/>
<path d="M57.8683 72.2731L49.4317 77.144L49.4318 86.8857L57.8683 82.0148V72.2731Z" fill="#E5E5E5"/>
<path d="M40.9951 72.2731L49.4317 77.144L49.4318 86.8857L40.9951 82.0148L40.9951 72.2731Z" fill="#E5E5E5"/>
<path d="M49.4317 77.144L40.9951 72.2731M49.4317 77.144L57.8683 72.2731M49.4317 77.144L49.4318 86.8857M40.9951 72.2731L49.4317 67.4023L57.8683 72.2731M40.9951 72.2731L40.9951 82.0148L49.4318 86.8857M57.8683 72.2731V82.0148L49.4318 86.8857" stroke="#A3A3A3" stroke-width="0.5"/>
<path d="M40.9951 16.3718L49.4317 21.2426L57.8683 16.3718L49.4317 11.501L40.9951 16.3718Z" fill="#E5E5E5"/>
<path d="M57.8683 16.3718L49.4317 21.2426L49.4318 30.9844L57.8683 26.1135V16.3718Z" fill="#E5E5E5"/>
<path d="M40.9951 16.3718L49.4317 21.2426L49.4318 30.9844L40.9951 26.1135L40.9951 16.3718Z" fill="#E5E5E5"/>
<path d="M49.4317 21.2426L40.9951 16.3718M49.4317 21.2426L57.8683 16.3718M49.4317 21.2426L49.4318 30.9844M40.9951 16.3718L49.4317 11.501L57.8683 16.3718M40.9951 16.3718L40.9951 26.1135L49.4318 30.9844M57.8683 16.3718V26.1135L49.4318 30.9844" stroke="#A3A3A3" stroke-width="0.5"/>
<path d="M112.621 95.7744L128.432 86.4622" stroke="#10B981" stroke-width="1.5" stroke-linecap="round"/>
<path d="M65.2256 67.8281L81.0366 58.5159" stroke="#10B981" stroke-width="1.5" stroke-linecap="round"/>
<path d="M65.2256 123.727L81.0366 114.414" stroke="#10B981" stroke-width="1.5" stroke-linecap="round"/>
<path d="M128.433 67.8281L112.622 58.5159" stroke="#10B981" stroke-width="1.5" stroke-linecap="round"/>
<path d="M128.433 123.729L112.622 114.417" stroke="#EF4444" stroke-width="1.5" stroke-linecap="round"/>
<path d="M81.0361 39.8721L65.2251 30.5598" stroke="#10B981" stroke-width="1.5" stroke-linecap="round"/>
<path d="M64.3523 68.3361L65.7258 68.6939L64.7258 66.9619L64.3523 68.3361Z" stroke="#10B981" stroke-width="1.5" stroke-linecap="round"/>
<path d="M64.3523 124.248L65.7258 124.606L64.7258 122.874L64.3523 124.248Z" stroke="#10B981" stroke-width="1.5" stroke-linecap="round"/>
<path d="M111.736 96.2814L113.11 96.6392L112.11 94.9072L111.736 96.2814Z" stroke="#10B981" stroke-width="1.5" stroke-linecap="round"/>
<path d="M81.9251 40.3576L80.5515 40.7154L81.5515 38.9833L81.9251 40.3576Z" stroke="#10B981" stroke-width="1.5" stroke-linecap="round"/>
<path d="M129.307 68.3361L127.933 68.6939L128.933 66.9619L129.307 68.3361Z" stroke="#10B981" stroke-width="1.5" stroke-linecap="round"/>
<path d="M129.307 124.239L127.933 124.597L128.933 122.865L129.307 124.239Z" stroke="#EF4444" stroke-width="1.5" stroke-linecap="round"/>
</svg>
