<svg width="209" height="165" viewBox="0 0 209 165" fill="none" xmlns="http://www.w3.org/2000/svg">
<g clip-path="url(#clip0_379_1526)">
<circle cx="41.2893" cy="17.2795" r="0.607637" fill="#D9D9D9"/>
<circle cx="72.886" cy="17.2795" r="0.607637" fill="#D9D9D9"/>
<circle cx="104.483" cy="17.2795" r="0.607637" fill="#D9D9D9"/>
<circle cx="136.08" cy="17.2795" r="0.607637" fill="#D9D9D9"/>
<circle cx="41.2893" cy="17.2795" r="0.607637" fill="#D9D9D9"/>
<circle cx="72.886" cy="17.2795" r="0.607637" fill="#D9D9D9"/>
<circle cx="104.483" cy="17.2795" r="0.607637" fill="#D9D9D9"/>
<circle cx="136.08" cy="17.2795" r="0.607637" fill="#D9D9D9"/>
<circle cx="57.0891" cy="7.96213" r="0.607637" fill="#D9D9D9"/>
<circle cx="88.6858" cy="7.96213" r="0.607637" fill="#D9D9D9"/>
<circle cx="120.282" cy="7.96213" r="0.607637" fill="#D9D9D9"/>
<circle cx="57.0891" cy="7.96213" r="0.607637" fill="#D9D9D9"/>
<circle cx="88.6858" cy="7.96213" r="0.607637" fill="#D9D9D9"/>
<circle cx="120.282" cy="7.96213" r="0.607637" fill="#D9D9D9"/>
<circle cx="41.2893" cy="17.2795" r="0.607637" fill="#D9D9D9"/>
<circle cx="72.886" cy="17.2795" r="0.607637" fill="#D9D9D9"/>
<circle cx="104.483" cy="17.2795" r="0.607637" fill="#D9D9D9"/>
<circle cx="136.08" cy="17.2795" r="0.607637" fill="#D9D9D9"/>
<circle cx="41.2893" cy="17.2795" r="0.607637" fill="#D9D9D9"/>
<circle cx="72.886" cy="17.2795" r="0.607637" fill="#D9D9D9"/>
<circle cx="104.483" cy="17.2795" r="0.607637" fill="#D9D9D9"/>
<circle cx="136.08" cy="17.2795" r="0.607637" fill="#D9D9D9"/>
<circle cx="57.0891" cy="7.96213" r="0.607637" fill="#D9D9D9"/>
<circle cx="88.6858" cy="7.96213" r="0.607637" fill="#D9D9D9"/>
<circle cx="120.282" cy="7.96213" r="0.607637" fill="#D9D9D9"/>
<circle cx="57.0891" cy="7.96213" r="0.607637" fill="#D9D9D9"/>
<circle cx="88.6858" cy="7.96213" r="0.607637" fill="#D9D9D9"/>
<circle cx="120.282" cy="7.96213" r="0.607637" fill="#D9D9D9"/>
<circle cx="41.2893" cy="35.9133" r="0.607637" fill="#D9D9D9"/>
<circle cx="72.886" cy="35.9133" r="0.607637" fill="#D9D9D9"/>
<circle cx="104.483" cy="35.9133" r="0.607637" fill="#D9D9D9"/>
<circle cx="136.08" cy="35.9133" r="0.607637" fill="#D9D9D9"/>
<circle cx="41.2893" cy="35.9133" r="0.607637" fill="#D9D9D9"/>
<circle cx="72.886" cy="35.9133" r="0.607637" fill="#D9D9D9"/>
<circle cx="104.483" cy="35.9133" r="0.607637" fill="#D9D9D9"/>
<circle cx="136.08" cy="35.9133" r="0.607637" fill="#D9D9D9"/>
<circle cx="57.0891" cy="26.5959" r="0.607637" fill="#D9D9D9"/>
<circle cx="88.6858" cy="26.5959" r="0.607637" fill="#D9D9D9"/>
<circle cx="120.282" cy="26.5959" r="0.607637" fill="#D9D9D9"/>
<circle cx="57.0891" cy="26.5959" r="0.607637" fill="#D9D9D9"/>
<circle cx="88.6858" cy="26.5959" r="0.607637" fill="#D9D9D9"/>
<circle cx="120.282" cy="26.5959" r="0.607637" fill="#D9D9D9"/>
<circle cx="41.2893" cy="35.9133" r="0.607637" fill="#D9D9D9"/>
<circle cx="72.886" cy="35.9133" r="0.607637" fill="#D9D9D9"/>
<circle cx="104.483" cy="35.9133" r="0.607637" fill="#D9D9D9"/>
<circle cx="136.08" cy="35.9133" r="0.607637" fill="#D9D9D9"/>
<circle cx="41.2893" cy="35.9133" r="0.607637" fill="#D9D9D9"/>
<circle cx="72.886" cy="35.9133" r="0.607637" fill="#D9D9D9"/>
<circle cx="104.483" cy="35.9133" r="0.607637" fill="#D9D9D9"/>
<circle cx="136.08" cy="35.9133" r="0.607637" fill="#D9D9D9"/>
<circle cx="57.0891" cy="26.5959" r="0.607637" fill="#D9D9D9"/>
<circle cx="88.6858" cy="26.5959" r="0.607637" fill="#D9D9D9"/>
<circle cx="120.282" cy="26.5959" r="0.607637" fill="#D9D9D9"/>
<circle cx="57.0891" cy="26.5959" r="0.607637" fill="#D9D9D9"/>
<circle cx="88.6858" cy="26.5959" r="0.607637" fill="#D9D9D9"/>
<circle cx="120.282" cy="26.5959" r="0.607637" fill="#D9D9D9"/>
<circle cx="41.2893" cy="54.5471" r="0.607637" fill="#D9D9D9"/>
<circle cx="72.886" cy="54.5471" r="0.607637" fill="#D9D9D9"/>
<circle cx="104.483" cy="54.5471" r="0.607637" fill="#D9D9D9"/>
<circle cx="136.08" cy="54.5471" r="0.607637" fill="#D9D9D9"/>
<circle cx="41.2893" cy="54.5471" r="0.607637" fill="#D9D9D9"/>
<circle cx="72.886" cy="54.5471" r="0.607637" fill="#D9D9D9"/>
<circle cx="104.483" cy="54.5471" r="0.607637" fill="#D9D9D9"/>
<circle cx="136.08" cy="54.5471" r="0.607637" fill="#D9D9D9"/>
<circle cx="57.0891" cy="45.2297" r="0.607637" fill="#D9D9D9"/>
<circle cx="88.6858" cy="45.2297" r="0.607637" fill="#D9D9D9"/>
<circle cx="120.282" cy="45.2297" r="0.607637" fill="#D9D9D9"/>
<circle cx="57.0891" cy="45.2297" r="0.607637" fill="#D9D9D9"/>
<circle cx="88.6858" cy="45.2297" r="0.607637" fill="#D9D9D9"/>
<circle cx="120.282" cy="45.2297" r="0.607637" fill="#D9D9D9"/>
<circle cx="41.2893" cy="54.5471" r="0.607637" fill="#D9D9D9"/>
<circle cx="72.886" cy="54.5471" r="0.607637" fill="#D9D9D9"/>
<circle cx="104.483" cy="54.5471" r="0.607637" fill="#D9D9D9"/>
<circle cx="136.08" cy="54.5471" r="0.607637" fill="#D9D9D9"/>
<circle cx="41.2893" cy="54.5471" r="0.607637" fill="#D9D9D9"/>
<circle cx="72.886" cy="54.5471" r="0.607637" fill="#D9D9D9"/>
<circle cx="104.483" cy="54.5471" r="0.607637" fill="#D9D9D9"/>
<circle cx="136.08" cy="54.5471" r="0.607637" fill="#D9D9D9"/>
<circle cx="57.0891" cy="45.2297" r="0.607637" fill="#D9D9D9"/>
<circle cx="88.6858" cy="45.2297" r="0.607637" fill="#D9D9D9"/>
<circle cx="120.282" cy="45.2297" r="0.607637" fill="#D9D9D9"/>
<circle cx="57.0891" cy="45.2297" r="0.607637" fill="#D9D9D9"/>
<circle cx="88.6858" cy="45.2297" r="0.607637" fill="#D9D9D9"/>
<circle cx="120.282" cy="45.2297" r="0.607637" fill="#D9D9D9"/>
<circle cx="41.2893" cy="73.1809" r="0.607637" fill="#D9D9D9"/>
<circle cx="72.886" cy="73.1809" r="0.607637" fill="#D9D9D9"/>
<circle cx="104.483" cy="73.1809" r="0.607637" fill="#D9D9D9"/>
<circle cx="136.08" cy="73.1809" r="0.607637" fill="#D9D9D9"/>
<circle cx="41.2893" cy="73.1809" r="0.607637" fill="#D9D9D9"/>
<circle cx="72.886" cy="73.1809" r="0.607637" fill="#D9D9D9"/>
<circle cx="104.483" cy="73.1809" r="0.607637" fill="#D9D9D9"/>
<circle cx="136.08" cy="73.1809" r="0.607637" fill="#D9D9D9"/>
<circle cx="57.0891" cy="63.8645" r="0.607637" fill="#D9D9D9"/>
<circle cx="88.6858" cy="63.8645" r="0.607637" fill="#D9D9D9"/>
<circle cx="120.282" cy="63.8645" r="0.607637" fill="#D9D9D9"/>
<circle cx="57.0891" cy="63.8645" r="0.607637" fill="#D9D9D9"/>
<circle cx="88.6858" cy="63.8645" r="0.607637" fill="#D9D9D9"/>
<circle cx="120.282" cy="63.8645" r="0.607637" fill="#D9D9D9"/>
<circle cx="41.2893" cy="73.1809" r="0.607637" fill="#D9D9D9"/>
<circle cx="72.886" cy="73.1809" r="0.607637" fill="#D9D9D9"/>
<circle cx="104.483" cy="73.1809" r="0.607637" fill="#D9D9D9"/>
<circle cx="136.08" cy="73.1809" r="0.607637" fill="#D9D9D9"/>
<circle cx="41.2893" cy="73.1809" r="0.607637" fill="#D9D9D9"/>
<circle cx="72.886" cy="73.1809" r="0.607637" fill="#D9D9D9"/>
<circle cx="104.483" cy="73.1809" r="0.607637" fill="#D9D9D9"/>
<circle cx="136.08" cy="73.1809" r="0.607637" fill="#D9D9D9"/>
<circle cx="57.0891" cy="63.8645" r="0.607637" fill="#D9D9D9"/>
<circle cx="88.6858" cy="63.8645" r="0.607637" fill="#D9D9D9"/>
<circle cx="120.282" cy="63.8645" r="0.607637" fill="#D9D9D9"/>
<circle cx="57.0891" cy="63.8645" r="0.607637" fill="#D9D9D9"/>
<circle cx="88.6858" cy="63.8645" r="0.607637" fill="#D9D9D9"/>
<circle cx="120.282" cy="63.8645" r="0.607637" fill="#D9D9D9"/>
<circle cx="41.2893" cy="91.8156" r="0.607637" fill="#D9D9D9"/>
<circle cx="72.886" cy="91.8156" r="0.607637" fill="#D9D9D9"/>
<circle cx="104.483" cy="91.8156" r="0.607637" fill="#D9D9D9"/>
<circle cx="136.08" cy="91.8156" r="0.607637" fill="#D9D9D9"/>
<circle cx="41.2893" cy="91.8156" r="0.607637" fill="#D9D9D9"/>
<circle cx="72.886" cy="91.8156" r="0.607637" fill="#D9D9D9"/>
<circle cx="104.483" cy="91.8156" r="0.607637" fill="#D9D9D9"/>
<circle cx="136.08" cy="91.8156" r="0.607637" fill="#D9D9D9"/>
<circle cx="57.0891" cy="82.4983" r="0.607637" fill="#D9D9D9"/>
<circle cx="88.6858" cy="82.4983" r="0.607637" fill="#D9D9D9"/>
<circle cx="120.282" cy="82.4983" r="0.607637" fill="#D9D9D9"/>
<circle cx="57.0891" cy="82.4983" r="0.607637" fill="#D9D9D9"/>
<circle cx="88.6858" cy="82.4983" r="0.607637" fill="#D9D9D9"/>
<circle cx="120.282" cy="82.4983" r="0.607637" fill="#D9D9D9"/>
<circle cx="41.2893" cy="91.8156" r="0.607637" fill="#D9D9D9"/>
<circle cx="72.886" cy="91.8156" r="0.607637" fill="#D9D9D9"/>
<circle cx="104.483" cy="91.8156" r="0.607637" fill="#D9D9D9"/>
<circle cx="136.08" cy="91.8156" r="0.607637" fill="#D9D9D9"/>
<circle cx="41.2893" cy="91.8156" r="0.607637" fill="#D9D9D9"/>
<circle cx="72.886" cy="91.8156" r="0.607637" fill="#D9D9D9"/>
<circle cx="104.483" cy="91.8156" r="0.607637" fill="#D9D9D9"/>
<circle cx="136.08" cy="91.8156" r="0.607637" fill="#D9D9D9"/>
<circle cx="57.0891" cy="82.4983" r="0.607637" fill="#D9D9D9"/>
<circle cx="88.6858" cy="82.4983" r="0.607637" fill="#D9D9D9"/>
<circle cx="120.282" cy="82.4983" r="0.607637" fill="#D9D9D9"/>
<circle cx="57.0891" cy="82.4983" r="0.607637" fill="#D9D9D9"/>
<circle cx="88.6858" cy="82.4983" r="0.607637" fill="#D9D9D9"/>
<circle cx="120.282" cy="82.4983" r="0.607637" fill="#D9D9D9"/>
<circle cx="41.2893" cy="110.45" r="0.607637" fill="#D9D9D9"/>
<circle cx="72.886" cy="110.45" r="0.607637" fill="#D9D9D9"/>
<circle cx="104.483" cy="110.45" r="0.607637" fill="#D9D9D9"/>
<circle cx="136.08" cy="110.45" r="0.607637" fill="#D9D9D9"/>
<circle cx="41.2893" cy="110.45" r="0.607637" fill="#D9D9D9"/>
<circle cx="72.886" cy="110.45" r="0.607637" fill="#D9D9D9"/>
<circle cx="104.483" cy="110.45" r="0.607637" fill="#D9D9D9"/>
<circle cx="136.08" cy="110.45" r="0.607637" fill="#D9D9D9"/>
<circle cx="57.0891" cy="101.132" r="0.607637" fill="#D9D9D9"/>
<circle cx="88.6858" cy="101.132" r="0.607637" fill="#D9D9D9"/>
<circle cx="120.282" cy="101.132" r="0.607637" fill="#D9D9D9"/>
<circle cx="57.0891" cy="101.132" r="0.607637" fill="#D9D9D9"/>
<circle cx="88.6858" cy="101.132" r="0.607637" fill="#D9D9D9"/>
<circle cx="120.282" cy="101.132" r="0.607637" fill="#D9D9D9"/>
<circle cx="41.2893" cy="110.45" r="0.607637" fill="#D9D9D9"/>
<circle cx="72.886" cy="110.45" r="0.607637" fill="#D9D9D9"/>
<circle cx="104.483" cy="110.45" r="0.607637" fill="#D9D9D9"/>
<circle cx="136.08" cy="110.45" r="0.607637" fill="#D9D9D9"/>
<circle cx="41.2893" cy="110.45" r="0.607637" fill="#D9D9D9"/>
<circle cx="72.886" cy="110.45" r="0.607637" fill="#D9D9D9"/>
<circle cx="104.483" cy="110.45" r="0.607637" fill="#D9D9D9"/>
<circle cx="136.08" cy="110.45" r="0.607637" fill="#D9D9D9"/>
<circle cx="57.0891" cy="101.132" r="0.607637" fill="#D9D9D9"/>
<circle cx="88.6858" cy="101.132" r="0.607637" fill="#D9D9D9"/>
<circle cx="120.282" cy="101.132" r="0.607637" fill="#D9D9D9"/>
<circle cx="57.0891" cy="101.132" r="0.607637" fill="#D9D9D9"/>
<circle cx="88.6858" cy="101.132" r="0.607637" fill="#D9D9D9"/>
<circle cx="120.282" cy="101.132" r="0.607637" fill="#D9D9D9"/>
<circle cx="41.2893" cy="129.084" r="0.607637" fill="#D9D9D9"/>
<circle cx="72.886" cy="129.084" r="0.607637" fill="#D9D9D9"/>
<circle cx="104.483" cy="129.084" r="0.607637" fill="#D9D9D9"/>
<circle cx="136.08" cy="129.084" r="0.607637" fill="#D9D9D9"/>
<circle cx="41.2893" cy="129.084" r="0.607637" fill="#D9D9D9"/>
<circle cx="72.886" cy="129.084" r="0.607637" fill="#D9D9D9"/>
<circle cx="104.483" cy="129.084" r="0.607637" fill="#D9D9D9"/>
<circle cx="136.08" cy="129.084" r="0.607637" fill="#D9D9D9"/>
<circle cx="57.0891" cy="119.766" r="0.607637" fill="#D9D9D9"/>
<circle cx="88.6858" cy="119.766" r="0.607637" fill="#D9D9D9"/>
<circle cx="120.282" cy="119.766" r="0.607637" fill="#D9D9D9"/>
<circle cx="57.0891" cy="119.766" r="0.607637" fill="#D9D9D9"/>
<circle cx="88.6858" cy="119.766" r="0.607637" fill="#D9D9D9"/>
<circle cx="120.282" cy="119.766" r="0.607637" fill="#D9D9D9"/>
<circle cx="41.2893" cy="129.084" r="0.607637" fill="#D9D9D9"/>
<circle cx="72.886" cy="129.084" r="0.607637" fill="#D9D9D9"/>
<circle cx="104.483" cy="129.084" r="0.607637" fill="#D9D9D9"/>
<circle cx="136.08" cy="129.084" r="0.607637" fill="#D9D9D9"/>
<circle cx="41.2893" cy="129.084" r="0.607637" fill="#D9D9D9"/>
<circle cx="72.886" cy="129.084" r="0.607637" fill="#D9D9D9"/>
<circle cx="104.483" cy="129.084" r="0.607637" fill="#D9D9D9"/>
<circle cx="136.08" cy="129.084" r="0.607637" fill="#D9D9D9"/>
<circle cx="57.0891" cy="119.766" r="0.607637" fill="#D9D9D9"/>
<circle cx="88.6858" cy="119.766" r="0.607637" fill="#D9D9D9"/>
<circle cx="120.282" cy="119.766" r="0.607637" fill="#D9D9D9"/>
<circle cx="57.0891" cy="119.766" r="0.607637" fill="#D9D9D9"/>
<circle cx="88.6858" cy="119.766" r="0.607637" fill="#D9D9D9"/>
<circle cx="120.282" cy="119.766" r="0.607637" fill="#D9D9D9"/>
<circle cx="41.2893" cy="147.72" r="0.607637" fill="#D9D9D9"/>
<circle cx="72.886" cy="147.72" r="0.607637" fill="#D9D9D9"/>
<circle cx="104.483" cy="147.72" r="0.607637" fill="#D9D9D9"/>
<circle cx="136.08" cy="147.72" r="0.607637" fill="#D9D9D9"/>
<circle cx="41.2893" cy="147.72" r="0.607637" fill="#D9D9D9"/>
<circle cx="72.886" cy="147.72" r="0.607637" fill="#D9D9D9"/>
<circle cx="104.483" cy="147.72" r="0.607637" fill="#D9D9D9"/>
<circle cx="136.08" cy="147.72" r="0.607637" fill="#D9D9D9"/>
<circle cx="57.0891" cy="138.401" r="0.607637" fill="#D9D9D9"/>
<circle cx="88.6858" cy="138.401" r="0.607637" fill="#D9D9D9"/>
<circle cx="120.282" cy="138.401" r="0.607637" fill="#D9D9D9"/>
<circle cx="57.0891" cy="138.401" r="0.607637" fill="#D9D9D9"/>
<circle cx="88.6858" cy="138.401" r="0.607637" fill="#D9D9D9"/>
<circle cx="120.282" cy="138.401" r="0.607637" fill="#D9D9D9"/>
<circle cx="41.2893" cy="147.72" r="0.607637" fill="#D9D9D9"/>
<circle cx="72.886" cy="147.72" r="0.607637" fill="#D9D9D9"/>
<circle cx="104.483" cy="147.72" r="0.607637" fill="#D9D9D9"/>
<circle cx="136.08" cy="147.72" r="0.607637" fill="#D9D9D9"/>
<circle cx="9.69162" cy="17.2795" r="0.607637" fill="#D9D9D9"/>
<circle cx="9.69162" cy="17.2795" r="0.607637" fill="#D9D9D9"/>
<circle cx="9.69162" cy="17.2795" r="0.607637" fill="#D9D9D9"/>
<circle cx="9.69162" cy="17.2795" r="0.607637" fill="#D9D9D9"/>
<circle cx="9.69162" cy="35.9133" r="0.607637" fill="#D9D9D9"/>
<circle cx="9.69162" cy="35.9133" r="0.607637" fill="#D9D9D9"/>
<circle cx="9.69162" cy="35.9133" r="0.607637" fill="#D9D9D9"/>
<circle cx="9.69162" cy="35.9133" r="0.607637" fill="#D9D9D9"/>
<circle cx="9.69162" cy="54.5471" r="0.607637" fill="#D9D9D9"/>
<circle cx="9.69162" cy="54.5471" r="0.607637" fill="#D9D9D9"/>
<circle cx="9.69162" cy="54.5471" r="0.607637" fill="#D9D9D9"/>
<circle cx="9.69162" cy="54.5471" r="0.607637" fill="#D9D9D9"/>
<circle cx="9.69162" cy="73.1809" r="0.607637" fill="#D9D9D9"/>
<circle cx="9.69162" cy="73.1809" r="0.607637" fill="#D9D9D9"/>
<circle cx="9.69162" cy="73.1809" r="0.607637" fill="#D9D9D9"/>
<circle cx="9.69162" cy="73.1809" r="0.607637" fill="#D9D9D9"/>
<circle cx="9.69162" cy="91.8156" r="0.607637" fill="#D9D9D9"/>
<circle cx="9.69162" cy="91.8156" r="0.607637" fill="#D9D9D9"/>
<circle cx="9.69162" cy="91.8156" r="0.607637" fill="#D9D9D9"/>
<circle cx="9.69162" cy="91.8156" r="0.607637" fill="#D9D9D9"/>
<circle cx="9.69162" cy="110.45" r="0.607637" fill="#D9D9D9"/>
<circle cx="9.69162" cy="110.45" r="0.607637" fill="#D9D9D9"/>
<circle cx="9.69162" cy="110.45" r="0.607637" fill="#D9D9D9"/>
<circle cx="9.69162" cy="110.45" r="0.607637" fill="#D9D9D9"/>
<circle cx="9.69162" cy="129.084" r="0.607637" fill="#D9D9D9"/>
<circle cx="9.69162" cy="129.084" r="0.607637" fill="#D9D9D9"/>
<circle cx="9.69162" cy="129.084" r="0.607637" fill="#D9D9D9"/>
<circle cx="9.69162" cy="129.084" r="0.607637" fill="#D9D9D9"/>
<circle cx="9.69162" cy="147.72" r="0.607637" fill="#D9D9D9"/>
<circle cx="9.69162" cy="147.72" r="0.607637" fill="#D9D9D9"/>
<circle cx="9.69162" cy="147.72" r="0.607637" fill="#D9D9D9"/>
<circle cx="9.69162" cy="147.72" r="0.607637" fill="#D9D9D9"/>
<circle cx="41.2893" cy="147.72" r="0.607637" fill="#D9D9D9"/>
<circle cx="72.886" cy="147.72" r="0.607637" fill="#D9D9D9"/>
<circle cx="104.483" cy="147.72" r="0.607637" fill="#D9D9D9"/>
<circle cx="136.08" cy="147.72" r="0.607637" fill="#D9D9D9"/>
<circle cx="167.677" cy="17.2795" r="0.607637" fill="#D9D9D9"/>
<circle cx="167.677" cy="17.2795" r="0.607637" fill="#D9D9D9"/>
<circle cx="167.677" cy="17.2795" r="0.607637" fill="#D9D9D9"/>
<circle cx="167.677" cy="17.2795" r="0.607637" fill="#D9D9D9"/>
<circle cx="167.677" cy="35.9133" r="0.607637" fill="#D9D9D9"/>
<circle cx="167.677" cy="35.9133" r="0.607637" fill="#D9D9D9"/>
<circle cx="167.677" cy="35.9133" r="0.607637" fill="#D9D9D9"/>
<circle cx="167.677" cy="35.9133" r="0.607637" fill="#D9D9D9"/>
<circle cx="167.677" cy="54.5471" r="0.607637" fill="#D9D9D9"/>
<circle cx="167.677" cy="54.5471" r="0.607637" fill="#D9D9D9"/>
<circle cx="167.677" cy="54.5471" r="0.607637" fill="#D9D9D9"/>
<circle cx="167.677" cy="54.5471" r="0.607637" fill="#D9D9D9"/>
<circle cx="167.677" cy="73.1809" r="0.607637" fill="#D9D9D9"/>
<circle cx="167.677" cy="73.1809" r="0.607637" fill="#D9D9D9"/>
<circle cx="167.677" cy="73.1809" r="0.607637" fill="#D9D9D9"/>
<circle cx="167.677" cy="73.1809" r="0.607637" fill="#D9D9D9"/>
<circle cx="167.677" cy="91.8156" r="0.607637" fill="#D9D9D9"/>
<circle cx="167.677" cy="91.8156" r="0.607637" fill="#D9D9D9"/>
<circle cx="167.677" cy="91.8156" r="0.607637" fill="#D9D9D9"/>
<circle cx="167.677" cy="91.8156" r="0.607637" fill="#D9D9D9"/>
<circle cx="167.677" cy="110.45" r="0.607637" fill="#D9D9D9"/>
<circle cx="167.677" cy="110.45" r="0.607637" fill="#D9D9D9"/>
<circle cx="167.677" cy="110.45" r="0.607637" fill="#D9D9D9"/>
<circle cx="167.677" cy="110.45" r="0.607637" fill="#D9D9D9"/>
<circle cx="167.677" cy="129.084" r="0.607637" fill="#D9D9D9"/>
<circle cx="167.677" cy="129.084" r="0.607637" fill="#D9D9D9"/>
<circle cx="167.677" cy="129.084" r="0.607637" fill="#D9D9D9"/>
<circle cx="167.677" cy="129.084" r="0.607637" fill="#D9D9D9"/>
<circle cx="167.677" cy="147.72" r="0.607637" fill="#D9D9D9"/>
<circle cx="167.677" cy="147.72" r="0.607637" fill="#D9D9D9"/>
<circle cx="167.677" cy="147.72" r="0.607637" fill="#D9D9D9"/>
<circle cx="167.677" cy="147.72" r="0.607637" fill="#D9D9D9"/>
<circle cx="57.0891" cy="138.401" r="0.607637" fill="#D9D9D9"/>
<circle cx="88.6858" cy="138.401" r="0.607637" fill="#D9D9D9"/>
<circle cx="120.282" cy="138.401" r="0.607637" fill="#D9D9D9"/>
<circle cx="57.0891" cy="138.401" r="0.607637" fill="#D9D9D9"/>
<circle cx="88.6858" cy="138.401" r="0.607637" fill="#D9D9D9"/>
<circle cx="120.282" cy="138.401" r="0.607637" fill="#D9D9D9"/>
<circle cx="57.0891" cy="156.645" r="0.607637" fill="#D9D9D9"/>
<circle cx="88.6858" cy="156.645" r="0.607637" fill="#D9D9D9"/>
<circle cx="120.282" cy="156.645" r="0.607637" fill="#D9D9D9"/>
<circle cx="25.4914" cy="7.96213" r="0.607637" fill="#D9D9D9"/>
<circle cx="25.4914" cy="7.96213" r="0.607637" fill="#D9D9D9"/>
<circle cx="25.4914" cy="7.96213" r="0.607637" fill="#D9D9D9"/>
<circle cx="25.4914" cy="7.96213" r="0.607637" fill="#D9D9D9"/>
<circle cx="25.4914" cy="26.5959" r="0.607637" fill="#D9D9D9"/>
<circle cx="25.4914" cy="26.5959" r="0.607637" fill="#D9D9D9"/>
<circle cx="25.4914" cy="26.5959" r="0.607637" fill="#D9D9D9"/>
<circle cx="25.4914" cy="26.5959" r="0.607637" fill="#D9D9D9"/>
<circle cx="25.4914" cy="45.2297" r="0.607637" fill="#D9D9D9"/>
<circle cx="25.4914" cy="45.2297" r="0.607637" fill="#D9D9D9"/>
<circle cx="25.4914" cy="45.2297" r="0.607637" fill="#D9D9D9"/>
<circle cx="25.4914" cy="45.2297" r="0.607637" fill="#D9D9D9"/>
<circle cx="25.4914" cy="63.8645" r="0.607637" fill="#D9D9D9"/>
<circle cx="25.4914" cy="63.8645" r="0.607637" fill="#D9D9D9"/>
<circle cx="25.4914" cy="63.8645" r="0.607637" fill="#D9D9D9"/>
<circle cx="25.4914" cy="63.8645" r="0.607637" fill="#D9D9D9"/>
<circle cx="25.4914" cy="82.4983" r="0.607637" fill="#D9D9D9"/>
<circle cx="25.4914" cy="82.4983" r="0.607637" fill="#D9D9D9"/>
<circle cx="25.4914" cy="82.4983" r="0.607637" fill="#D9D9D9"/>
<circle cx="25.4914" cy="82.4983" r="0.607637" fill="#D9D9D9"/>
<circle cx="25.4914" cy="101.132" r="0.607637" fill="#D9D9D9"/>
<circle cx="25.4914" cy="101.132" r="0.607637" fill="#D9D9D9"/>
<circle cx="25.4914" cy="101.132" r="0.607637" fill="#D9D9D9"/>
<circle cx="25.4914" cy="101.132" r="0.607637" fill="#D9D9D9"/>
<circle cx="25.4914" cy="119.766" r="0.607637" fill="#D9D9D9"/>
<circle cx="25.4914" cy="119.766" r="0.607637" fill="#D9D9D9"/>
<circle cx="25.4914" cy="119.766" r="0.607637" fill="#D9D9D9"/>
<circle cx="25.4914" cy="119.766" r="0.607637" fill="#D9D9D9"/>
<circle cx="25.4914" cy="138.401" r="0.607637" fill="#D9D9D9"/>
<circle cx="25.4914" cy="138.401" r="0.607637" fill="#D9D9D9"/>
<circle cx="25.4914" cy="138.401" r="0.607637" fill="#D9D9D9"/>
<circle cx="25.4914" cy="138.401" r="0.607637" fill="#D9D9D9"/>
<circle cx="25.4914" cy="156.645" r="0.607637" fill="#D9D9D9"/>
<circle cx="25.4914" cy="156.645" r="0.607637" fill="#D9D9D9"/>
<circle cx="57.0891" cy="156.645" r="0.607637" fill="#D9D9D9"/>
<circle cx="88.6858" cy="156.645" r="0.607637" fill="#D9D9D9"/>
<circle cx="120.282" cy="156.645" r="0.607637" fill="#D9D9D9"/>
<circle cx="151.88" cy="7.96213" r="0.607637" fill="#D9D9D9"/>
<circle cx="151.88" cy="7.96213" r="0.607637" fill="#D9D9D9"/>
<circle cx="151.88" cy="7.96213" r="0.607637" fill="#D9D9D9"/>
<circle cx="151.88" cy="7.96213" r="0.607637" fill="#D9D9D9"/>
<circle cx="151.88" cy="26.5959" r="0.607637" fill="#D9D9D9"/>
<circle cx="151.88" cy="26.5959" r="0.607637" fill="#D9D9D9"/>
<circle cx="151.88" cy="26.5959" r="0.607637" fill="#D9D9D9"/>
<circle cx="151.88" cy="26.5959" r="0.607637" fill="#D9D9D9"/>
<circle cx="151.88" cy="45.2297" r="0.607637" fill="#D9D9D9"/>
<circle cx="151.88" cy="45.2297" r="0.607637" fill="#D9D9D9"/>
<circle cx="151.88" cy="45.2297" r="0.607637" fill="#D9D9D9"/>
<circle cx="151.88" cy="45.2297" r="0.607637" fill="#D9D9D9"/>
<circle cx="151.88" cy="63.8645" r="0.607637" fill="#D9D9D9"/>
<circle cx="151.88" cy="63.8645" r="0.607637" fill="#D9D9D9"/>
<circle cx="151.88" cy="63.8645" r="0.607637" fill="#D9D9D9"/>
<circle cx="151.88" cy="63.8645" r="0.607637" fill="#D9D9D9"/>
<circle cx="151.88" cy="82.4983" r="0.607637" fill="#D9D9D9"/>
<circle cx="151.88" cy="82.4983" r="0.607637" fill="#D9D9D9"/>
<circle cx="151.88" cy="82.4983" r="0.607637" fill="#D9D9D9"/>
<circle cx="151.88" cy="82.4983" r="0.607637" fill="#D9D9D9"/>
<circle cx="151.88" cy="101.132" r="0.607637" fill="#D9D9D9"/>
<circle cx="151.88" cy="101.132" r="0.607637" fill="#D9D9D9"/>
<circle cx="151.88" cy="101.132" r="0.607637" fill="#D9D9D9"/>
<circle cx="151.88" cy="101.132" r="0.607637" fill="#D9D9D9"/>
<circle cx="151.88" cy="119.766" r="0.607637" fill="#D9D9D9"/>
<circle cx="151.88" cy="119.766" r="0.607637" fill="#D9D9D9"/>
<circle cx="151.88" cy="119.766" r="0.607637" fill="#D9D9D9"/>
<circle cx="151.88" cy="119.766" r="0.607637" fill="#D9D9D9"/>
<circle cx="151.88" cy="138.401" r="0.607637" fill="#D9D9D9"/>
<circle cx="151.88" cy="138.401" r="0.607637" fill="#D9D9D9"/>
<circle cx="151.88" cy="138.401" r="0.607637" fill="#D9D9D9"/>
<circle cx="151.88" cy="138.401" r="0.607637" fill="#D9D9D9"/>
<circle cx="151.88" cy="156.645" r="0.607637" fill="#D9D9D9"/>
<circle cx="151.88" cy="156.645" r="0.607637" fill="#D9D9D9"/>
<circle cx="183.474" cy="7.96213" r="0.607637" fill="#D9D9D9"/>
<circle cx="183.474" cy="7.96213" r="0.607637" fill="#D9D9D9"/>
<circle cx="183.474" cy="7.96213" r="0.607637" fill="#D9D9D9"/>
<circle cx="183.474" cy="7.96213" r="0.607637" fill="#D9D9D9"/>
<circle cx="183.474" cy="26.5959" r="0.607637" fill="#D9D9D9"/>
<circle cx="183.474" cy="26.5959" r="0.607637" fill="#D9D9D9"/>
<circle cx="183.474" cy="26.5959" r="0.607637" fill="#D9D9D9"/>
<circle cx="183.474" cy="26.5959" r="0.607637" fill="#D9D9D9"/>
<circle cx="183.474" cy="45.2297" r="0.607637" fill="#D9D9D9"/>
<circle cx="183.474" cy="45.2297" r="0.607637" fill="#D9D9D9"/>
<circle cx="183.474" cy="45.2297" r="0.607637" fill="#D9D9D9"/>
<circle cx="183.474" cy="45.2297" r="0.607637" fill="#D9D9D9"/>
<circle cx="183.474" cy="63.8645" r="0.607637" fill="#D9D9D9"/>
<circle cx="183.474" cy="63.8645" r="0.607637" fill="#D9D9D9"/>
<circle cx="183.474" cy="63.8645" r="0.607637" fill="#D9D9D9"/>
<circle cx="183.474" cy="63.8645" r="0.607637" fill="#D9D9D9"/>
<circle cx="183.474" cy="82.4983" r="0.607637" fill="#D9D9D9"/>
<circle cx="183.474" cy="82.4983" r="0.607637" fill="#D9D9D9"/>
<circle cx="183.474" cy="82.4983" r="0.607637" fill="#D9D9D9"/>
<circle cx="183.474" cy="82.4983" r="0.607637" fill="#D9D9D9"/>
<circle cx="183.474" cy="101.132" r="0.607637" fill="#D9D9D9"/>
<circle cx="183.474" cy="101.132" r="0.607637" fill="#D9D9D9"/>
<circle cx="183.474" cy="101.132" r="0.607637" fill="#D9D9D9"/>
<circle cx="183.474" cy="101.132" r="0.607637" fill="#D9D9D9"/>
<circle cx="183.474" cy="119.766" r="0.607637" fill="#D9D9D9"/>
<circle cx="183.474" cy="119.766" r="0.607637" fill="#D9D9D9"/>
<circle cx="183.474" cy="119.766" r="0.607637" fill="#D9D9D9"/>
<circle cx="183.474" cy="119.766" r="0.607637" fill="#D9D9D9"/>
<circle cx="183.474" cy="138.401" r="0.607637" fill="#D9D9D9"/>
<circle cx="183.474" cy="138.401" r="0.607637" fill="#D9D9D9"/>
<circle cx="183.474" cy="138.401" r="0.607637" fill="#D9D9D9"/>
<circle cx="183.474" cy="138.401" r="0.607637" fill="#D9D9D9"/>
<circle cx="183.474" cy="156.645" r="0.607637" fill="#D9D9D9"/>
<circle cx="183.474" cy="156.645" r="0.607637" fill="#D9D9D9"/>
<circle cx="199.271" cy="17.2785" r="0.607637" fill="#D9D9D9"/>
<circle cx="199.271" cy="17.2785" r="0.607637" fill="#D9D9D9"/>
<circle cx="199.271" cy="17.2785" r="0.607637" fill="#D9D9D9"/>
<circle cx="199.271" cy="17.2785" r="0.607637" fill="#D9D9D9"/>
<circle cx="199.271" cy="35.9123" r="0.607637" fill="#D9D9D9"/>
<circle cx="199.271" cy="35.9123" r="0.607637" fill="#D9D9D9"/>
<circle cx="199.271" cy="35.9123" r="0.607637" fill="#D9D9D9"/>
<circle cx="199.271" cy="35.9123" r="0.607637" fill="#D9D9D9"/>
<circle cx="199.271" cy="54.5471" r="0.607637" fill="#D9D9D9"/>
<circle cx="199.271" cy="54.5471" r="0.607637" fill="#D9D9D9"/>
<circle cx="199.271" cy="54.5471" r="0.607637" fill="#D9D9D9"/>
<circle cx="199.271" cy="54.5471" r="0.607637" fill="#D9D9D9"/>
<circle cx="199.271" cy="73.1809" r="0.607637" fill="#D9D9D9"/>
<circle cx="199.271" cy="73.1809" r="0.607637" fill="#D9D9D9"/>
<circle cx="199.271" cy="73.1809" r="0.607637" fill="#D9D9D9"/>
<circle cx="199.271" cy="73.1809" r="0.607637" fill="#D9D9D9"/>
<circle cx="199.271" cy="91.8147" r="0.607637" fill="#D9D9D9"/>
<circle cx="199.271" cy="91.8147" r="0.607637" fill="#D9D9D9"/>
<circle cx="199.271" cy="91.8147" r="0.607637" fill="#D9D9D9"/>
<circle cx="199.271" cy="91.8147" r="0.607637" fill="#D9D9D9"/>
<circle cx="199.271" cy="110.448" r="0.607637" fill="#D9D9D9"/>
<circle cx="199.271" cy="110.448" r="0.607637" fill="#D9D9D9"/>
<circle cx="199.271" cy="110.448" r="0.607637" fill="#D9D9D9"/>
<circle cx="199.271" cy="110.448" r="0.607637" fill="#D9D9D9"/>
<circle cx="199.271" cy="129.083" r="0.607637" fill="#D9D9D9"/>
<circle cx="199.271" cy="129.083" r="0.607637" fill="#D9D9D9"/>
<circle cx="199.271" cy="129.083" r="0.607637" fill="#D9D9D9"/>
<circle cx="199.271" cy="129.083" r="0.607637" fill="#D9D9D9"/>
<circle cx="199.271" cy="147.327" r="0.607637" fill="#D9D9D9"/>
<circle cx="199.271" cy="147.327" r="0.607637" fill="#D9D9D9"/>
<path d="M143.473 77.6276L151.909 82.4984L160.346 77.6276L151.909 72.7568L143.473 77.6276Z" fill="#E5E5E5"/>
<path d="M160.346 77.6276L151.909 82.4984L151.909 92.2402L160.346 87.3693V77.6276Z" fill="#E5E5E5"/>
<path d="M143.473 77.6276L151.909 82.4984L151.909 92.2402L143.473 87.3693L143.473 77.6276Z" fill="#E5E5E5"/>
<path d="M151.909 82.4984L143.473 77.6276M151.909 82.4984L160.346 77.6276M151.909 82.4984L151.909 92.2402M143.473 77.6276L151.909 72.7568L160.346 77.6276M143.473 77.6276L143.473 87.3693L151.909 92.2402M160.346 77.6276V87.3693L151.909 92.2402" stroke="#A3A3A3" stroke-width="0.5"/>
<path d="M143.446 21.7263L151.883 26.5971L160.319 21.7263L151.883 16.8555L143.446 21.7263Z" fill="#E5E5E5"/>
<path d="M160.319 21.7263L151.883 26.5971L151.883 36.3389L160.319 31.468V21.7263Z" fill="#E5E5E5"/>
<path d="M143.446 21.7263L151.883 26.5971L151.883 36.3389L143.446 31.468L143.446 21.7263Z" fill="#E5E5E5"/>
<path d="M151.883 26.5971L143.446 21.7263M151.883 26.5971L160.319 21.7263M151.883 26.5971L151.883 36.3389M143.446 21.7263L151.883 16.8555L160.319 21.7263M143.446 21.7263L143.446 31.468L151.883 36.3389M160.319 21.7263V31.468L151.883 36.3389" stroke="#A3A3A3" stroke-width="0.5"/>
<path d="M143.446 133.532L151.883 138.403L160.319 133.532L151.883 128.661L143.446 133.532Z" fill="#E5E5E5"/>
<path d="M160.319 133.532L151.883 138.403L151.883 148.145L160.319 143.274V133.532Z" fill="#E5E5E5"/>
<path d="M143.446 133.532L151.883 138.403L151.883 148.145L143.446 143.274L143.446 133.532Z" fill="#E5E5E5"/>
<path d="M151.883 138.403L143.446 133.532M151.883 138.403L160.319 133.532M151.883 138.403L151.883 148.145M143.446 133.532L151.883 128.661L160.319 133.532M143.446 133.532L143.446 143.274L151.883 148.145M160.319 133.532V143.274L151.883 148.145" stroke="#A3A3A3" stroke-width="0.5"/>
<path d="M96.0518 105.58L104.488 110.451L112.925 105.58L104.488 100.709L96.0518 105.58Z" fill="#E5E5E5"/>
<path d="M112.925 105.58L104.488 110.451L104.488 120.192L112.925 115.321V105.58Z" fill="#E5E5E5"/>
<path d="M96.0518 105.58L104.488 110.451L104.488 120.192L96.0518 115.321L96.0518 105.58Z" fill="#E5E5E5"/>
<path d="M104.488 110.451L96.0518 105.58M104.488 110.451L112.925 105.58M104.488 110.451L104.488 120.192M96.0518 105.58L104.488 100.709L112.925 105.58M96.0518 105.58L96.0518 115.321L104.488 120.192M112.925 105.58V115.321L104.488 120.192" stroke="#A3A3A3" stroke-width="0.5"/>
<path d="M96.0508 49.6774L104.487 54.5483L112.924 49.6774L104.487 44.8066L96.0508 49.6774Z" fill="#E5E5E5"/>
<path d="M112.924 49.6774L104.487 54.5483L104.487 64.29L112.924 59.4191V49.6774Z" fill="#E5E5E5"/>
<path d="M96.0508 49.6774L104.487 54.5483L104.487 64.29L96.0508 59.4191L96.0508 49.6774Z" fill="#E5E5E5"/>
<path d="M104.487 54.5483L96.0508 49.6774M104.487 54.5483L112.924 49.6774M104.487 54.5483L104.487 64.29M96.0508 49.6774L104.487 44.8066L112.924 49.6774M96.0508 49.6774L96.0508 59.4191L104.487 64.29M112.924 49.6774V59.4191L104.487 64.29" stroke="#A3A3A3" stroke-width="0.5"/>
<path d="M1.25781 105.58L9.6944 110.451L18.131 105.58L9.6944 100.709L1.25781 105.58Z" fill="#E5E5E5"/>
<path d="M18.131 105.58L9.6944 110.451L9.69445 120.192L18.131 115.321V105.58Z" fill="#E5E5E5"/>
<path d="M1.25781 105.58L9.6944 110.451L9.69445 120.192L1.25781 115.321L1.25781 105.58Z" fill="#E5E5E5"/>
<path d="M9.6944 110.451L1.25781 105.58M9.6944 110.451L18.131 105.58M9.6944 110.451L9.69445 120.192M1.25781 105.58L9.6944 100.709L18.131 105.58M1.25781 105.58L1.25781 115.321L9.69445 120.192M18.131 105.58V115.321L9.69445 120.192" stroke="#A3A3A3" stroke-width="0.5"/>
<path d="M1.25684 49.6774L9.69342 54.5483L18.13 49.6774L9.69342 44.8066L1.25684 49.6774Z" fill="#E5E5E5"/>
<path d="M18.13 49.6774L9.69342 54.5483L9.69347 64.29L18.13 59.4191V49.6774Z" fill="#E5E5E5"/>
<path d="M1.25684 49.6774L9.69342 54.5483L9.69347 64.29L1.25684 59.4191L1.25684 49.6774Z" fill="#E5E5E5"/>
<path d="M9.69342 54.5483L1.25684 49.6774M9.69342 54.5483L18.13 49.6774M9.69342 54.5483L9.69347 64.29M1.25684 49.6774L9.69342 44.8066L18.13 49.6774M1.25684 49.6774L1.25684 59.4191L9.69347 64.29M18.13 49.6774V59.4191L9.69347 64.29" stroke="#A3A3A3" stroke-width="0.5"/>
<path d="M190.87 105.58L199.307 110.451L207.743 105.58L199.307 100.709L190.87 105.58Z" fill="#E5E5E5"/>
<path d="M207.743 105.58L199.307 110.451L199.307 120.192L207.743 115.321V105.58Z" fill="#E5E5E5"/>
<path d="M190.87 105.58L199.307 110.451L199.307 120.192L190.87 115.321L190.87 105.58Z" fill="#E5E5E5"/>
<path d="M199.307 110.451L190.87 105.58M199.307 110.451L207.743 105.58M199.307 110.451L199.307 120.192M190.87 105.58L199.307 100.709L207.743 105.58M190.87 105.58L190.87 115.321L199.307 120.192M207.743 105.58V115.321L199.307 120.192" stroke="#A3A3A3" stroke-width="0.5"/>
<path d="M190.869 49.6774L199.306 54.5483L207.742 49.6774L199.306 44.8066L190.869 49.6774Z" fill="#E5E5E5"/>
<path d="M207.742 49.6774L199.306 54.5483L199.306 64.29L207.742 59.4191V49.6774Z" fill="#E5E5E5"/>
<path d="M190.869 49.6774L199.306 54.5483L199.306 64.29L190.869 59.4191L190.869 49.6774Z" fill="#E5E5E5"/>
<path d="M199.306 54.5483L190.869 49.6774M199.306 54.5483L207.742 49.6774M199.306 54.5483L199.306 64.29M190.869 49.6774L199.306 44.8066L207.742 49.6774M190.869 49.6774L190.869 59.4191L199.306 64.29M207.742 49.6774V59.4191L199.306 64.29" stroke="#A3A3A3" stroke-width="0.5"/>
<path d="M48.6543 133.532L57.0909 138.403L65.5275 133.532L57.0909 128.661L48.6543 133.532Z" fill="#E5E5E5"/>
<path d="M65.5275 133.532L57.0909 138.403L57.0909 148.145L65.5275 143.274V133.532Z" fill="#E5E5E5"/>
<path d="M48.6543 133.532L57.0909 138.403L57.0909 148.145L48.6543 143.274L48.6543 133.532Z" fill="#E5E5E5"/>
<path d="M57.0909 138.403L48.6543 133.532M57.0909 138.403L65.5275 133.532M57.0909 138.403L57.0909 148.145M48.6543 133.532L57.0909 128.661L65.5275 133.532M48.6543 133.532L48.6543 143.274L57.0909 148.145M65.5275 133.532V143.274L57.0909 148.145" stroke="#A3A3A3" stroke-width="0.5"/>
<path d="M48.6543 77.6286L57.0909 82.4994L65.5275 77.6286L57.0909 72.7578L48.6543 77.6286Z" fill="#E5E5E5"/>
<path d="M65.5275 77.6286L57.0909 82.4994L57.0909 92.2412L65.5275 87.3703V77.6286Z" fill="#E5E5E5"/>
<path d="M48.6543 77.6286L57.0909 82.4994L57.0909 92.2412L48.6543 87.3703L48.6543 77.6286Z" fill="#E5E5E5"/>
<path d="M57.0909 82.4994L48.6543 77.6286M57.0909 82.4994L65.5275 77.6286M57.0909 82.4994L57.0909 92.2412M48.6543 77.6286L57.0909 72.7578L65.5275 77.6286M48.6543 77.6286L48.6543 87.3703L57.0909 92.2412M65.5275 77.6286V87.3703L57.0909 92.2412" stroke="#A3A3A3" stroke-width="0.5"/>
<path d="M48.6543 21.7273L57.0909 26.5981L65.5275 21.7273L57.0909 16.8564L48.6543 21.7273Z" fill="#E5E5E5"/>
<path d="M65.5275 21.7273L57.0909 26.5981L57.0909 36.3398L65.5275 31.469V21.7273Z" fill="#E5E5E5"/>
<path d="M48.6543 21.7273L57.0909 26.5981L57.0909 36.3398L48.6543 31.469L48.6543 21.7273Z" fill="#E5E5E5"/>
<path d="M57.0909 26.5981L48.6543 21.7273M57.0909 26.5981L65.5275 21.7273M57.0909 26.5981L57.0909 36.3398M48.6543 21.7273L57.0909 16.8564L65.5275 21.7273M48.6543 21.7273L48.6543 31.469L57.0909 36.3398M65.5275 21.7273V31.469L57.0909 36.3398" stroke="#A3A3A3" stroke-width="0.5"/>
<path d="M120.28 101.13L136.091 91.8176" stroke="#10B981" stroke-width="1.5" stroke-linecap="round"/>
<path d="M72.8848 73.1836L88.6958 63.8714" stroke="#10B981" stroke-width="1.5" stroke-linecap="round"/>
<path d="M72.8848 129.082L88.6958 119.77" stroke="#10B981" stroke-width="1.5" stroke-linecap="round"/>
<path d="M136.092 73.1836L120.281 63.8714" stroke="#10B981" stroke-width="1.5" stroke-linecap="round"/>
<path d="M136.092 129.085L120.281 119.773" stroke="#EF4444" stroke-width="1.5" stroke-linecap="round"/>
<path d="M88.6953 45.2275L72.8843 35.9153" stroke="#10B981" stroke-width="1.5" stroke-linecap="round"/>
<path d="M72.0114 73.6916L73.385 74.0494L72.385 72.3173L72.0114 73.6916Z" stroke="#10B981" stroke-width="1.5" stroke-linecap="round"/>
<path d="M72.0114 129.604L73.385 129.961L72.385 128.229L72.0114 129.604Z" stroke="#10B981" stroke-width="1.5" stroke-linecap="round"/>
<path d="M119.395 101.637L120.769 101.995L119.769 100.263L119.395 101.637Z" stroke="#10B981" stroke-width="1.5" stroke-linecap="round"/>
<path d="M89.5843 45.7131L88.2107 46.0709L89.2107 44.3388L89.5843 45.7131Z" stroke="#10B981" stroke-width="1.5" stroke-linecap="round"/>
<path d="M136.966 73.6916L135.593 74.0494L136.593 72.3173L136.966 73.6916Z" stroke="#10B981" stroke-width="1.5" stroke-linecap="round"/>
<path d="M136.966 129.595L135.593 129.953L136.593 128.221L136.966 129.595Z" stroke="#EF4444" stroke-width="1.5" stroke-linecap="round"/>
</g>
<defs>
<clipPath id="clip0_379_1526">
<rect width="209" height="165" fill="white"/>
</clipPath>
</defs>
</svg>
