<svg version="1.1" xmlns="http://www.w3.org/2000/svg" viewBox="0 0 1866.3422972819567 788.84421713895" width="3732.6845945639134" height="1577.6884342779">
  <!-- svg-source:excalidraw -->

  <defs>
    <style class="style-fonts">
      @font-face {
        font-family: "Virgil";
        src: url("https://excalidraw.com/Virgil.woff2");
      }
      @font-face {
        font-family: "Cascadia";
        src: url("https://excalidraw.com/Cascadia.woff2");
      }
      @font-face {
        font-family: "Assistant";
        src: url("https://excalidraw.com/Assistant-Regular.woff2");
      }
    </style>

  </defs>
  <g stroke-linecap="round" transform="translate(543.9661848245241 10) rotate(0 321.84882814554726 66.30480371892257)"><path d="M32 0 C198.17 0.81, 362.61 -1.41, 611.7 0 C631.24 0.92, 645.39 10.42, 643.7 32 C641.97 61.2, 644.35 87.82, 643.7 100.61 C641.16 119.58, 631.85 130.11, 611.7 132.61 C479.12 133.72, 345.05 131.48, 32 132.61 C7.12 132.26, -2.34 124.46, 0 100.61 C1.8 81.4, 0.16 54.3, 0 32 C-3.29 8.61, 11.49 3.54, 32 0" stroke="none" stroke-width="0" fill="#f8f9fa"></path><path d="M32 0 C159.03 -1.9, 286.43 -0.75, 611.7 0 M32 0 C231.86 -1.59, 431.52 -1.12, 611.7 0 M611.7 0 C634.43 -0.44, 643.72 11.01, 643.7 32 M611.7 0 C633.39 0.97, 644.04 8.86, 643.7 32 M643.7 32 C645.38 56.29, 641.8 81.17, 643.7 100.61 M643.7 32 C644.68 55.58, 644.43 77.8, 643.7 100.61 M643.7 100.61 C644.2 121.39, 634.08 131.89, 611.7 132.61 M643.7 100.61 C644 120.73, 632.96 132.67, 611.7 132.61 M611.7 132.61 C406.55 132.66, 200.52 132.74, 32 132.61 M611.7 132.61 C403.59 132.58, 195.72 132.39, 32 132.61 M32 132.61 C9.59 133.12, -1.28 120.36, 0 100.61 M32 132.61 C10.04 131.5, -1.55 122.18, 0 100.61 M0 100.61 C-0.79 75.3, 0.67 52.26, 0 32 M0 100.61 C0.03 74.51, 0.07 47.78, 0 32 M0 32 C0.1 10.09, 8.91 0.71, 32 0 M0 32 C0.96 8.72, 11.98 -1.91, 32 0" stroke="#1e1e1e" stroke-width="2" fill="none"></path></g><g transform="translate(570.5025129700712 54.70480371892259) rotate(0 295.3125 21.599999999999994)"><text x="295.3125" y="0" font-family="Cascadia, Segoe UI Emoji" font-size="36px" fill="#1e1e1e" text-anchor="middle" style="white-space: pre;" direction="ltr" dominant-baseline="text-before-edge">["app", "high-availability"]</text></g><g stroke-linecap="round" transform="translate(267.0925595417034 328.1144339759818) rotate(0 249.83120239033542 66.30480371892259)"><path d="M32 0 C134.23 -2.81, 237.94 -1.63, 467.66 0 C487.75 -0.56, 500.4 13.49, 499.66 32 C499.51 55.43, 496.24 73.29, 499.66 100.61 C501.2 124.98, 485.58 131.9, 467.66 132.61 C331.35 133.91, 194.52 135.44, 32 132.61 C7.6 133.96, -0.26 121.54, 0 100.61 C-2.61 82.04, -1.53 62.23, 0 32 C2.15 9.64, 9.09 -2.24, 32 0" stroke="none" stroke-width="0" fill="#f8f9fa"></path><path d="M32 0 C120.51 1.11, 208.61 0.69, 467.66 0 M32 0 C179.21 -0.41, 326.99 0.04, 467.66 0 M467.66 0 C488.96 -1.44, 498.02 10.99, 499.66 32 M467.66 0 C489.41 -0.02, 501.68 11.99, 499.66 32 M499.66 32 C497.88 58.68, 500.67 82.3, 499.66 100.61 M499.66 32 C498.42 49.64, 500.31 67.08, 499.66 100.61 M499.66 100.61 C499.91 122.29, 487.2 133.49, 467.66 132.61 M499.66 100.61 C499.71 122.15, 490.45 130.43, 467.66 132.61 M467.66 132.61 C322.87 133.58, 177.8 133.1, 32 132.61 M467.66 132.61 C352.11 130.5, 237.02 130.28, 32 132.61 M32 132.61 C11.4 134.16, -0.65 122.09, 0 100.61 M32 132.61 C9.91 133.9, -0.01 122.62, 0 100.61 M0 100.61 C-0.65 79.99, -1.61 61.02, 0 32 M0 100.61 C-0.47 82.26, 0.48 62.35, 0 32 M0 32 C-1.88 12.27, 10.89 -0.21, 32 0 M0 32 C-1.76 9.2, 10.52 -1.41, 32 0" stroke="#1e1e1e" stroke-width="2" fill="none"></path></g><g transform="translate(400.9081369320388 372.81923769490436) rotate(0 116.015625 21.600000000000023)"><text x="116.015625" y="0" font-family="Cascadia, Segoe UI Emoji" font-size="36px" fill="#1e1e1e" text-anchor="middle" style="white-space: pre;" direction="ltr" dominant-baseline="text-before-edge">["utility"]</text></g><g stroke-linecap="round" transform="translate(951.7487760746544 327.93643975260784) rotate(0 249.8312023903352 66.30480371892259)"><path d="M32 0 C150.28 0.86, 266.55 -0.14, 467.66 0 C492.33 3.02, 498.32 11.19, 499.66 32 C499.3 44.17, 496.78 57.41, 499.66 100.61 C499.89 119.4, 490.66 135.18, 467.66 132.61 C308.37 133.87, 153.36 133.39, 32 132.61 C11.01 132.13, -2.05 121.36, 0 100.61 C-3.26 81.88, 2.51 58.13, 0 32 C-2.88 8.05, 7.19 -0.69, 32 0" stroke="none" stroke-width="0" fill="#f8f9fa"></path><path d="M32 0 C127.62 -3.01, 222.04 -3.01, 467.66 0 M32 0 C147.59 0.85, 262.21 0.26, 467.66 0 M467.66 0 C487.23 -0.1, 499.96 11.12, 499.66 32 M467.66 0 C489.61 1.56, 500.49 10.89, 499.66 32 M499.66 32 C501.3 58.53, 499.08 84.31, 499.66 100.61 M499.66 32 C499.99 56.05, 499.24 81.12, 499.66 100.61 M499.66 100.61 C501.49 122.48, 490.64 133.29, 467.66 132.61 M499.66 100.61 C501.84 121.98, 489.12 133.11, 467.66 132.61 M467.66 132.61 C313.82 132.68, 161.31 133.84, 32 132.61 M467.66 132.61 C338.49 132.08, 208.87 132.75, 32 132.61 M32 132.61 C10.35 132.14, 0.34 122.48, 0 100.61 M32 132.61 C11.75 130.75, -1.42 120.96, 0 100.61 M0 100.61 C1.03 86.78, -1.32 72.37, 0 32 M0 100.61 C0.65 81.58, 0.16 61.41, 0 32 M0 32 C-1.51 8.97, 11.5 -0.28, 32 0 M0 32 C-0.15 8.76, 11.4 0.57, 32 0" stroke="#1e1e1e" stroke-width="2" fill="none"></path></g><g transform="translate(1117.2049784649898 372.6412434715304) rotate(0 84.375 21.600000000000023)"><text x="84.375" y="0" font-family="Cascadia, Segoe UI Emoji" font-size="36px" fill="#1e1e1e" text-anchor="middle" style="white-space: pre;" direction="ltr" dominant-baseline="text-before-edge">["data"]</text></g><g stroke-linecap="round" transform="translate(10 646.2346097011048) rotate(0 249.83120239033542 66.30480371892259)"><path d="M32 0 C132.01 -2.96, 233.93 -3.25, 467.66 0 C490.35 -1.91, 499.28 9.36, 499.66 32 C497 54.66, 500.31 78.85, 499.66 100.61 C500.02 121.99, 491.61 134.22, 467.66 132.61 C333.46 133.63, 196.54 136.67, 32 132.61 C10.93 129.66, 0.26 122.53, 0 100.61 C-1.61 75.6, -1.05 47.99, 0 32 C-0.12 11.66, 10.95 2.13, 32 0" stroke="none" stroke-width="0" fill="#f8f9fa"></path><path d="M32 0 C143.49 -0.72, 253.24 -0.22, 467.66 0 M32 0 C184.34 -1.05, 336.17 -1.6, 467.66 0 M467.66 0 C487.34 1.08, 499.31 9.48, 499.66 32 M467.66 0 C486.71 0.44, 499.43 8.46, 499.66 32 M499.66 32 C498.66 53.4, 498.88 72.34, 499.66 100.61 M499.66 32 C499.51 57.03, 498.8 81.82, 499.66 100.61 M499.66 100.61 C498.53 123.4, 489.99 133.44, 467.66 132.61 M499.66 100.61 C498.86 124.03, 489.46 133.1, 467.66 132.61 M467.66 132.61 C344.37 134.68, 221.71 133.29, 32 132.61 M467.66 132.61 C306.52 131.02, 144.05 130.95, 32 132.61 M32 132.61 C11.82 132.01, 0.14 119.95, 0 100.61 M32 132.61 C12.03 134.02, -1 122.91, 0 100.61 M0 100.61 C0.62 72.76, 0.55 47.83, 0 32 M0 100.61 C0.42 78.39, -0.03 56.92, 0 32 M0 32 C0.89 11.75, 9.7 -1.74, 32 0 M0 32 C-0.18 11.03, 8.85 -1.42, 32 0" stroke="#1e1e1e" stroke-width="2" fill="none"></path></g><g transform="translate(154.36245239033542 690.9394134200273) rotate(0 105.46875 21.600000000000023)"><text x="105.46875" y="0" font-family="Cascadia, Segoe UI Emoji" font-size="36px" fill="#1e1e1e" text-anchor="middle" style="white-space: pre;" direction="ltr" dominant-baseline="text-before-edge">["config"]</text></g><g stroke-linecap="round" transform="translate(682.8167298040107 646.2346097011048) rotate(0 249.83120239033542 66.30480371892259)"><path d="M32 0 C191.92 1.34, 351.75 1.53, 467.66 0 C486.69 2.43, 497.32 8.13, 499.66 32 C497.85 47.76, 501.99 64.29, 499.66 100.61 C497.84 119.85, 490.94 135.36, 467.66 132.61 C297.17 132.54, 125.38 133.37, 32 132.61 C7.39 132.59, 1.91 121.79, 0 100.61 C1.11 77.73, 0.82 48.11, 0 32 C-1.34 12.57, 9.55 2.59, 32 0" stroke="none" stroke-width="0" fill="#f8f9fa"></path><path d="M32 0 C135.76 1.08, 240.66 1.73, 467.66 0 M32 0 C158.71 -1.33, 285.08 -1.16, 467.66 0 M467.66 0 C487.27 -0.43, 499.45 12.4, 499.66 32 M467.66 0 C488.49 1.8, 501.89 12.2, 499.66 32 M499.66 32 C497.19 52.12, 498.91 72.1, 499.66 100.61 M499.66 32 C500.81 48.82, 499.54 65.92, 499.66 100.61 M499.66 100.61 C500.12 120.45, 490.85 132.87, 467.66 132.61 M499.66 100.61 C498.09 121.29, 488.28 130.37, 467.66 132.61 M467.66 132.61 C306.38 130.8, 142.87 131.64, 32 132.61 M467.66 132.61 C310.86 134.1, 154.3 134.19, 32 132.61 M32 132.61 C10.75 130.93, -0.59 121.19, 0 100.61 M32 132.61 C12.94 131, 0.73 119.82, 0 100.61 M0 100.61 C1.58 77.56, 0.89 52.13, 0 32 M0 100.61 C-0.21 81.61, -1.14 62.14, 0 32 M0 32 C-1.15 9.87, 11.06 0.63, 32 0 M0 32 C-0.24 9.23, 8.53 -1.06, 32 0" stroke="#1e1e1e" stroke-width="2" fill="none"></path></g><g transform="translate(827.1791821943461 690.9394134200273) rotate(0 105.46875 21.600000000000023)"><text x="105.46875" y="0" font-family="Cascadia, Segoe UI Emoji" font-size="36px" fill="#1e1e1e" text-anchor="middle" style="white-space: pre;" direction="ltr" dominant-baseline="text-before-edge">["config"]</text></g><g stroke-linecap="round" transform="translate(1356.6798925012858 646.2346097011048) rotate(0 249.83120239033542 66.30480371892259)"><path d="M32 0 C173.49 2.13, 313.4 1.67, 467.66 0 C490.66 -3.34, 502.65 9.59, 499.66 32 C497.64 52.29, 499.97 77.44, 499.66 100.61 C502.93 122.5, 485.66 129.55, 467.66 132.61 C354.11 132.72, 242.4 133.28, 32 132.61 C7.93 131.01, -2.56 123.7, 0 100.61 C-1.04 79.66, 0.77 59.69, 0 32 C2.67 7.32, 9.78 3.21, 32 0" stroke="none" stroke-width="0" fill="#f8f9fa"></path><path d="M32 0 C145.6 1.33, 261.12 2.04, 467.66 0 M32 0 C137.2 -0.4, 242.64 -0.5, 467.66 0 M467.66 0 C488.87 -0.46, 497.89 8.81, 499.66 32 M467.66 0 C490.53 -1.38, 501.72 10.12, 499.66 32 M499.66 32 C501.73 56.33, 499.3 79.01, 499.66 100.61 M499.66 32 C500.8 57.23, 499.67 81.82, 499.66 100.61 M499.66 100.61 C501.31 121.08, 490.06 132.4, 467.66 132.61 M499.66 100.61 C500.91 121.36, 487.36 132.65, 467.66 132.61 M467.66 132.61 C355.31 133.63, 244.6 133.06, 32 132.61 M467.66 132.61 C344.24 133.74, 220.34 132.98, 32 132.61 M32 132.61 C11.61 132.03, 1.69 121.4, 0 100.61 M32 132.61 C12.59 133.54, 2.28 123.09, 0 100.61 M0 100.61 C-0.06 77.55, -1.73 54.97, 0 32 M0 100.61 C-0.34 86.07, -0.1 71.15, 0 32 M0 32 C0.17 10.52, 11.46 -1.64, 32 0 M0 32 C-2.27 12.6, 12.05 -1.03, 32 0" stroke="#1e1e1e" stroke-width="2" fill="none"></path></g><g transform="translate(1406.1204698916213 690.9394134200273) rotate(0 200.390625 21.600000000000023)"><text x="200.390625" y="0" font-family="Cascadia, Segoe UI Emoji" font-size="36px" fill="#1e1e1e" text-anchor="middle" style="white-space: pre;" direction="ltr" dominant-baseline="text-before-edge">["utility", "beta"]</text></g><g stroke-linecap="round"><g transform="translate(858.1797900721381 143.6096074378452) rotate(0 -173.6652623304749 88.85355781495693)"><path d="M1.06 -0.59 C-56.87 29.4, -290.46 148.98, -348.52 178.84 M0.16 1.71 C-57.35 31.49, -288.39 148.15, -346.44 177.31" stroke="#2f9e44" stroke-width="2" fill="none"></path></g><g transform="translate(858.1797900721381 143.6096074378452) rotate(0 -173.6652623304749 88.85355781495693)"><path d="M-329.31 159.11 C-334.3 161.35, -335.27 167.42, -346.44 177.31 M-329.31 159.11 C-335.45 166.28, -341.66 173.36, -346.44 177.31" stroke="#2f9e44" stroke-width="2" fill="none"></path></g><g transform="translate(858.1797900721381 143.6096074378452) rotate(0 -173.6652623304749 88.85355781495693)"><path d="M-321.61 174.38 C-328.19 173.27, -330.88 175.9, -346.44 177.31 M-321.61 174.38 C-330.59 175.91, -339.66 177.32, -346.44 177.31" stroke="#2f9e44" stroke-width="2" fill="none"></path></g></g><mask></mask><g stroke-linecap="round"><g transform="translate(858.9611810855017 143.76146133175112) rotate(0 182.42999840756147 85.47899598644446)"><path d="M-0.8 -0.89 C59.97 27.39, 303.71 142.22, 364.55 170.86 M0.98 1.25 C61.57 30.23, 303.08 143.84, 363.43 172.34" stroke="#2f9e44" stroke-width="2" fill="none"></path></g><g transform="translate(858.9611810855017 143.76146133175112) rotate(0 182.42999840756147 85.47899598644446)"><path d="M338.54 170.06 C344.34 170.37, 352.93 170.45, 363.43 172.34 M338.54 170.06 C345.79 171.24, 354.38 170.54, 363.43 172.34" stroke="#2f9e44" stroke-width="2" fill="none"></path></g><g transform="translate(858.9611810855017 143.76146133175112) rotate(0 182.42999840756147 85.47899598644446)"><path d="M345.83 154.59 C349.66 159.37, 356.12 163.97, 363.43 172.34 M345.83 154.59 C350.77 160.4, 357.18 164.31, 363.43 172.34" stroke="#2f9e44" stroke-width="2" fill="none"></path></g></g><mask></mask><g stroke-linecap="round"><g transform="translate(498.1398970890691 460.6224156266961) rotate(0 -127.33792452431794 87.7084015559713)"><path d="M0.79 -0.62 C-41.72 28.52, -211.42 146.48, -253.99 175.63 M-0.26 1.67 C-42.96 30.35, -212.06 144.74, -254.58 173.62" stroke="#2f9e44" stroke-width="2" fill="none"></path></g><g transform="translate(498.1398970890691 460.6224156266961) rotate(0 -127.33792452431794 87.7084015559713)"><path d="M-239.93 153.37 C-246.51 162.45, -250.8 169.18, -254.58 173.62 M-239.93 153.37 C-243.82 158.01, -246.24 161.1, -254.58 173.62" stroke="#2f9e44" stroke-width="2" fill="none"></path></g><g transform="translate(498.1398970890691 460.6224156266961) rotate(0 -127.33792452431794 87.7084015559713)"><path d="M-230.34 167.52 C-240.73 171.18, -248.74 172.42, -254.58 173.62 M-230.34 167.52 C-236.18 169.34, -240.57 169.53, -254.58 173.62" stroke="#2f9e44" stroke-width="2" fill="none"></path></g></g><mask></mask><g stroke-linecap="round"><g transform="translate(499.3885526367162 461.72404141382697) rotate(0 219.04773877510388 87.062510683408)"><path d="M-0.91 -0.69 C72.07 28.3, 364.6 144.31, 437.93 173.44 M0.82 1.56 C73.62 30.74, 363.89 145.64, 436.89 174.62" stroke="#2f9e44" stroke-width="2" fill="none"></path></g><g transform="translate(499.3885526367162 461.72404141382697) rotate(0 219.04773877510388 87.062510683408)"><path d="M411.9 173.91 C418.35 174.04, 425.97 176.17, 436.89 174.62 M411.9 173.91 C418.72 174.79, 427.48 173.8, 436.89 174.62" stroke="#2f9e44" stroke-width="2" fill="none"></path></g><g transform="translate(499.3885526367162 461.72404141382697) rotate(0 219.04773877510388 87.062510683408)"><path d="M418.21 158.01 C422.67 162.93, 428.37 169.9, 436.89 174.62 M418.21 158.01 C423.05 163.59, 429.93 167.35, 436.89 174.62" stroke="#2f9e44" stroke-width="2" fill="none"></path></g></g><mask></mask><g stroke-linecap="round"><g transform="translate(1225.4166206245363 462.12229686447336) rotate(0 197.30985146013586 88.92625931038157)"><path d="M-0.68 0.18 C65.24 29.61, 329.81 148.11, 395.75 177.69 M1.17 -0.77 C67.01 29.36, 329.86 149.2, 395.39 179.14" stroke="#e03131" stroke-width="2" fill="none"></path></g><g transform="translate(1225.4166206245363 462.12229686447336) rotate(0 197.30985146013586 88.92625931038157)"><path d="M370.47 177.17 C378.79 179.82, 386.2 179.1, 395.39 179.14 M370.47 177.17 C377.98 177.6, 384.89 177.73, 395.39 179.14" stroke="#e03131" stroke-width="2" fill="none"></path></g><g transform="translate(1225.4166206245363 462.12229686447336) rotate(0 197.30985146013586 88.92625931038157)"><path d="M377.57 161.61 C383.75 169.21, 388.89 173.48, 395.39 179.14 M377.57 161.61 C382.96 166.41, 387.86 170.96, 395.39 179.14" stroke="#e03131" stroke-width="2" fill="none"></path></g></g><mask></mask><g stroke-linecap="round" transform="translate(1373.712857624239 504.73609914530243) rotate(0 38.57805554116521 39)"><path d="M47.1 0.47 C54.07 1.32, 61.76 6.47, 66.63 12.33 C71.5 18.19, 75.56 27.91, 76.32 35.61 C77.08 43.31, 74.87 52.06, 71.2 58.51 C67.52 64.96, 61.17 71.26, 54.26 74.3 C47.36 77.35, 37.05 78.4, 29.76 76.77 C22.48 75.14, 15.4 70.08, 10.55 64.51 C5.7 58.94, 1.38 51.02, 0.67 43.34 C-0.04 35.66, 2.68 25.13, 6.3 18.44 C9.93 11.75, 14.34 5.58, 22.43 3.21 C30.52 0.83, 48.37 3.49, 54.84 4.17 C61.3 4.85, 61.62 6.98, 61.21 7.3 M37.54 -0.69 C44.33 -1.74, 52.24 1.29, 58.48 5.67 C64.71 10.05, 71.82 18.31, 74.95 25.6 C78.07 32.9, 79.18 42.2, 77.25 49.43 C75.33 56.66, 69.23 64.2, 63.39 68.97 C57.55 73.74, 50.02 77.48, 42.23 78.06 C34.43 78.65, 23.47 76.45, 16.64 72.49 C9.82 68.52, 3.86 61.73, 1.28 54.28 C-1.3 46.84, -1.21 35.36, 1.17 27.84 C3.55 20.32, 9.47 13.58, 15.55 9.17 C21.63 4.77, 34.14 2.69, 37.64 1.42 C41.14 0.15, 36.54 0.97, 36.52 1.54" stroke="none" stroke-width="0" fill="#ffc9c9"></path><path d="M35.46 0.59 C42.53 -0.61, 52.32 1.92, 58.66 5.78 C65 9.64, 70.7 16.82, 73.5 23.77 C76.3 30.72, 77.11 39.9, 75.46 47.48 C73.8 55.06, 69.03 64.1, 63.57 69.24 C58.12 74.38, 50.35 77.88, 42.74 78.32 C35.12 78.76, 24.55 75.88, 17.9 71.91 C11.25 67.94, 5.69 61.3, 2.85 54.5 C0.01 47.69, -1.07 38.41, 0.84 31.07 C2.75 23.72, 8.05 15.68, 14.31 10.43 C20.57 5.18, 33.76 1.2, 38.37 -0.41 C42.98 -2.02, 41.94 0.07, 41.97 0.78 M27.37 2.76 C34.03 -0.17, 43.61 -0.34, 50.75 1.68 C57.9 3.7, 65.98 8.72, 70.25 14.87 C74.53 21.02, 76.5 31.03, 76.4 38.59 C76.31 46.15, 74.15 53.88, 69.69 60.23 C65.23 66.59, 56.96 73.96, 49.66 76.73 C42.35 79.49, 33.13 79.41, 25.88 76.84 C18.64 74.27, 10.64 67.47, 6.18 61.3 C1.72 55.13, -1.21 47.19, -0.88 39.82 C-0.54 32.45, 3.43 23.49, 8.19 17.08 C12.95 10.68, 24.69 3.85, 27.69 1.39 C30.68 -1.08, 26.09 1.77, 26.16 2.3" stroke="#e03131" stroke-width="2" fill="none"></path></g><g transform="translate(1398.7572256747549 522.958934679027) rotate(0 13.7548828125 20.69999999999999)"><text x="13.7548828125" y="0" font-family="Helvetica, Segoe UI Emoji" font-size="36px" fill="#e03131" text-anchor="middle" style="white-space: pre;" direction="ltr" dominant-baseline="text-before-edge">✓</text></g><g stroke-linecap="round" transform="translate(982.5894507369562 185.4901245713382) rotate(0 38.57805554116521 38)"><path d="M50.01 2.2 C57.3 3.53, 65.35 8.48, 70.02 14.32 C74.69 20.16, 77.83 29.61, 78.01 37.23 C78.18 44.84, 75.48 53.88, 71.08 60.01 C66.67 66.14, 58.74 71.66, 51.58 74 C44.43 76.34, 35.26 76.28, 28.14 74.04 C21.02 71.81, 13.57 66.3, 8.86 60.58 C4.16 54.87, 0.28 47.28, -0.11 39.76 C-0.5 32.24, 2.17 21.74, 6.52 15.46 C10.88 9.17, 18.05 4.07, 26.05 2.07 C34.06 0.07, 48.94 2.4, 54.55 3.45 C60.17 4.49, 59.91 7.66, 59.75 8.35 M55.63 4.27 C62.39 6.68, 69.1 13.2, 72.51 19.49 C75.91 25.78, 77.15 34.63, 76.04 42 C74.94 49.38, 71.09 57.93, 65.89 63.75 C60.68 69.56, 52.43 75.69, 44.82 76.87 C37.21 78.05, 27.03 74.48, 20.23 70.83 C13.43 67.19, 7.36 61.61, 4.02 55 C0.67 48.38, -1.04 38.29, 0.16 31.12 C1.37 23.96, 5.96 17.19, 11.23 12.02 C16.5 6.85, 24.33 1.71, 31.78 0.11 C39.22 -1.48, 52.21 1.74, 55.88 2.43 C59.56 3.12, 54 3.67, 53.81 4.27" stroke="none" stroke-width="0" fill="#b2f2bb"></path><path d="M49.93 2.7 C57.23 4.49, 66.33 9.65, 70.85 15.71 C75.36 21.76, 77.32 31.57, 77.02 39.01 C76.71 46.46, 73.41 54.56, 69.03 60.38 C64.66 66.21, 57.9 71.77, 50.76 73.96 C43.62 76.16, 33.55 75.78, 26.21 73.56 C18.88 71.34, 11.19 66.52, 6.77 60.64 C2.34 54.76, -0.41 45.86, -0.34 38.29 C-0.28 30.72, 2.51 21.19, 7.17 15.23 C11.83 9.27, 19.34 4.22, 27.61 2.54 C35.88 0.85, 50.85 3.99, 56.78 5.13 C62.71 6.26, 63.44 8.91, 63.19 9.34 M23.1 2.64 C29.35 -0.56, 40.2 -0.51, 47.32 0.96 C54.45 2.42, 61.05 6.21, 65.83 11.43 C70.61 16.66, 75.15 24.62, 76.01 32.29 C76.87 39.96, 74.32 50.56, 70.99 57.45 C67.66 64.34, 62.89 70.58, 56.03 73.63 C49.18 76.67, 37.69 77.48, 29.87 75.73 C22.05 73.98, 13.96 68.58, 9.12 63.14 C4.29 57.7, 1.46 50.28, 0.86 43.09 C0.27 35.91, 2.09 26.48, 5.55 20.04 C9.02 13.6, 18.76 7.15, 21.65 4.46 C24.54 1.77, 22.68 3.4, 22.89 3.9" stroke="#2f9e44" stroke-width="2" fill="none"></path></g><g transform="translate(1007.6338187874721 202.92006688624943) rotate(0 13.7548828125 20.69999999999999)"><text x="13.7548828125" y="0" font-family="Helvetica, Segoe UI Emoji" font-size="36px" fill="#2f9e44" text-anchor="middle" style="white-space: pre;" direction="ltr" dominant-baseline="text-before-edge">✓</text></g><g stroke-linecap="round" transform="translate(655.4901172597024 185.4901245713382) rotate(0 38.57805554116521 39)"><path d="M39.1 -0.42 C46.4 -1.11, 54.84 2.81, 60.77 7.41 C66.69 12.01, 72.34 20.1, 74.65 27.18 C76.95 34.26, 76.8 42.58, 74.58 49.92 C72.37 57.26, 67.34 66.41, 61.38 71.22 C55.42 76.03, 46.44 78.77, 38.83 78.76 C31.21 78.75, 21.76 75.77, 15.7 71.16 C9.63 66.56, 4.75 58.59, 2.44 51.12 C0.14 43.65, -0.24 33.74, 1.87 26.33 C3.97 18.92, 8.09 10.87, 15.07 6.67 C22.05 2.48, 37.92 1.9, 43.74 1.17 C49.57 0.43, 49.92 1.84, 50.03 2.24 M26.09 1.39 C32.55 -1.6, 41.29 -1.55, 48.62 0.69 C55.95 2.93, 65.45 8.58, 70.07 14.82 C74.69 21.07, 76.31 30.48, 76.35 38.18 C76.4 45.87, 74.38 54.75, 70.34 61.02 C66.3 67.29, 59.34 73.05, 52.1 75.81 C44.87 78.57, 34.18 79.69, 26.95 77.58 C19.73 75.46, 13.01 69.35, 8.75 63.1 C4.5 56.86, 2.05 47.91, 1.43 40.11 C0.82 32.31, 1.37 22.64, 5.08 16.29 C8.8 9.95, 20.45 4.28, 23.73 2.05 C27 -0.19, 24.37 2.29, 24.72 2.88" stroke="none" stroke-width="0" fill="#b2f2bb"></path><path d="M33.61 -0.59 C40.61 -2.01, 51.09 0.56, 57.7 4.25 C64.31 7.94, 70.12 14.63, 73.27 21.56 C76.41 28.5, 78.01 38.18, 76.56 45.84 C75.11 53.49, 70.09 62.07, 64.56 67.49 C59.04 72.91, 50.71 77.47, 43.4 78.36 C36.09 79.25, 27.19 76.68, 20.69 72.82 C14.19 68.97, 7.62 62.16, 4.4 55.25 C1.19 48.35, 0.29 38.97, 1.42 31.4 C2.54 23.82, 4.75 15.03, 11.16 9.81 C17.56 4.6, 33.97 1.38, 39.85 0.1 C45.72 -1.18, 46.28 1.36, 46.41 2.14 M53.75 2.36 C60.35 4.8, 67.36 11.38, 70.99 18.1 C74.63 24.82, 76.36 34.78, 75.54 42.67 C74.71 50.55, 70.74 59.9, 66.04 65.39 C61.34 70.89, 54.51 74.04, 47.34 75.61 C40.18 77.19, 30.18 77.85, 23.04 74.85 C15.91 71.85, 8.12 64.25, 4.54 57.63 C0.95 51.01, 0.55 42.76, 1.53 35.13 C2.52 27.5, 5.43 17.67, 10.46 11.85 C15.49 6.03, 24.62 1.8, 31.7 0.2 C38.79 -1.4, 49.57 1.5, 52.99 2.25 C56.41 2.99, 52.35 3.8, 52.23 4.68" stroke="#2f9e44" stroke-width="2" fill="none"></path></g><g transform="translate(680.5344853102183 203.71296010506288) rotate(0 13.7548828125 20.69999999999999)"><text x="13.7548828125" y="0" font-family="Helvetica, Segoe UI Emoji" font-size="36px" fill="#2f9e44" text-anchor="middle" style="white-space: pre;" direction="ltr" dominant-baseline="text-before-edge">✓</text></g><g stroke-linecap="round" transform="translate(655.2336339844937 504.73609914530243) rotate(0 38.57805554116521 39)"><path d="M48.6 2.07 C55.76 3.17, 64.37 7.54, 69.18 13.28 C73.98 19.03, 77.13 28.8, 77.42 36.52 C77.71 44.23, 74.95 53.08, 70.93 59.59 C66.9 66.1, 60.23 72.81, 53.27 75.6 C46.31 78.39, 36.41 78.18, 29.15 76.33 C21.9 74.47, 14.74 70.22, 9.72 64.47 C4.71 58.73, -0.19 49.68, -0.92 41.87 C-1.64 34.06, 1.3 24.12, 5.37 17.59 C9.44 11.06, 15.3 5.1, 23.48 2.69 C31.66 0.28, 48.43 2.36, 54.43 3.13 C60.44 3.9, 59.73 6.79, 59.5 7.33 M47.43 0.96 C54.7 2.24, 63.28 7.96, 68.28 13.92 C73.29 19.88, 77.11 28.78, 77.45 36.73 C77.8 44.68, 74.36 55.24, 70.36 61.64 C66.37 68.03, 60.47 72.67, 53.49 75.12 C46.51 77.58, 36.16 78.15, 28.48 76.34 C20.81 74.53, 12.11 70.17, 7.45 64.29 C2.79 58.41, 0.6 48.63, 0.5 41.05 C0.39 33.48, 2.65 25.4, 6.79 18.85 C10.94 12.31, 18.17 4.86, 25.34 1.78 C32.52 -1.29, 46.03 0.34, 49.84 0.43 C53.64 0.51, 48.74 1.61, 48.17 2.28" stroke="none" stroke-width="0" fill="#b2f2bb"></path><path d="M33.28 0.43 C40.18 -1.22, 49.62 0.91, 56.45 4.57 C63.28 8.23, 70.98 15.34, 74.26 22.39 C77.53 29.43, 77.67 39.23, 76.1 46.85 C74.53 54.47, 70.31 63.1, 64.82 68.11 C59.33 73.12, 50.61 75.98, 43.16 76.94 C35.72 77.9, 26.69 77.24, 20.14 73.86 C13.6 70.49, 7.21 63.69, 3.89 56.68 C0.57 49.67, -1.17 39.3, 0.24 31.81 C1.65 24.32, 5.55 17.18, 12.34 11.77 C19.14 6.36, 35.37 1.12, 41.02 -0.65 C46.66 -2.42, 46.5 0.46, 46.2 1.16 M30.25 1.24 C37.14 -0.99, 47.4 -0.64, 54.18 2.61 C60.95 5.85, 67.03 13.6, 70.89 20.7 C74.75 27.8, 78.18 37.55, 77.33 45.19 C76.47 52.83, 71.07 61.32, 65.77 66.54 C60.47 71.75, 52.58 75.21, 45.53 76.49 C38.48 77.77, 30.4 77.13, 23.47 74.23 C16.55 71.33, 7.81 65.94, 3.97 59.09 C0.12 52.23, -0.88 40.68, 0.43 33.11 C1.73 25.54, 6.72 19.19, 11.8 13.67 C16.87 8.15, 27.62 2.14, 30.85 -0.01 C34.08 -2.16, 30.92 0.13, 31.19 0.78" stroke="#2f9e44" stroke-width="2" fill="none"></path></g><g transform="translate(680.2780020350096 522.958934679027) rotate(0 13.7548828125 20.69999999999999)"><text x="13.7548828125" y="0" font-family="Helvetica, Segoe UI Emoji" font-size="36px" fill="#2f9e44" text-anchor="middle" style="white-space: pre;" direction="ltr" dominant-baseline="text-before-edge">✓</text></g><g stroke-linecap="round" transform="translate(331.7180573319529 504.73609914530243) rotate(0 38.57805554116521 39)"><path d="M20.99 3.98 C27.12 0.34, 37.11 -1.08, 44.76 0.33 C52.41 1.74, 61.52 6.82, 66.88 12.44 C72.24 18.07, 76.05 26.58, 76.91 34.08 C77.78 41.58, 75.77 50.75, 72.09 57.44 C68.4 64.14, 61.47 70.94, 54.81 74.24 C48.14 77.53, 39.38 78.49, 32.09 77.21 C24.81 75.93, 16.5 72.02, 11.09 66.57 C5.69 61.12, 0.63 52.01, -0.36 44.51 C-1.35 37.01, 1.28 28.54, 5.16 21.58 C9.04 14.61, 19.46 5.87, 22.93 2.69 C26.41 -0.49, 25.71 1.89, 26.02 2.51 M27.5 2.36 C34.05 -0.05, 43.73 0.66, 51.22 3.27 C58.7 5.88, 68.11 11.78, 72.41 18.04 C76.7 24.3, 77.7 32.97, 76.99 40.83 C76.29 48.69, 72.79 59.42, 68.19 65.2 C63.59 70.97, 56.44 73.99, 49.4 75.45 C42.36 76.92, 33.32 76.71, 25.94 73.98 C18.55 71.25, 9.64 65.28, 5.09 59.09 C0.55 52.9, -1.86 44.55, -1.33 36.83 C-0.8 29.11, 3.48 18.81, 8.28 12.76 C13.08 6.71, 24.13 2.16, 27.49 0.53 C30.86 -1.11, 28.1 1.94, 28.48 2.92" stroke="none" stroke-width="0" fill="#b2f2bb"></path><path d="M35.02 0.4 C42.02 -1.01, 50.76 0.85, 57.12 4.78 C63.49 8.71, 70.06 16.79, 73.22 23.99 C76.38 31.2, 77.42 40.54, 76.09 48.02 C74.77 55.49, 70.72 63.85, 65.29 68.86 C59.85 73.88, 51.23 77.6, 43.47 78.11 C35.71 78.61, 25.41 75.85, 18.73 71.91 C12.04 67.97, 6.39 61.24, 3.35 54.47 C0.3 47.71, -1.26 38.61, 0.46 31.3 C2.17 23.99, 7.55 15.89, 13.65 10.6 C19.75 5.32, 32.91 1.37, 37.05 -0.4 C41.2 -2.17, 38.57 -0.67, 38.51 0 M47.94 1.85 C54.95 2.99, 62.53 8.08, 67.43 14.02 C72.32 19.95, 76.65 29.87, 77.33 37.44 C78 45.01, 75.55 53.1, 71.48 59.42 C67.4 65.75, 59.82 72.41, 52.88 75.39 C45.93 78.38, 37.43 79.07, 29.81 77.34 C22.19 75.6, 11.97 71.21, 7.14 64.99 C2.31 58.77, 1.18 47.67, 0.82 40.02 C0.46 32.37, 1.18 25.16, 5 19.1 C8.82 13.04, 16.58 6.76, 23.75 3.65 C30.92 0.53, 44.13 0.87, 48.02 0.39 C51.91 -0.08, 47.34 0.04, 47.09 0.81" stroke="#2f9e44" stroke-width="2" fill="none"></path></g><g transform="translate(356.7624253824688 522.958934679027) rotate(0 13.7548828125 20.69999999999999)"><text x="13.7548828125" y="0" font-family="Helvetica, Segoe UI Emoji" font-size="36px" fill="#2f9e44" text-anchor="middle" style="white-space: pre;" direction="ltr" dominant-baseline="text-before-edge">✓</text></g></svg>
