<svg width="144" height="144" viewBox="0 0 144 144" fill="none" xmlns="http://www.w3.org/2000/svg">
<path d="M88.2649 26.6608C89.9542 28.5616 87.6562 31.1764 85.2327 30.4061C81.0591 29.0795 76.6133 28.3637 72.0003 28.3637C47.9005 28.3637 28.3637 47.9002 28.3637 71.9996C28.3637 76.6122 29.0795 81.0577 30.4059 85.2311C31.1762 87.6546 28.5613 89.9524 26.6605 88.2632C17.6665 80.2701 12 68.6147 12 55.6358C12 31.5364 31.5367 12 55.6366 12C68.6159 12 80.2717 17.6666 88.2649 26.6608Z" fill="white"/>
<path d="M71.9997 115.636C96.0995 115.636 115.636 96.0998 115.636 72.0004C115.636 67.3878 114.921 62.9423 113.594 58.7689C112.824 56.3455 115.439 54.0476 117.34 55.7369C126.334 63.7299 132 75.3853 132 88.3642C132 112.464 112.463 132 88.3635 132C75.3841 132 63.7283 126.333 55.7351 117.339C54.0459 115.438 56.3438 112.824 58.7673 113.594C62.9409 114.92 67.3867 115.636 71.9997 115.636Z" fill="white"/>
</svg>
