<svg width="1300" height="552" viewBox="0 0 1300 552" fill="none" xmlns="http://www.w3.org/2000/svg">
<g clip-path="url(#clip0_417_3356)">
<mask id="mask0_417_3356" style="mask-type:alpha" maskUnits="userSpaceOnUse" x="-93" y="-839" width="1552" height="2314">
<path d="M-92.4819 38.7717L1458.57 934.272" stroke="#E5E5E5"/>
<path d="M-92.4819 -6.22827L1458.57 889.272" stroke="#E5E5E5"/>
<path d="M-92.4819 -51.2283L1458.57 844.272" stroke="#E5E5E5"/>
<path d="M-92.4819 -96.2283L1458.57 799.272" stroke="#E5E5E5"/>
<path d="M-92.4819 -141.228L1458.57 754.272" stroke="#E5E5E5"/>
<path d="M-92.4819 -186.228L1458.57 709.272" stroke="#E5E5E5"/>
<path d="M-92.4819 -231.228L1458.57 664.272" stroke="#E5E5E5"/>
<path d="M-92.4819 -276.228L1458.57 619.272" stroke="#E5E5E5"/>
<path d="M-92.4819 -321.228L1458.57 574.272" stroke="#E5E5E5"/>
<path d="M-92.4819 -366.228L1458.57 529.272" stroke="#E5E5E5"/>
<path d="M-92.4819 -411.228L1458.57 484.272" stroke="#E5E5E5"/>
<path d="M-92.4819 -456.228L1458.57 439.272" stroke="#E5E5E5"/>
<path d="M-92.4819 533.771L1458.57 1429.27" stroke="#E5E5E5"/>
<path d="M-92.4819 488.771L1458.57 1384.27" stroke="#E5E5E5"/>
<path d="M-92.4819 443.771L1458.57 1339.27" stroke="#E5E5E5"/>
<path d="M-92.4819 398.771L1458.57 1294.27" stroke="#E5E5E5"/>
<path d="M-92.4819 353.771L1458.57 1249.27" stroke="#E5E5E5"/>
<path d="M-92.4819 308.771L1458.57 1204.27" stroke="#E5E5E5"/>
<path d="M-92.4819 263.772L1458.57 1159.27" stroke="#E5E5E5"/>
<path d="M-92.4819 218.772L1458.57 1114.27" stroke="#E5E5E5"/>
<path d="M-92.4819 173.772L1458.57 1069.27" stroke="#E5E5E5"/>
<path d="M-92.4819 128.772L1458.57 1024.27" stroke="#E5E5E5"/>
<path d="M-92.4819 83.7717L1458.57 979.272" stroke="#E5E5E5"/>
<path d="M-92.4819 -501.228L1458.57 394.272" stroke="#E5E5E5"/>
<path d="M-92.4819 -546.228L1458.57 349.272" stroke="#E5E5E5"/>
<path d="M-92.4819 -591.228L1458.57 304.272" stroke="#E5E5E5"/>
<path d="M-92.4819 -636.228L1458.57 259.272" stroke="#E5E5E5"/>
<path d="M-92.4819 -681.228L1458.57 214.272" stroke="#E5E5E5"/>
<path d="M-92.4819 -726.228L1458.57 169.272" stroke="#E5E5E5"/>
<path d="M-92.4819 -771.228L1458.57 124.272" stroke="#E5E5E5"/>
<path d="M-92.4819 -816.228L1458.57 79.2717" stroke="#E5E5E5"/>
<path d="M1458.57 16.7717L-92.4811 912.272" stroke="#E5E5E5"/>
<path d="M1458.57 -28.2283L-92.4811 867.272" stroke="#E5E5E5"/>
<path d="M1458.57 -73.2283L-92.4811 822.272" stroke="#E5E5E5"/>
<path d="M1458.57 -118.228L-92.4811 777.272" stroke="#E5E5E5"/>
<path d="M1458.57 -163.228L-92.4811 732.272" stroke="#E5E5E5"/>
<path d="M1458.57 -208.228L-92.4811 687.272" stroke="#E5E5E5"/>
<path d="M1458.57 -253.228L-92.4811 642.272" stroke="#E5E5E5"/>
<path d="M1458.57 -298.228L-92.4811 597.272" stroke="#E5E5E5"/>
<path d="M1458.57 -343.228L-92.4811 552.272" stroke="#E5E5E5"/>
<path d="M1458.57 -388.228L-92.4811 507.272" stroke="#E5E5E5"/>
<path d="M1458.57 -433.228L-92.4811 462.272" stroke="#E5E5E5"/>
<path d="M1458.57 -478.228L-92.4811 417.272" stroke="#E5E5E5"/>
<path d="M1458.57 511.771L-92.4811 1407.27" stroke="#E5E5E5"/>
<path d="M1458.57 466.771L-92.4811 1362.27" stroke="#E5E5E5"/>
<path d="M1458.57 421.771L-92.4811 1317.27" stroke="#E5E5E5"/>
<path d="M1458.57 376.771L-92.4811 1272.27" stroke="#E5E5E5"/>
<path d="M1458.57 331.771L-92.4811 1227.27" stroke="#E5E5E5"/>
<path d="M1458.57 286.772L-92.4811 1182.27" stroke="#E5E5E5"/>
<path d="M1458.57 241.772L-92.4811 1137.27" stroke="#E5E5E5"/>
<path d="M1458.57 196.772L-92.4811 1092.27" stroke="#E5E5E5"/>
<path d="M1458.57 151.772L-92.4811 1047.27" stroke="#E5E5E5"/>
<path d="M1458.57 106.772L-92.4811 1002.27" stroke="#E5E5E5"/>
<path d="M1458.57 61.7717L-92.4811 957.272" stroke="#E5E5E5"/>
<path d="M1458.57 -523.228L-92.4811 372.272" stroke="#E5E5E5"/>
<path d="M1458.57 -568.228L-92.4811 327.272" stroke="#E5E5E5"/>
<path d="M1458.57 -613.228L-92.4811 282.272" stroke="#E5E5E5"/>
<path d="M1458.57 -658.228L-92.4811 237.272" stroke="#E5E5E5"/>
<path d="M1458.57 -703.228L-92.4811 192.272" stroke="#E5E5E5"/>
<path d="M1458.57 -748.228L-92.4811 147.272" stroke="#E5E5E5"/>
<path d="M1458.57 -793.228L-92.4811 102.272" stroke="#E5E5E5"/>
<path d="M1458.57 -838.228L-92.4811 57.2717" stroke="#E5E5E5"/>
</mask>
<g mask="url(#mask0_417_3356)">
<rect width="1300" height="700" fill="#D9D9D9"/>
<rect width="1300" height="552" fill="#D9D9D9"/>
</g>
</g>
<defs>
<clipPath id="clip0_417_3356">
<rect width="1300" height="552" fill="white"/>
</clipPath>
</defs>
</svg>
