<svg width="365" height="194" viewBox="0 0 365 194" fill="none" xmlns="http://www.w3.org/2000/svg">
<g clip-path="url(#clip0_371_1214)">
<g filter="url(#filter0_b_371_1214)">
<path fill-rule="evenodd" clip-rule="evenodd" d="M366.377 43.9571C365.583 42.3847 364.184 41.202 362.502 40.6796L245.567 4.37149C242.137 3.30654 238.494 5.22362 237.429 8.65343L220.162 64.2637C219.097 67.6935 221.014 71.3372 224.444 72.4022L341.378 108.71C343.061 109.233 344.883 109.05 346.429 108.204L381.967 88.7532C385.045 87.0689 386.231 83.2473 384.649 80.1162L366.377 43.9571ZM359.037 76.8988C358.234 79.4849 359.68 82.2324 362.266 83.0354C364.852 83.8384 367.6 82.3929 368.403 79.8067C369.206 77.2205 367.76 74.473 365.174 73.67C362.588 72.867 359.84 74.3126 359.037 76.8988Z" fill="#FFBE00" fill-opacity="0.85"/>
</g>
<path fill-rule="evenodd" clip-rule="evenodd" d="M365.652 44.3237C364.957 42.9479 363.733 41.913 362.261 41.4559L245.326 5.14777C242.325 4.21593 239.137 5.89339 238.205 8.89446L220.938 64.5047C220.006 67.5058 221.684 70.694 224.685 71.6259L341.619 107.934C343.092 108.391 344.686 108.231 346.038 107.491L381.577 88.0402C384.27 86.5664 385.308 83.2225 383.924 80.4828L365.652 44.3237ZM362.025 83.8117C359.01 82.8756 357.325 79.6726 358.261 76.6577C359.197 73.6428 362.4 71.9576 365.415 72.8938C368.43 73.8299 370.115 77.0328 369.179 80.0477C368.243 83.0626 365.04 84.7478 362.025 83.8117ZM362.502 40.6796C364.184 41.202 365.583 42.3847 366.377 43.9571L384.649 80.1162C386.231 83.2473 385.045 87.0689 381.967 88.7532L346.429 108.204C344.883 109.05 343.061 109.233 341.378 108.71L224.444 72.4022C221.014 71.3372 219.097 67.6935 220.162 64.2637L237.429 8.65343C238.494 5.22363 242.137 3.30654 245.567 4.37149L362.502 40.6796ZM362.266 83.0354C359.68 82.2324 358.234 79.4849 359.037 76.8988C359.84 74.3126 362.588 72.867 365.174 73.67C367.76 74.473 369.206 77.2205 368.403 79.8067C367.6 82.3929 364.852 83.8384 362.266 83.0354Z" fill="#C49200"/>
<path d="M312.921 64.4317C312.779 65.0535 312.818 65.5589 313.037 65.9482C313.26 66.3388 313.616 66.6098 314.104 66.7615C314.414 66.8577 314.727 66.9012 315.042 66.8919C315.356 66.8825 315.688 66.8271 316.036 66.7257L316.438 67.9051C316.025 68.0795 315.576 68.1774 315.09 68.1988C314.605 68.2158 314.11 68.1459 313.605 67.989C312.887 67.7662 312.322 67.4277 311.909 66.9736C311.5 66.5207 311.249 65.9866 311.156 65.3711C311.067 64.757 311.133 64.0975 311.351 63.3926C311.561 62.7174 311.875 62.1491 312.293 61.6876C312.716 61.2232 313.214 60.9098 313.786 60.7475C314.363 60.5823 314.977 60.6005 315.627 60.8023C316.238 60.9921 316.729 61.2935 317.099 61.7063C317.469 62.1191 317.697 62.6207 317.784 63.211C317.872 63.797 317.806 64.4425 317.588 65.1473C317.512 65.3894 317.433 65.609 317.348 65.8062L312.921 64.4317ZM315.265 61.989C314.845 61.8584 314.458 61.9037 314.106 62.1248C313.758 62.3429 313.469 62.7511 313.236 63.3494L316.077 64.2314C316.249 63.647 316.267 63.1615 316.131 62.7747C316 62.3893 315.711 62.1274 315.265 61.989Z" fill="white"/>
<path d="M306.779 63.5115C306.612 64.0508 306.847 64.4194 307.483 64.6171C307.806 64.7173 308.166 64.7521 308.561 64.7214L308.619 65.9964C308.009 66.1047 307.357 66.0514 306.665 65.8365C305.939 65.611 305.449 65.233 305.194 64.7025C304.94 64.1719 304.926 63.5414 305.153 62.8111L307.05 56.7028L305.031 56.0759L305.4 54.8848L309.101 56.0338L306.779 63.5115Z" fill="white"/>
<path d="M298.861 56.6381C299.18 56.4064 299.52 56.256 299.881 56.1866C300.242 56.1172 300.599 56.1373 300.952 56.2467C301.801 56.5104 302.333 57.0176 302.546 57.7684C302.766 58.5163 302.701 59.4507 302.353 60.5717C302.137 61.2681 301.841 61.8558 301.464 62.3347C301.088 62.8094 300.651 63.137 300.153 63.3174C299.656 63.4937 299.123 63.4935 298.554 63.3168C298.193 63.2047 297.888 63.0331 297.638 62.802C297.389 62.5709 297.205 62.2857 297.087 61.9464L296.811 62.566L295.32 62.1032L298.251 52.6637L299.988 53.0075L298.861 56.6381ZM298.51 61.9275C298.952 62.0646 299.348 61.9826 299.697 61.6815C300.052 61.3774 300.352 60.8325 300.596 60.047C300.85 59.2274 300.927 58.6064 300.825 58.1838C300.729 57.7582 300.477 57.4822 300.07 57.3556C299.573 57.2013 299.046 57.3613 298.489 57.8355L297.552 60.8546C297.711 61.4209 298.031 61.7785 298.51 61.9275Z" fill="white"/>
<path d="M293.61 59.626C293.533 59.8765 293.511 60.0746 293.545 60.2201C293.584 60.3628 293.682 60.4908 293.837 60.6043L293.124 61.619C292.762 61.4648 292.479 61.2766 292.273 61.0544C292.073 60.8293 291.95 60.5583 291.904 60.2414C291.564 60.4665 291.176 60.5975 290.741 60.6347C290.306 60.6718 289.87 60.6225 289.432 60.4867C288.982 60.3469 288.614 60.1372 288.329 59.8577C288.044 59.5738 287.86 59.2443 287.777 58.8692C287.693 58.494 287.716 58.0983 287.845 57.6822C287.993 57.2066 288.244 56.84 288.598 56.5823C288.953 56.3247 289.4 56.1839 289.938 56.1601C290.476 56.1363 291.089 56.2312 291.777 56.4448L292.719 56.7375L292.832 56.3745C292.953 55.9838 292.921 55.6596 292.736 55.4019C292.552 55.1399 292.224 54.9357 291.753 54.7894C291.524 54.7182 291.236 54.6637 290.889 54.6258C290.544 54.5838 290.19 54.5672 289.829 54.576L289.786 53.2986C290.245 53.2736 290.704 53.288 291.162 53.3418C291.624 53.3969 292.042 53.4825 292.416 53.5985C293.346 53.8873 293.983 54.3038 294.326 54.8479C294.67 55.3879 294.727 56.0294 294.496 56.7725L293.61 59.626ZM290.358 59.4402C290.621 59.5219 290.903 59.5302 291.202 59.4649C291.507 59.3967 291.774 59.2583 292.001 59.0497L292.409 57.7375L291.746 57.5319C291.135 57.342 290.657 57.3006 290.312 57.4076C289.968 57.5103 289.737 57.7506 289.62 58.1286C289.521 58.447 289.534 58.7189 289.66 58.9441C289.785 59.1693 290.018 59.3347 290.358 59.4402Z" fill="white"/>
<path d="M285.973 58.7886C285.656 58.8809 285.301 58.922 284.909 58.9119C284.52 58.903 284.126 58.8367 283.727 58.7127C283.188 58.5453 282.761 58.308 282.447 58.0009C282.137 57.6951 281.942 57.3391 281.864 56.9329C281.786 56.5224 281.822 56.0773 281.971 55.5975L283.027 52.1962L281.562 51.7413L281.932 50.5502L283.397 51.0051L283.858 49.521L285.603 49.8393L285.078 51.5272L287.308 52.2194L286.766 53.3571L284.709 52.7183L283.655 56.1132C283.545 56.4656 283.55 56.7489 283.67 56.963C283.791 57.1729 284.041 57.3365 284.418 57.4538C284.852 57.5883 285.289 57.6123 285.73 57.5258L285.973 58.7886Z" fill="white"/>
<path d="M272.393 54.9852L274.488 48.2399L275.953 48.6948L275.814 49.5668C276.209 49.3167 276.613 49.1628 277.026 49.105C277.441 49.043 277.857 49.0766 278.273 49.2058C278.876 49.393 279.283 49.7102 279.493 50.1572C279.708 50.6056 279.716 51.1483 279.518 51.7853L277.986 56.7216L276.304 56.1995L277.633 51.9192C277.744 51.5625 277.806 51.2793 277.82 51.0694C277.84 50.8567 277.804 50.6872 277.712 50.5611C277.627 50.4321 277.472 50.3327 277.246 50.2628C276.754 50.1099 276.192 50.2635 275.56 50.7238L274.075 55.5073L272.393 54.9852Z" fill="white"/>
<path d="M270.693 43.3322C270.897 43.3955 271.063 43.4961 271.193 43.634C271.323 43.7677 271.41 43.9249 271.451 44.1054C271.493 44.286 271.485 44.4697 271.427 44.6565C271.369 44.8434 271.272 44.9994 271.135 45.1245C270.998 45.2497 270.838 45.3325 270.653 45.3729C270.468 45.4133 270.274 45.4018 270.07 45.3385C269.866 45.2753 269.697 45.174 269.564 45.0347C269.434 44.8968 269.349 44.7375 269.307 44.5569C269.265 44.3764 269.273 44.1927 269.331 44.0059C269.389 43.819 269.487 43.663 269.623 43.5378C269.76 43.4127 269.92 43.332 270.104 43.2958C270.293 43.2568 270.489 43.2689 270.693 43.3322ZM267.134 45.9562L270.726 47.0716L269.001 52.6258L270.778 53.1776L270.409 54.3687L264.975 52.6817L265.345 51.4906L267.32 52.1037L268.675 47.7406L266.764 47.1473L267.134 45.9562Z" fill="white"/>
<path d="M260.931 49.2752C260.763 49.8145 260.998 50.183 261.635 50.3808C261.958 50.481 262.317 50.5158 262.713 50.4851L262.771 51.7601C262.16 51.8684 261.508 51.8151 260.816 51.6002C260.09 51.3747 259.6 50.9967 259.346 50.4661C259.091 49.9356 259.078 49.3051 259.304 48.5748L261.201 42.4665L259.182 41.8395L259.552 40.6484L263.252 41.7975L260.931 49.2752Z" fill="white"/>
<path d="M257.345 44.0277L256.332 43.7132L255.178 46.239L256.057 46.5119L255.701 47.6584L254.663 47.336L253.807 49.2143L252.406 48.7792L253.268 46.9029L251.835 46.4579L250.973 48.3342L249.572 47.8991L250.427 46.0209L249.58 45.7578L249.936 44.6113L250.936 44.9218L252.103 42.4L251.224 42.1271L251.582 40.9742L252.614 41.2946L253.46 39.4482L254.867 39.8852L254.002 41.7257L255.448 42.1747L256.307 40.3322L257.702 40.7653L256.843 42.6078L257.703 42.8748L257.345 44.0277ZM253.498 42.8331L252.337 45.3569L253.77 45.8019L254.938 43.2801L253.498 42.8331Z" fill="white"/>
<g filter="url(#filter1_b_371_1214)">
<path fill-rule="evenodd" clip-rule="evenodd" d="M349.02 47.244C347.546 46.2796 345.743 45.9546 344.025 46.3434L224.602 73.367C221.1 74.1596 218.903 77.6417 219.695 81.1445L232.547 137.938C233.339 141.441 236.821 143.638 240.324 142.845L359.747 115.821C361.465 115.433 362.952 114.363 363.867 112.858L384.919 78.2436C386.742 75.2463 385.859 71.3434 382.923 69.4229L349.02 47.244ZM359.134 79.4426C359.732 82.0838 362.358 83.7404 364.999 83.1427C367.64 82.5451 369.297 79.9195 368.699 77.2783C368.101 74.6371 365.476 72.9805 362.835 73.5781C360.193 74.1758 358.537 76.8014 359.134 79.4426Z" fill="#FF9201" fill-opacity="0.85"/>
</g>
<path fill-rule="evenodd" clip-rule="evenodd" d="M348.575 47.9242C347.285 47.0803 345.708 46.796 344.204 47.1362L224.782 74.1598C221.717 74.8533 219.794 77.9002 220.488 80.9651L233.339 137.758C234.033 140.823 237.08 142.746 240.145 142.052L359.567 115.029C361.071 114.688 362.372 113.753 363.173 112.436L384.225 77.8212C385.82 75.1986 385.047 71.7835 382.478 70.1031L348.575 47.9242ZM365.178 83.9355C362.099 84.6323 359.038 82.701 358.342 79.622C357.645 76.543 359.576 73.4821 362.655 72.7853C365.734 72.0886 368.795 74.0198 369.492 77.0989C370.189 80.1779 368.257 83.2388 365.178 83.9355ZM344.025 46.3434C345.743 45.9546 347.546 46.2796 349.02 47.244L382.923 69.4229C385.859 71.3434 386.742 75.2463 384.919 78.2436L363.867 112.858C362.952 114.363 361.465 115.433 359.747 115.821L240.324 142.845C236.821 143.638 233.339 141.441 232.547 137.938L219.695 81.1445C218.903 77.6417 221.1 74.1596 224.602 73.367L344.025 46.3434ZM364.999 83.1427C362.358 83.7404 359.732 82.0838 359.134 79.4426C358.537 76.8014 360.193 74.1758 362.835 73.5781C365.476 72.9805 368.101 74.6371 368.699 77.2783C369.297 79.9195 367.64 82.5451 364.999 83.1427Z" fill="#C16F01"/>
<path d="M312.689 94.1734C312.877 94.7828 313.163 95.2013 313.548 95.4289C313.936 95.6555 314.38 95.7123 314.879 95.5995C315.195 95.5279 315.488 95.4093 315.756 95.2438C316.024 95.0783 316.283 94.8646 316.534 94.6027L317.471 95.4231C317.201 95.7805 316.861 96.09 316.451 96.3515C316.039 96.6087 315.576 96.7957 315.06 96.9125C314.327 97.0783 313.668 97.0679 313.083 96.8811C312.503 96.6933 312.018 96.3561 311.63 95.8696C311.246 95.3821 310.973 94.7783 310.81 94.0585C310.654 93.3689 310.642 92.7198 310.773 92.1112C310.908 91.4972 311.182 90.977 311.596 90.5505C312.013 90.1187 312.554 89.8277 313.217 89.6776C313.842 89.5363 314.417 89.5519 314.944 89.7245C315.471 89.897 315.92 90.2172 316.29 90.685C316.659 91.1485 316.925 91.7402 317.088 92.46C317.144 92.7072 317.185 92.9374 317.21 93.1504L312.689 94.1734ZM313.498 90.8861C313.068 90.9832 312.756 91.2157 312.561 91.5834C312.37 91.9459 312.323 92.4442 312.421 93.0785L315.322 92.422C315.179 91.8299 314.952 91.4003 314.641 91.1334C314.334 90.8655 313.953 90.783 313.498 90.8861Z" fill="white"/>
<path d="M306.907 96.4486C307.032 96.9993 307.419 97.2011 308.07 97.0539C308.399 96.9793 308.728 96.8298 309.055 96.6052L309.743 97.6804C309.268 98.0797 308.677 98.3593 307.97 98.5192C307.229 98.687 306.615 98.6047 306.13 98.2724C305.644 97.9401 305.317 97.401 305.148 96.6551L303.737 90.4168L301.675 90.8834L301.399 89.667L305.179 88.8118L306.907 96.4486Z" fill="white"/>
<path d="M296.612 94.454C296.772 94.0941 296.991 93.7937 297.27 93.553C297.548 93.3122 297.867 93.1511 298.227 93.0697C299.094 92.8734 299.808 93.0469 300.369 93.5902C300.933 94.1281 301.344 94.9696 301.603 96.1144C301.764 96.8256 301.801 97.4828 301.714 98.086C301.627 98.6848 301.412 99.187 301.071 99.5925C300.728 99.9936 300.267 100.26 299.686 100.391C299.317 100.475 298.967 100.479 298.635 100.403C298.304 100.328 298.002 100.173 297.73 99.9381L297.801 100.613L296.278 100.957L294.097 91.3169L295.773 90.7462L296.612 94.454ZM298.953 99.21C299.404 99.1079 299.706 98.8391 299.858 98.4035C300.014 97.9626 300.001 97.341 299.819 96.5387C299.63 95.7018 299.385 95.1257 299.086 94.8105C298.79 94.4899 298.434 94.3768 298.018 94.471C297.51 94.5858 297.134 94.9878 296.889 95.6769L297.586 98.7603C298.008 99.171 298.463 99.3209 298.953 99.21Z" fill="white"/>
<path d="M293.559 99.6649C293.617 99.9207 293.697 100.103 293.8 100.212C293.905 100.316 294.054 100.378 294.245 100.399L294.135 101.634C293.744 101.681 293.405 101.66 293.115 101.571C292.829 101.476 292.587 101.303 292.389 101.051C292.207 101.416 291.937 101.723 291.579 101.973C291.221 102.223 290.818 102.398 290.371 102.499C289.912 102.603 289.488 102.606 289.101 102.506C288.713 102.403 288.389 102.209 288.129 101.926C287.869 101.643 287.691 101.289 287.594 100.864C287.485 100.378 287.519 99.9354 287.697 99.5349C287.875 99.1344 288.192 98.7893 288.646 98.4996C289.1 98.21 289.678 97.9857 290.381 97.8267L291.344 97.6088L291.26 97.238C291.169 96.8391 290.98 96.5743 290.69 96.4438C290.4 96.3089 290.014 96.2959 289.533 96.4048C289.298 96.4578 289.022 96.5546 288.703 96.6953C288.382 96.8315 288.068 96.9938 287.76 97.1821L287.083 96.0975C287.469 95.8462 287.873 95.6293 288.297 95.4468C288.725 95.2633 289.13 95.1284 289.511 95.042C290.461 94.8271 291.221 94.8695 291.79 95.1692C292.358 95.4646 292.728 95.9917 292.9 96.7506L293.559 99.6649ZM290.65 101.13C290.919 101.069 291.166 100.936 291.393 100.729C291.623 100.518 291.785 100.265 291.878 99.9701L291.575 98.6301L290.898 98.7832C290.274 98.9245 289.839 99.1278 289.593 99.393C289.347 99.6539 289.267 99.9773 289.355 100.363C289.428 100.689 289.576 100.917 289.797 101.05C290.019 101.182 290.303 101.209 290.65 101.13Z" fill="white"/>
<path d="M286.531 102.761C286.302 102.999 286.015 103.212 285.67 103.4C285.329 103.586 284.955 103.726 284.548 103.818C283.997 103.943 283.509 103.95 283.083 103.842C282.661 103.732 282.315 103.521 282.044 103.208C281.771 102.892 281.58 102.488 281.469 101.998L280.683 98.5245L279.187 98.8631L278.912 97.6467L280.408 97.3081L280.065 95.7925L281.735 95.1957L282.125 96.9195L284.402 96.4043L284.501 97.6605L282.4 98.1359L283.185 101.603C283.266 101.963 283.412 102.206 283.623 102.331C283.833 102.453 284.131 102.469 284.517 102.382C284.959 102.282 285.35 102.084 285.689 101.789L286.531 102.761Z" fill="white"/>
<path d="M275.245 104.589C275.657 104.496 275.967 104.353 276.174 104.16C276.384 103.962 276.46 103.735 276.403 103.479C276.362 103.301 276.288 103.165 276.18 103.071C276.072 102.977 275.89 102.907 275.633 102.86C275.38 102.808 275.005 102.772 274.508 102.752C274.003 102.739 273.572 102.686 273.214 102.594C272.855 102.497 272.556 102.337 272.319 102.112C272.08 101.884 271.917 101.574 271.828 101.184C271.738 100.785 271.771 100.406 271.927 100.047C272.087 99.6873 272.362 99.3742 272.753 99.1079C273.148 98.8363 273.64 98.6338 274.23 98.5003C275.279 98.2628 276.235 98.3291 277.099 98.699L276.633 99.9053C275.914 99.6486 275.221 99.5958 274.553 99.7469C273.781 99.9216 273.445 100.23 273.545 100.672C273.579 100.824 273.653 100.94 273.767 101.019C273.885 101.097 274.069 101.156 274.32 101.195C274.574 101.233 274.958 101.265 275.47 101.29C275.995 101.317 276.433 101.377 276.782 101.472C277.136 101.565 277.431 101.728 277.666 101.962C277.906 102.195 278.074 102.524 278.17 102.949C278.278 103.426 278.227 103.864 278.016 104.263C277.809 104.656 277.487 104.989 277.052 105.26C276.615 105.528 276.111 105.726 275.539 105.856C274.914 105.997 274.337 106.034 273.806 105.967C273.276 105.901 272.798 105.751 272.372 105.519L273.036 104.316C273.369 104.478 273.724 104.587 274.102 104.643C274.478 104.694 274.859 104.676 275.245 104.589Z" fill="white"/>
<path d="M265.865 104.77C266.053 105.379 266.339 105.798 266.724 106.026C267.112 106.252 267.556 106.309 268.055 106.196C268.371 106.125 268.663 106.006 268.931 105.84C269.199 105.675 269.459 105.461 269.709 105.199L270.647 106.02C270.377 106.377 270.037 106.687 269.627 106.948C269.215 107.205 268.751 107.392 268.235 107.509C267.503 107.675 266.844 107.665 266.259 107.478C265.679 107.29 265.194 106.953 264.806 106.466C264.422 105.979 264.149 105.375 263.986 104.655C263.83 103.966 263.818 103.317 263.949 102.708C264.083 102.094 264.358 101.574 264.772 101.147C265.189 100.715 265.73 100.424 266.393 100.274C267.018 100.133 267.593 100.149 268.12 100.321C268.647 100.494 269.095 100.814 269.466 101.282C269.835 101.745 270.101 102.337 270.264 103.057C270.32 103.304 270.361 103.534 270.386 103.747L265.865 104.77ZM266.673 101.483C266.244 101.58 265.932 101.812 265.737 102.18C265.546 102.543 265.499 103.041 265.597 103.675L268.498 103.019C268.355 102.427 268.128 101.997 267.817 101.73C267.51 101.462 267.129 101.38 266.673 101.483Z" fill="white"/>
<path d="M263.117 108.059C262.888 108.298 262.601 108.511 262.256 108.699C261.915 108.885 261.541 109.025 261.134 109.117C260.583 109.241 260.095 109.249 259.669 109.141C259.247 109.031 258.901 108.82 258.63 108.507C258.357 108.19 258.166 107.787 258.055 107.297L257.269 103.823L255.773 104.162L255.497 102.945L256.994 102.607L256.651 101.091L258.321 100.495L258.711 102.218L260.988 101.703L261.087 102.959L258.986 103.435L259.771 106.902C259.852 107.262 259.998 107.505 260.209 107.63C260.419 107.751 260.717 107.768 261.103 107.681C261.545 107.581 261.936 107.383 262.274 107.088L263.117 108.059Z" fill="white"/>
<path d="M254.356 104.289L253.321 104.523L253.585 107.288L254.482 107.085L254.747 108.256L253.687 108.496L253.885 110.55L252.454 110.874L252.262 108.818L250.799 109.149L250.99 111.205L249.559 111.529L249.361 109.474L248.496 109.67L248.231 108.499L249.252 108.268L249.002 105.501L248.104 105.704L247.838 104.526L248.892 104.288L248.701 102.266L250.139 101.941L250.31 103.967L251.787 103.633L251.609 101.608L253.033 101.286L253.211 103.311L254.089 103.112L254.356 104.289ZM250.427 105.178L250.683 107.944L252.147 107.613L251.897 104.846L250.427 105.178Z" fill="white"/>
<g filter="url(#filter2_b_371_1214)">
<path fill-rule="evenodd" clip-rule="evenodd" d="M335.338 58.9235C333.579 58.8254 331.856 59.4452 330.562 60.6411L240.651 143.756C238.014 146.193 237.852 150.307 240.29 152.945L279.816 195.703C282.254 198.341 286.368 198.502 289.005 196.064L378.917 112.95C380.21 111.754 380.963 110.084 381.004 108.323L381.928 67.8203C382.008 64.3131 379.291 61.3747 375.789 61.1794L335.338 58.9235ZM360.197 81.7514C362.035 83.7399 365.138 83.8617 367.126 82.0235C369.115 80.1853 369.236 77.0832 367.398 75.0947C365.56 73.1062 362.458 72.9843 360.469 74.8225C358.481 76.6607 358.359 79.7628 360.197 81.7514Z" fill="#FF6600" fill-opacity="0.85"/>
</g>
<path fill-rule="evenodd" clip-rule="evenodd" d="M335.293 59.7351C333.754 59.6493 332.246 60.1916 331.114 61.238L241.203 144.352C238.895 146.485 238.754 150.085 240.887 152.393L280.413 195.152C282.546 197.459 286.146 197.601 288.454 195.467L378.365 112.353C379.497 111.307 380.156 109.846 380.191 108.305L381.115 67.8018C381.185 64.733 378.808 62.1619 375.743 61.991L335.293 59.7351ZM367.678 82.6204C365.36 84.7633 361.743 84.6213 359.6 82.3031C357.457 79.985 357.6 76.3685 359.918 74.2256C362.236 72.0827 365.852 72.2248 367.995 74.5429C370.138 76.8611 369.996 80.4775 367.678 82.6204ZM330.562 60.6411C331.856 59.4452 333.579 58.8254 335.338 58.9235L375.789 61.1794C379.291 61.3747 382.008 64.3131 381.928 67.8203L381.004 108.323C380.963 110.084 380.21 111.754 378.917 112.95L289.005 196.064C286.368 198.502 282.254 198.341 279.816 195.703L240.29 152.945C237.852 150.307 238.014 146.193 240.651 143.756L330.562 60.6411ZM367.126 82.0235C365.138 83.8617 362.035 83.7399 360.197 81.7514C358.359 79.7628 358.481 76.6607 360.469 74.8225C362.458 72.9843 365.56 73.1062 367.398 75.0947C369.236 77.0832 369.115 80.1853 367.126 82.0235Z" fill="#C8570C"/>
<path d="M333.234 109.537C333.702 109.971 334.159 110.19 334.606 110.195C335.055 110.197 335.468 110.025 335.844 109.678C336.082 109.457 336.276 109.208 336.425 108.931C336.574 108.654 336.692 108.339 336.778 107.987L338.001 108.228C337.946 108.673 337.806 109.111 337.581 109.543C337.353 109.971 337.045 110.365 336.657 110.724C336.105 111.234 335.529 111.555 334.929 111.685C334.333 111.813 333.745 111.763 333.165 111.536C332.589 111.305 332.051 110.919 331.55 110.377C331.07 109.858 330.734 109.302 330.544 108.71C330.353 108.111 330.331 107.523 330.476 106.947C330.622 106.364 330.944 105.842 331.444 105.38C331.914 104.945 332.42 104.671 332.963 104.557C333.505 104.443 334.054 104.496 334.608 104.716C335.16 104.933 335.686 105.312 336.187 105.854C336.359 106.04 336.51 106.219 336.638 106.391L333.234 109.537ZM332.291 106.286C331.968 106.585 331.813 106.942 331.829 107.358C331.844 107.768 332.053 108.223 332.455 108.723L334.639 106.704C334.219 106.263 333.807 106.004 333.404 105.929C333.005 105.85 332.634 105.969 332.291 106.286Z" fill="white"/>
<path d="M329.366 114.396C329.749 114.81 330.185 114.791 330.675 114.339C330.923 114.109 331.133 113.815 331.304 113.457L332.438 114.044C332.226 114.628 331.854 115.165 331.322 115.657C330.763 116.173 330.191 116.409 329.604 116.364C329.018 116.319 328.465 116.015 327.946 115.454L323.604 110.757L322.052 112.192L321.205 111.276L324.051 108.646L329.366 114.396Z" fill="white"/>
<path d="M319.454 117.818C319.412 117.426 319.452 117.057 319.573 116.709C319.693 116.361 319.889 116.062 320.16 115.812C320.813 115.208 321.518 115.001 322.275 115.191C323.033 115.375 323.81 115.898 324.606 116.76C325.101 117.296 325.462 117.846 325.688 118.412C325.912 118.975 325.977 119.517 325.884 120.039C325.788 120.557 325.522 121.019 325.084 121.423C324.807 121.68 324.505 121.858 324.18 121.959C323.856 122.059 323.517 122.076 323.164 122.009L323.562 122.557L322.416 123.617L315.707 116.359L316.873 115.026L319.454 117.818ZM323.859 120.766C324.199 120.452 324.325 120.069 324.239 119.615C324.154 119.156 323.832 118.624 323.273 118.02C322.691 117.39 322.191 117.013 321.774 116.89C321.358 116.76 320.993 116.84 320.679 117.13C320.297 117.483 320.172 118.019 320.305 118.739L322.451 121.06C323.021 121.205 323.49 121.107 323.859 120.766Z" fill="white"/>
<path d="M319.416 123.858C319.594 124.05 319.754 124.168 319.897 124.212C320.041 124.249 320.2 124.228 320.377 124.15L320.899 125.275C320.584 125.511 320.279 125.663 319.984 125.73C319.689 125.791 319.393 125.762 319.096 125.643C319.12 126.05 319.04 126.451 318.855 126.847C318.669 127.242 318.408 127.595 318.072 127.906C317.726 128.226 317.361 128.44 316.976 128.547C316.588 128.652 316.21 128.646 315.844 128.531C315.477 128.416 315.145 128.199 314.85 127.879C314.512 127.513 314.32 127.112 314.274 126.676C314.228 126.24 314.329 125.783 314.578 125.305C314.826 124.827 315.215 124.344 315.744 123.855L316.469 123.185L316.211 122.906C315.933 122.605 315.636 122.471 315.32 122.503C315.002 122.531 314.661 122.713 314.298 123.048C314.122 123.211 313.931 123.433 313.725 123.714C313.516 123.992 313.325 124.29 313.152 124.607L312.024 124.006C312.232 123.596 312.474 123.206 312.749 122.836C313.028 122.463 313.311 122.144 313.599 121.878C314.314 121.217 314.993 120.874 315.636 120.849C316.275 120.821 316.859 121.092 317.388 121.664L319.416 123.858ZM317.629 126.581C317.831 126.394 317.979 126.155 318.072 125.863C318.166 125.564 318.179 125.264 318.112 124.963L317.18 123.954L316.67 124.425C316.2 124.859 315.925 125.253 315.845 125.605C315.762 125.954 315.855 126.274 316.124 126.565C316.35 126.81 316.592 126.934 316.85 126.938C317.108 126.942 317.367 126.823 317.629 126.581Z" fill="white"/>
<path d="M306.835 124.304L308.255 123.246L314.964 130.504L313.818 131.564L313.174 131.024C313.224 131.419 313.189 131.797 313.068 132.157C312.95 132.515 312.738 132.835 312.431 133.119C311.794 133.707 311.086 133.908 310.307 133.72C309.531 133.529 308.749 133.007 307.961 132.155C307.473 131.626 307.12 131.08 306.903 130.518C306.686 129.95 306.625 129.406 306.721 128.887C306.814 128.366 307.069 127.912 307.487 127.525C307.99 127.06 308.57 126.849 309.225 126.89L306.835 124.304ZM308.727 128.169C308.391 128.48 308.265 128.865 308.351 129.324C308.437 129.784 308.757 130.314 309.313 130.915C309.892 131.542 310.392 131.918 310.812 132.045C311.235 132.169 311.601 132.087 311.912 131.8C312.294 131.447 312.418 130.914 312.286 130.201L310.104 127.84C309.538 127.733 309.08 127.843 308.727 128.169Z" fill="white"/>
<path d="M305.863 136.121C306.246 136.536 306.682 136.517 307.172 136.064C307.42 135.835 307.63 135.541 307.801 135.183L308.935 135.77C308.723 136.353 308.351 136.891 307.819 137.383C307.261 137.899 306.688 138.134 306.101 138.089C305.515 138.044 304.962 137.741 304.443 137.179L300.101 132.483L298.549 133.918L297.702 133.002L300.548 130.372L305.863 136.121Z" fill="white"/>
<path d="M293.847 135.558C294.003 135.413 294.174 135.319 294.358 135.276C294.539 135.23 294.718 135.234 294.896 135.288C295.073 135.342 295.228 135.441 295.361 135.585C295.493 135.728 295.58 135.891 295.62 136.072C295.66 136.253 295.651 136.433 295.594 136.613C295.537 136.794 295.43 136.956 295.273 137.101C295.116 137.246 294.944 137.341 294.757 137.388C294.572 137.431 294.392 137.425 294.214 137.371C294.037 137.317 293.882 137.218 293.749 137.074C293.617 136.931 293.53 136.768 293.49 136.587C293.45 136.406 293.46 136.227 293.521 136.051C293.581 135.867 293.69 135.703 293.847 135.558ZM294.34 139.953L297.102 137.399L301.05 141.67L302.416 140.407L303.262 141.323L299.085 145.184L298.238 144.269L299.757 142.865L296.655 139.51L295.186 140.869L294.34 139.953Z" fill="white"/>
<path d="M292.859 147.986C293.113 148.261 293.348 148.407 293.564 148.425C293.78 148.443 293.998 148.351 294.217 148.148C294.416 147.964 294.556 147.723 294.637 147.424C294.721 147.122 294.735 146.819 294.677 146.515L291.25 142.807L292.543 141.612L297.338 146.798L296.211 147.84L295.554 147.266C295.604 147.687 295.548 148.098 295.387 148.501C295.224 148.901 294.982 149.248 294.662 149.544C294.169 150 293.669 150.205 293.161 150.16C292.656 150.112 292.173 149.838 291.711 149.338L288.243 145.587L289.536 144.392L292.859 147.986Z" fill="white"/>
<path d="M284.201 150.406C284.159 150.014 284.199 149.644 284.32 149.297C284.44 148.949 284.636 148.65 284.907 148.4C285.56 147.796 286.265 147.589 287.022 147.779C287.78 147.963 288.557 148.486 289.354 149.348C289.849 149.884 290.209 150.434 290.436 151C290.659 151.563 290.724 152.105 290.631 152.627C290.535 153.145 290.269 153.607 289.831 154.011C289.554 154.268 289.252 154.446 288.927 154.547C288.603 154.647 288.264 154.664 287.911 154.596L288.309 155.145L287.163 156.205L280.454 148.947L281.62 147.614L284.201 150.406ZM288.606 153.354C288.946 153.04 289.073 152.657 288.987 152.203C288.901 151.744 288.579 151.212 288.02 150.608C287.438 149.978 286.938 149.601 286.521 149.478C286.105 149.348 285.74 149.428 285.426 149.718C285.044 150.071 284.92 150.607 285.052 151.327L287.198 153.648C287.768 153.793 288.237 153.695 288.606 153.354Z" fill="white"/>
<path d="M281.899 152.898L281.12 153.617L282.731 155.88L283.406 155.255L284.221 156.137L283.423 156.875L284.622 158.555L283.544 159.551L282.351 157.866L281.249 158.885L282.443 160.569L281.365 161.565L280.166 159.885L279.515 160.487L278.7 159.606L279.469 158.895L277.868 156.623L277.193 157.248L276.373 156.362L277.167 155.628L275.99 153.973L277.073 152.972L278.234 154.641L279.346 153.614L278.18 151.949L279.252 150.958L280.419 152.622L281.08 152.011L281.899 152.898ZM278.941 155.632L280.546 157.899L281.648 156.881L280.048 154.609L278.941 155.632Z" fill="white"/>
<g filter="url(#filter3_b_371_1214)">
<path fill-rule="evenodd" clip-rule="evenodd" d="M50.8476 105.028C52.5797 104.449 54.473 104.597 56.094 105.438L164.48 161.721C167.785 163.437 169.073 167.507 167.357 170.811L140.736 222.076C139.02 225.381 134.95 226.669 131.645 224.953L23.259 168.671C21.638 167.829 20.4278 166.365 19.9055 164.615L8.41298 126.103C7.3729 122.617 9.28493 118.935 12.7342 117.781L50.8476 105.028ZM32.9903 133.583C31.742 135.987 28.7815 136.924 26.3778 135.675C23.974 134.427 23.0373 131.467 24.2855 129.063C25.5337 126.659 28.4942 125.722 30.898 126.971C33.3017 128.219 34.2385 131.179 32.9903 133.583Z" fill="#829995" fill-opacity="0.85"/>
</g>
<path fill-rule="evenodd" clip-rule="evenodd" d="M51.116 105.828C52.6317 105.321 54.2882 105.45 55.7066 106.187L164.093 162.469C166.984 163.971 168.111 167.532 166.61 170.423L139.989 221.689C138.487 224.58 134.926 225.707 132.035 224.205L23.6484 167.923C22.23 167.187 21.1711 165.906 20.7141 164.374L9.22157 125.862C8.31151 122.813 9.98453 119.591 13.0026 118.581L51.116 105.828ZM25.9904 136.424C28.8072 137.886 32.2765 136.789 33.7392 133.972C35.2019 131.155 34.1042 127.686 31.2874 126.223C28.4705 124.76 25.0013 125.858 23.5386 128.675C22.0758 131.492 23.1736 134.961 25.9904 136.424ZM56.095 105.439C54.474 104.597 52.5808 104.449 50.8486 105.029L12.7352 117.782C9.28595 118.936 7.37392 122.618 8.414 126.103L19.9065 164.615C20.4289 166.366 21.639 167.829 23.26 168.671L131.646 224.953C134.951 226.669 139.021 225.382 140.737 222.077L167.358 170.812C169.074 167.507 167.786 163.437 164.481 161.721L56.095 105.439ZM26.3788 135.676C28.7826 136.924 31.7431 135.987 32.9913 133.583C34.2395 131.18 33.3027 128.219 30.899 126.971C28.4952 125.723 25.5347 126.66 24.2865 129.063C23.0383 131.467 23.975 134.428 26.3788 135.676Z" fill="#576563"/>
<path d="M89.9474 158.279L88.9343 157.753L87.2302 160.209L88.1095 160.666L87.514 161.813L86.4754 161.273L85.2112 163.1L83.8094 162.373L85.08 160.549L83.6463 159.804L82.3758 161.628L80.974 160.9L82.2382 159.073L81.3907 158.633L81.9862 157.486L82.9866 158.006L84.7034 155.556L83.8241 155.1L84.423 153.946L85.4552 154.482L86.7028 152.687L88.111 153.418L86.8442 155.204L88.2906 155.955L89.551 154.166L90.9464 154.89L89.686 156.679L90.5462 157.126L89.9474 158.279ZM86.0989 156.281L84.3884 158.734L85.822 159.478L87.5389 157.028L86.0989 156.281ZM92.5145 165.42C92.7949 165.566 93.089 165.654 93.3968 165.684C93.7088 165.717 94.0472 165.709 94.4119 165.661L94.6173 167.135C94.1747 167.24 93.7003 167.26 93.1939 167.197C92.6897 167.129 92.2061 166.975 91.7431 166.735C91.0464 166.373 90.5193 165.913 90.1618 165.356C89.8085 164.8 89.6337 164.186 89.6376 163.514C89.6457 162.844 89.8317 162.159 90.1956 161.458C90.5573 160.761 91.0153 160.211 91.5695 159.809C92.1301 159.404 92.7468 159.183 93.4196 159.144C94.0946 159.1 94.7783 159.258 95.4707 159.618C95.9507 159.867 96.3508 160.161 96.671 160.5C96.9955 160.841 97.2517 161.236 97.4397 161.684L96.1582 162.329C95.821 161.701 95.3805 161.246 94.8368 160.963C94.3143 160.692 93.8053 160.665 93.3096 160.882C92.8181 161.102 92.3706 161.6 91.9669 162.377C91.5721 163.138 91.4341 163.767 91.5528 164.266C91.6757 164.766 91.9963 165.151 92.5145 165.42ZM102.567 163.303C103.23 163.647 103.721 164.088 104.04 164.626C104.361 165.159 104.504 165.757 104.469 166.418C104.439 167.077 104.238 167.765 103.865 168.483C103.486 169.213 103.033 169.784 102.507 170.196C101.982 170.603 101.406 170.83 100.778 170.876C100.157 170.92 99.5169 170.771 98.8584 170.429C98.1958 170.085 97.7026 169.649 97.3788 169.119C97.0551 168.59 96.909 167.993 96.9406 167.33C96.9721 166.667 97.1797 165.966 97.5635 165.227C97.9297 164.522 98.3749 163.965 98.8992 163.558C99.4299 163.149 100.008 162.918 100.634 162.865C101.264 162.815 101.909 162.961 102.567 163.303ZM101.909 164.571C101.433 164.324 100.983 164.327 100.56 164.582C100.138 164.833 99.7238 165.351 99.3158 166.137C98.9033 166.931 98.7158 167.572 98.7533 168.061C98.7908 168.55 99.0453 168.917 99.5168 169.161C99.9883 169.406 100.435 169.403 100.856 169.153C101.279 168.898 101.699 168.372 102.113 167.573C102.517 166.796 102.7 166.163 102.662 165.674C102.627 165.181 102.376 164.813 101.909 164.571ZM103.805 172.755L107.308 166.007L108.774 166.768L108.462 167.666C108.927 167.476 109.384 167.39 109.833 167.407C110.285 167.421 110.719 167.535 111.135 167.752C111.738 168.065 112.109 168.478 112.246 168.992C112.388 169.508 112.294 170.084 111.963 170.722L109.399 175.66L107.717 174.786L109.94 170.505C110.126 170.148 110.246 169.859 110.3 169.64C110.361 169.418 110.356 169.232 110.283 169.081C110.217 168.928 110.071 168.793 109.846 168.676C109.353 168.42 108.729 168.476 107.972 168.843L105.487 173.628L103.805 172.755ZM120.631 169.276C121.43 169.691 122.076 170.197 122.57 170.793L121.497 171.676C121.152 171.27 120.716 170.93 120.189 170.657C119.764 170.436 119.412 170.356 119.133 170.416C118.86 170.474 118.634 170.677 118.453 171.025L117.9 172.089L120.13 173.247L119.32 174.356L117.275 173.294L114.635 178.378L112.959 177.508L115.599 172.424L114.115 171.653L114.74 170.448L116.225 171.219L116.797 170.117C117.022 169.684 117.328 169.354 117.714 169.129C118.107 168.902 118.554 168.799 119.055 168.822C119.558 168.84 120.083 168.992 120.631 169.276ZM126.962 172.362C127.166 172.468 127.324 172.606 127.435 172.777C127.548 172.943 127.609 173.126 127.619 173.325C127.629 173.525 127.585 173.718 127.488 173.905C127.389 174.096 127.255 174.245 127.086 174.351C126.918 174.458 126.732 174.515 126.528 174.523C126.327 174.526 126.124 174.475 125.92 174.369C125.716 174.263 125.556 174.126 125.439 173.957C125.328 173.786 125.267 173.601 125.258 173.402C125.248 173.203 125.292 173.007 125.392 172.816C125.489 172.629 125.622 172.483 125.79 172.376C125.959 172.269 126.144 172.214 126.345 172.211C126.553 172.206 126.759 172.256 126.962 172.362ZM122.645 174.553L126.239 176.419L123.592 181.517L125.37 182.44L124.751 183.631L119.316 180.809L119.935 179.618L121.91 180.643L123.932 176.75L122.02 175.758L122.645 174.553ZM136.29 181.517C135.998 181.478 135.684 181.396 135.35 181.271C135.018 181.142 134.638 180.966 134.209 180.743C134.539 181.147 134.735 181.542 134.797 181.931C134.862 182.315 134.789 182.711 134.577 183.119C134.35 183.556 134.033 183.891 133.627 184.122C133.228 184.352 132.769 184.456 132.251 184.435C131.74 184.412 131.206 184.257 130.65 183.968C130.331 183.802 130.061 183.621 129.839 183.425C129.734 183.43 129.633 183.464 129.536 183.527C129.443 183.592 129.372 183.671 129.323 183.764C129.248 183.909 129.244 184.052 129.31 184.194C129.383 184.335 129.572 184.484 129.878 184.643L131.025 185.238C131.514 185.492 131.904 185.8 132.196 186.162C132.492 186.526 132.668 186.909 132.724 187.31C132.787 187.709 132.724 188.089 132.537 188.45C132.301 188.905 131.965 189.224 131.53 189.408C131.097 189.598 130.577 189.644 129.97 189.545C129.364 189.445 128.687 189.202 127.939 188.814C127.145 188.401 126.56 187.995 126.185 187.595C125.815 187.198 125.616 186.796 125.59 186.389C125.562 185.986 125.671 185.548 125.915 185.077L127.413 185.854C127.292 186.088 127.241 186.294 127.262 186.472C127.285 186.656 127.399 186.842 127.604 187.029C127.806 187.221 128.131 187.432 128.577 187.664C129.218 187.997 129.712 188.157 130.059 188.143C130.404 188.133 130.651 187.984 130.801 187.695C130.927 187.453 130.921 187.21 130.784 186.966C130.65 186.724 130.399 186.507 130.029 186.315L128.914 185.736C128.477 185.509 128.142 185.26 127.911 184.989C127.684 184.72 127.552 184.449 127.516 184.177C127.479 183.904 127.524 183.647 127.649 183.405C127.775 183.163 127.958 182.966 128.198 182.816C128.442 182.668 128.725 182.58 129.046 182.553C128.747 182.122 128.583 181.705 128.555 181.302C128.529 180.895 128.631 180.471 128.86 180.029C129.109 179.549 129.452 179.19 129.888 178.953C130.324 178.716 130.813 178.611 131.354 178.638C131.899 178.668 132.455 178.829 133.02 179.123C133.51 179.383 133.955 179.576 134.353 179.702C134.756 179.83 135.116 179.909 135.435 179.94C135.757 179.973 136.13 179.988 136.551 179.986L136.29 181.517ZM132.469 180.261C132.078 180.058 131.715 180.015 131.379 180.132C131.048 180.251 130.779 180.508 130.574 180.903C130.365 181.307 130.308 181.681 130.403 182.027C130.501 182.369 130.745 182.642 131.136 182.845C131.518 183.043 131.869 183.083 132.19 182.964C132.513 182.84 132.785 182.566 133.006 182.141C133.442 181.3 133.263 180.673 132.469 180.261Z" fill="white"/>
<g filter="url(#filter4_b_371_1214)">
<path fill-rule="evenodd" clip-rule="evenodd" d="M39.118 77.1905C40.3882 75.8778 42.1366 75.1367 43.9632 75.1367L166.091 75.1367C169.815 75.1367 172.833 78.1552 172.833 81.8788L172.833 139.644C172.833 143.367 169.815 146.386 166.091 146.386L43.9632 146.386C42.1366 146.386 40.3882 145.645 39.118 144.332L11.1704 115.45C8.64112 112.836 8.64113 108.687 11.1704 106.073L39.118 77.1905ZM36.4288 110.762C36.4288 113.47 34.2331 115.666 31.5246 115.666C28.816 115.666 26.6204 113.47 26.6204 110.762C26.6204 108.053 28.816 105.857 31.5246 105.857C34.2331 105.857 36.4288 108.053 36.4288 110.762Z" fill="#496767" fill-opacity="0.85"/>
</g>
<path fill-rule="evenodd" clip-rule="evenodd" d="M39.7237 77.7765C40.8351 76.628 42.3649 75.9795 43.9632 75.9795L166.091 75.9795C169.349 75.9795 171.991 78.6207 171.991 81.8788L171.991 139.644C171.991 142.902 169.349 145.543 166.091 145.543L43.9632 145.543C42.3649 145.543 40.8351 144.895 39.7237 143.746L11.776 114.864C9.56293 112.576 9.56293 108.946 11.776 106.659L39.7237 77.7765ZM31.5246 116.509C34.6985 116.509 37.2716 113.936 37.2716 110.762C37.2716 107.588 34.6985 105.015 31.5246 105.015C28.3506 105.015 25.7776 107.588 25.7776 110.762C25.7776 113.936 28.3506 116.509 31.5246 116.509ZM43.9632 75.1367C42.1366 75.1367 40.3882 75.8778 39.118 77.1905L11.1704 106.073C8.64113 108.687 8.64112 112.836 11.1704 115.45L39.118 144.332C40.3882 145.645 42.1366 146.386 43.9632 146.386L166.091 146.386C169.815 146.386 172.833 143.367 172.833 139.644L172.833 81.8788C172.833 78.1552 169.815 75.1367 166.091 75.1367L43.9632 75.1367ZM31.5246 115.666C34.2331 115.666 36.4288 113.47 36.4288 110.762C36.4288 108.053 34.2331 105.857 31.5246 105.857C28.816 105.857 26.6204 108.053 26.6204 110.762C26.6204 113.47 28.816 115.666 31.5246 115.666Z" fill="#2E4242"/>
<path d="M63.7269 106.826H62.5853L62.2048 109.791H63.1956V111.083H62.0253L61.7453 113.287H60.1658L60.453 111.083H58.8376L58.5505 113.287H56.971L57.251 111.083H56.2961V109.791H57.4233L57.8181 106.826H56.8274V105.526H57.9905L58.2705 103.358H59.8571L59.5556 105.526H61.1853L61.4797 103.358H63.052L62.7576 105.526H63.7269V106.826ZM59.3905 106.826L59.0028 109.791H60.6181L61.013 106.826H59.3905ZM69.296 111.98C69.6119 111.98 69.9135 111.923 70.2007 111.808C70.4926 111.693 70.7894 111.531 71.0909 111.32L71.9525 112.533C71.6078 112.83 71.1962 113.067 70.7176 113.244C70.2389 113.416 69.7388 113.502 69.2171 113.502C68.4321 113.502 67.7525 113.337 67.1781 113.007C66.6085 112.677 66.1706 112.213 65.8642 111.614C65.5627 111.016 65.4119 110.322 65.4119 109.532C65.4119 108.747 65.5651 108.048 65.8714 107.436C66.1825 106.818 66.6277 106.337 67.2068 105.993C67.786 105.643 68.4656 105.469 69.2458 105.469C69.7866 105.469 70.2772 105.545 70.7176 105.698C71.1627 105.852 71.5719 106.084 71.9453 106.395L71.1053 107.558C70.5166 107.156 69.9159 106.955 69.3032 106.955C68.7145 106.955 68.2502 107.165 67.9104 107.587C67.5754 108.008 67.4078 108.656 67.4078 109.532C67.4078 110.389 67.5754 111.011 67.9104 111.399C68.2502 111.787 68.7121 111.98 69.296 111.98ZM77.2416 105.469C77.9883 105.469 78.6273 105.634 79.1586 105.964C79.6898 106.29 80.0919 106.754 80.3647 107.357C80.6423 107.955 80.7811 108.659 80.7811 109.468C80.7811 110.291 80.6423 111.006 80.3647 111.614C80.0871 112.217 79.6803 112.684 79.1442 113.014C78.6129 113.34 77.9763 113.502 77.2344 113.502C76.4878 113.502 75.8488 113.342 75.3175 113.021C74.7862 112.701 74.3818 112.239 74.1042 111.636C73.8266 111.033 73.6878 110.315 73.6878 109.482C73.6878 108.687 73.8266 107.989 74.1042 107.386C74.3866 106.778 74.7934 106.306 75.3247 105.971C75.8608 105.636 76.4997 105.469 77.2416 105.469ZM77.2416 106.897C76.7056 106.897 76.3083 107.108 76.0498 107.529C75.7914 107.946 75.6621 108.597 75.6621 109.482C75.6621 110.377 75.7914 111.033 76.0498 111.449C76.3083 111.866 76.7032 112.074 77.2344 112.074C77.7657 112.074 78.1606 111.866 78.4191 111.449C78.6775 111.028 78.8068 110.367 78.8068 109.468C78.8068 108.592 78.6775 107.946 78.4191 107.529C78.1606 107.108 77.7681 106.897 77.2416 106.897ZM88.1021 105.469C88.6094 105.469 88.9947 105.636 89.258 105.971C89.5212 106.306 89.6529 106.866 89.6529 107.651V113.287H88.0016V107.888C88.0016 107.644 87.9896 107.457 87.9657 107.328C87.9465 107.194 87.9035 107.096 87.8364 107.034C87.7742 106.972 87.6785 106.94 87.5493 106.94C87.1999 106.94 86.8744 107.153 86.5729 107.579V113.287H85.1441V107.888C85.1441 107.644 85.1322 107.457 85.1082 107.328C85.0891 107.194 85.046 107.096 84.979 107.034C84.9168 106.972 84.8211 106.94 84.6918 106.94C84.5195 106.94 84.3544 106.991 84.1964 107.091C84.0385 107.187 83.8782 107.35 83.7154 107.579V113.287H82.0426V105.684H83.457L83.579 106.474C83.8231 106.139 84.0672 105.887 84.3113 105.72C84.5602 105.552 84.8522 105.469 85.1872 105.469C85.4935 105.469 85.7544 105.545 85.9698 105.698C86.1852 105.847 86.3383 106.081 86.4293 106.402C86.6686 106.105 86.9223 105.875 87.1903 105.713C87.4631 105.55 87.767 105.469 88.1021 105.469ZM95.2364 105.469C97.0839 105.469 98.0077 106.802 98.0077 109.468C98.0077 110.253 97.8928 110.949 97.6631 111.557C97.4381 112.165 97.1055 112.641 96.6651 112.986C96.2296 113.33 95.7031 113.502 95.0856 113.502C94.315 113.502 93.688 113.227 93.2046 112.677V116.216L91.3092 116.417V105.684H92.9749L93.0754 106.61C93.3673 106.232 93.7 105.947 94.0733 105.756C94.4467 105.564 94.8343 105.469 95.2364 105.469ZM94.6836 106.89C94.1188 106.89 93.6258 107.223 93.2046 107.888V111.291C93.554 111.808 93.9991 112.067 94.54 112.067C95.033 112.067 95.4039 111.861 95.6528 111.449C95.9065 111.033 96.0333 110.379 96.0333 109.489C96.0333 108.556 95.9208 107.891 95.6959 107.493C95.4757 107.091 95.1383 106.89 94.6836 106.89ZM103.081 105.469C103.828 105.469 104.467 105.634 104.998 105.964C105.53 106.29 105.932 106.754 106.205 107.357C106.482 107.955 106.621 108.659 106.621 109.468C106.621 110.291 106.482 111.006 106.205 111.614C105.927 112.217 105.52 112.684 104.984 113.014C104.453 113.34 103.816 113.502 103.074 113.502C102.328 113.502 101.689 113.342 101.157 113.021C100.626 112.701 100.222 112.239 99.944 111.636C99.6664 111.033 99.5276 110.315 99.5276 109.482C99.5276 108.687 99.6664 107.989 99.944 107.386C100.226 106.778 100.633 106.306 101.165 105.971C101.701 105.636 102.34 105.469 103.081 105.469ZM103.081 106.897C102.545 106.897 102.148 107.108 101.89 107.529C101.631 107.946 101.502 108.597 101.502 109.482C101.502 110.377 101.631 111.033 101.89 111.449C102.148 111.866 102.543 112.074 103.074 112.074C103.606 112.074 104 111.866 104.259 111.449C104.517 111.028 104.647 110.367 104.647 109.468C104.647 108.592 104.517 107.946 104.259 107.529C104 107.108 103.608 106.897 103.081 106.897ZM108.536 113.287V105.684H110.187L110.323 106.625C110.649 106.242 111.015 105.954 111.422 105.763C111.829 105.567 112.267 105.469 112.736 105.469C113.415 105.469 113.935 105.665 114.294 106.057C114.657 106.45 114.839 107.005 114.839 107.723V113.287H112.944V108.462C112.944 108.06 112.918 107.749 112.865 107.529C112.817 107.304 112.726 107.141 112.592 107.041C112.463 106.936 112.272 106.883 112.018 106.883C111.463 106.883 110.934 107.22 110.431 107.895V113.287H108.536ZM118.764 110.064C118.817 110.748 119.018 111.255 119.368 111.586C119.722 111.916 120.174 112.081 120.724 112.081C121.074 112.081 121.409 112.026 121.73 111.916C122.05 111.806 122.373 111.643 122.699 111.428L123.489 112.512C123.12 112.823 122.689 113.067 122.196 113.244C121.703 113.416 121.172 113.502 120.602 113.502C119.794 113.502 119.104 113.335 118.535 113C117.97 112.665 117.542 112.196 117.25 111.593C116.962 110.99 116.819 110.291 116.819 109.496C116.819 108.735 116.96 108.051 117.242 107.443C117.53 106.83 117.941 106.349 118.477 106C119.018 105.646 119.655 105.469 120.387 105.469C121.076 105.469 121.677 105.622 122.189 105.928C122.701 106.234 123.096 106.677 123.374 107.256C123.651 107.831 123.79 108.515 123.79 109.31C123.79 109.582 123.778 109.834 123.754 110.064H118.764ZM120.394 106.804C119.92 106.804 119.537 106.974 119.245 107.314C118.958 107.649 118.791 108.161 118.743 108.85H121.945C121.935 108.194 121.799 107.69 121.536 107.335C121.277 106.981 120.897 106.804 120.394 106.804ZM125.762 113.287V105.684H127.414L127.55 106.625C127.876 106.242 128.242 105.954 128.648 105.763C129.055 105.567 129.493 105.469 129.962 105.469C130.642 105.469 131.161 105.665 131.52 106.057C131.884 106.45 132.066 107.005 132.066 107.723V113.287H130.171V108.462C130.171 108.06 130.144 107.749 130.092 107.529C130.044 107.304 129.953 107.141 129.819 107.041C129.69 106.936 129.498 106.883 129.244 106.883C128.689 106.883 128.16 107.22 127.658 107.895V113.287H125.762ZM140.938 112.864C140.641 113.06 140.289 113.215 139.882 113.33C139.48 113.445 139.054 113.502 138.604 113.502C137.996 113.502 137.482 113.395 137.061 113.179C136.644 112.964 136.331 112.66 136.12 112.268C135.91 111.87 135.804 111.401 135.804 110.86V107.027H134.153V105.684H135.804V104.011L137.7 103.781V105.684H140.213L140.019 107.027H137.7V110.853C137.7 111.251 137.795 111.54 137.987 111.722C138.178 111.899 138.487 111.988 138.913 111.988C139.401 111.988 139.858 111.873 140.284 111.643L140.938 112.864ZM145.882 112.102C146.337 112.102 146.696 112.026 146.959 111.873C147.227 111.715 147.361 111.495 147.361 111.212C147.361 111.016 147.316 110.856 147.225 110.731C147.134 110.607 146.959 110.49 146.701 110.379C146.447 110.265 146.062 110.138 145.545 109.999C145.018 109.865 144.578 109.707 144.224 109.525C143.87 109.338 143.594 109.099 143.398 108.807C143.202 108.51 143.104 108.147 143.104 107.716C143.104 107.275 143.228 106.885 143.477 106.546C143.731 106.206 144.095 105.942 144.568 105.756C145.047 105.564 145.612 105.469 146.263 105.469C147.421 105.469 148.409 105.765 149.228 106.359L148.452 107.515C147.758 107.074 147.043 106.854 146.306 106.854C145.454 106.854 145.028 107.098 145.028 107.587C145.028 107.754 145.078 107.893 145.179 108.003C145.284 108.113 145.463 108.218 145.717 108.319C145.976 108.419 146.37 108.544 146.902 108.692C147.447 108.845 147.892 109.013 148.237 109.195C148.587 109.377 148.857 109.618 149.048 109.92C149.245 110.221 149.343 110.607 149.343 111.076C149.343 111.602 149.185 112.05 148.869 112.418C148.558 112.782 148.141 113.055 147.62 113.237C147.098 113.414 146.521 113.502 145.889 113.502C145.2 113.502 144.585 113.404 144.044 113.208C143.503 113.012 143.037 112.741 142.644 112.397L143.628 111.291C143.939 111.54 144.286 111.739 144.669 111.887C145.052 112.031 145.456 112.102 145.882 112.102Z" fill="white"/>
<g filter="url(#filter5_b_371_1214)">
<path fill-rule="evenodd" clip-rule="evenodd" d="M20.4139 56.1921C21.0143 54.467 22.289 53.0594 23.9462 52.2912L134.751 0.933382C138.129 -0.632467 142.137 0.836817 143.703 4.21513L167.994 56.6242C169.56 60.0025 168.091 64.0106 164.713 65.5764L53.9083 116.934C52.251 117.702 50.3531 117.765 48.6487 117.108L11.1465 102.657C7.75256 101.349 6.00784 97.5844 7.20339 94.1493L20.4139 56.1921ZM32.0915 87.7814C33.2305 90.2388 32.1618 93.1542 29.7044 94.2932C27.247 95.4322 24.3315 94.3635 23.1925 91.9061C22.0535 89.4487 23.1223 86.5332 25.5797 85.3942C28.0371 84.2552 30.9525 85.324 32.0915 87.7814Z" fill="#0F3538" fill-opacity="0.85"/>
</g>
<path fill-rule="evenodd" clip-rule="evenodd" d="M21.2107 56.4699C21.736 54.9604 22.8513 53.7287 24.3014 53.0566L135.106 1.69875C138.062 0.328633 141.569 1.61426 142.939 4.57029L167.231 56.9794C168.601 59.9354 167.315 63.4424 164.359 64.8126L53.5546 116.17C52.1046 116.843 50.4439 116.898 48.9525 116.323L11.4503 101.871C8.48063 100.727 6.95399 97.4328 8.0001 94.4271L21.2107 56.4699ZM30.0595 95.0586C32.9392 93.7239 34.1917 90.3074 32.8569 87.4277C31.5222 84.548 28.1057 83.2956 25.226 84.6303C22.3464 85.9651 21.0939 89.3815 22.4287 92.2612C23.7634 95.1409 27.1799 96.3933 30.0595 95.0586ZM23.947 52.292C22.2898 53.0601 21.0151 54.4678 20.4147 56.1928L7.20417 94.1501C6.00861 97.5852 7.75333 101.349 11.1473 102.657L48.6495 117.109C50.3539 117.766 52.2518 117.703 53.909 116.935L164.713 65.5772C168.092 64.0113 169.561 60.0033 167.995 56.625L143.704 4.21588C142.138 0.837568 138.13 -0.631718 134.751 0.934131L23.947 52.292ZM29.7051 94.294C32.1625 93.155 33.2313 90.2395 32.0923 87.7821C30.9533 85.3247 28.0378 84.256 25.5804 85.395C23.123 86.534 22.0543 89.4494 23.1933 91.9068C24.3323 94.3642 27.2477 95.433 29.7051 94.294Z" fill="#081B1D"/>
<path d="M80.5089 62.4523L79.4716 62.9288L80.3634 65.7821L81.2638 65.3685L81.8032 66.5429L80.7397 67.0313L81.4053 69.1511L79.9699 69.8104L79.3109 67.6876L77.843 68.3619L78.502 70.4847L77.0667 71.1439L76.4011 69.0241L75.5334 69.4227L74.994 68.2483L76.0183 67.7778L75.1395 64.9185L74.2392 65.3321L73.6968 64.1512L74.7537 63.6657L74.1032 61.5786L75.545 60.9163L76.176 63.0125L77.657 62.3322L77.0195 60.2391L78.4483 59.5828L79.0858 61.676L79.9666 61.2714L80.5089 62.4523ZM76.5683 64.2623L77.4536 67.1186L78.9216 66.4443L78.0428 63.585L76.5683 64.2623ZM85.5379 64.6853C85.7057 65.0506 85.8973 65.2786 86.1128 65.3693C86.3282 65.4599 86.5817 65.4383 86.8731 65.3045C87.1384 65.1826 87.3624 64.9823 87.5451 64.7035C87.7322 64.4227 87.8472 64.117 87.8903 63.7865L85.6218 58.8477L87.3442 58.0566L90.5176 64.9657L89.0171 65.6549L88.5362 64.8487C88.4464 65.2955 88.2521 65.6981 87.9533 66.0566C87.6525 66.4108 87.2889 66.6857 86.8627 66.8815C86.2059 67.1832 85.6251 67.2261 85.1204 67.0102C84.6201 66.7923 84.217 66.3506 83.9114 65.6852L81.6159 60.6876L83.3383 59.8965L85.5379 64.6853ZM98.4028 60.8778C98.2151 61.18 97.9603 61.4682 97.6386 61.7424C97.3212 62.0146 96.958 62.2446 96.5492 62.4323C95.9968 62.6861 95.4843 62.803 95.0116 62.783C94.5433 62.7611 94.1316 62.6158 93.7764 62.347C93.4192 62.0739 93.1277 61.6916 92.902 61.2001L91.3018 57.7162L89.8012 58.4054L89.2408 57.1854L90.7414 56.4962L90.0432 54.9761L91.6697 53.9762L92.4638 55.7051L94.7472 54.6562L95.1315 55.9572L93.0241 56.9251L94.6214 60.4025C94.7872 60.7635 94.995 60.9867 95.2449 61.0721C95.4928 61.1531 95.8103 61.1047 96.1974 60.9269C96.6411 60.7231 97.0085 60.4279 97.2997 60.0414L98.4028 60.8778ZM98.5276 48.701C98.7363 48.6051 98.9422 48.5658 99.1451 48.5833C99.3459 48.5963 99.528 48.6602 99.6913 48.7748C99.8545 48.8894 99.9801 49.0424 100.068 49.2338C100.156 49.4252 100.19 49.6201 100.171 49.8187C100.151 50.0172 100.082 50.1991 99.9631 50.3644C99.8442 50.5296 99.6803 50.6602 99.4715 50.7561C99.2627 50.852 99.0547 50.8922 98.8475 50.8768C98.6446 50.8594 98.4616 50.7933 98.2983 50.6787C98.135 50.5641 98.0095 50.4111 97.9216 50.2197C97.8337 50.0283 97.7994 49.8334 97.8188 49.6348C97.8382 49.4363 97.9084 49.2566 98.0294 49.0957C98.1527 48.9284 98.3188 48.7969 98.5276 48.701ZM97.5638 53.3626L101.243 51.6725L103.857 57.3616L105.677 56.5255L106.237 57.7455L100.672 60.3017L100.112 59.0816L102.134 58.1527L100.081 53.6836L98.1242 54.5826L97.5638 53.3626ZM110.636 53.2917C110.89 53.844 111.343 53.9704 111.995 53.6707C112.326 53.5189 112.639 53.2883 112.934 52.979L113.897 53.9585C113.486 54.4846 112.925 54.9105 112.216 55.2361C111.473 55.5778 110.808 55.6275 110.223 55.3854C109.638 55.1433 109.173 54.6482 108.83 53.9001L105.956 47.6434L103.888 48.5933L103.327 47.3733L107.118 45.6323L110.636 53.2917ZM114.182 41.5107C114.391 41.4149 114.596 41.3756 114.799 41.393C115 41.4061 115.182 41.47 115.346 41.5846C115.509 41.6992 115.634 41.8522 115.722 42.0436C115.81 42.235 115.844 42.4299 115.825 42.6285C115.806 42.827 115.736 43.0089 115.617 43.1741C115.498 43.3394 115.335 43.47 115.126 43.5659C114.917 43.6618 114.709 43.702 114.502 43.6866C114.299 43.6692 114.116 43.6031 113.953 43.4885C113.789 43.3739 113.664 43.2209 113.576 43.0295C113.488 42.8381 113.454 42.6432 113.473 42.4446C113.492 42.2461 113.563 42.0664 113.684 41.9055C113.807 41.7382 113.973 41.6066 114.182 41.5107ZM113.218 46.1724L116.898 44.4822L119.511 50.1713L121.331 49.3353L121.891 50.5553L116.326 53.1114L115.766 51.8914L117.788 50.9625L115.736 46.4934L113.778 47.3924L113.218 46.1724ZM129.711 46.4973C129.524 46.7995 129.269 47.0877 128.947 47.3619C128.63 47.6341 128.267 47.8641 127.858 48.0519C127.305 48.3056 126.793 48.4225 126.32 48.4026C125.852 48.3807 125.44 48.2353 125.085 47.9666C124.728 47.6935 124.436 47.3112 124.21 46.8197L122.61 43.3358L121.11 44.025L120.549 42.805L122.05 42.1158L121.352 40.5956L122.978 39.5957L123.772 41.3246L126.056 40.2758L126.44 41.5767L124.333 42.5447L125.93 46.0221C126.096 46.3831 126.304 46.6063 126.553 46.6916C126.801 46.7726 127.119 46.7242 127.506 46.5464C127.95 46.3427 128.317 46.0475 128.608 45.6609L129.711 46.4973ZM135.673 44.2412C135.782 45.2599 135.66 46.1351 135.306 46.8665C134.959 47.6003 134.317 48.2216 133.381 48.7303L132.594 47.5831C133.02 47.3081 133.343 47.0414 133.561 46.7831C133.782 46.5291 133.927 46.2598 133.996 45.9751C134.072 45.6927 134.098 45.3541 134.075 44.9593L133.488 45.229L128.05 39.3597L129.87 38.5236L134.082 43.5653L133.067 37.0553L134.835 36.2432L135.673 44.2412Z" fill="white"/>
</g>
<defs>
<filter id="filter0_b_371_1214" x="215.867" y="0.0771484" width="173.481" height="112.926" filterUnits="userSpaceOnUse" color-interpolation-filters="sRGB">
<feFlood flood-opacity="0" result="BackgroundImageFix"/>
<feGaussianBlur in="BackgroundImageFix" stdDeviation="2"/>
<feComposite in2="SourceAlpha" operator="in" result="effect1_backgroundBlur_371_1214"/>
<feBlend mode="normal" in="SourceGraphic" in2="effect1_backgroundBlur_371_1214" result="shape"/>
</filter>
<filter id="filter1_b_371_1214" x="215.533" y="42.1826" width="174.334" height="104.824" filterUnits="userSpaceOnUse" color-interpolation-filters="sRGB">
<feFlood flood-opacity="0" result="BackgroundImageFix"/>
<feGaussianBlur in="BackgroundImageFix" stdDeviation="2"/>
<feComposite in2="SourceAlpha" operator="in" result="effect1_backgroundBlur_371_1214"/>
<feBlend mode="normal" in="SourceGraphic" in2="effect1_backgroundBlur_371_1214" result="shape"/>
</filter>
<filter id="filter2_b_371_1214" x="234.562" y="54.9131" width="151.367" height="146.879" filterUnits="userSpaceOnUse" color-interpolation-filters="sRGB">
<feFlood flood-opacity="0" result="BackgroundImageFix"/>
<feGaussianBlur in="BackgroundImageFix" stdDeviation="2"/>
<feComposite in2="SourceAlpha" operator="in" result="effect1_backgroundBlur_371_1214"/>
<feBlend mode="normal" in="SourceGraphic" in2="effect1_backgroundBlur_371_1214" result="shape"/>
</filter>
<filter id="filter3_b_371_1214" x="4.12988" y="100.68" width="167.986" height="129.033" filterUnits="userSpaceOnUse" color-interpolation-filters="sRGB">
<feFlood flood-opacity="0" result="BackgroundImageFix"/>
<feGaussianBlur in="BackgroundImageFix" stdDeviation="2"/>
<feComposite in2="SourceAlpha" operator="in" result="effect1_backgroundBlur_371_1214"/>
<feBlend mode="normal" in="SourceGraphic" in2="effect1_backgroundBlur_371_1214" result="shape"/>
</filter>
<filter id="filter4_b_371_1214" x="5.27344" y="71.1367" width="171.56" height="79.249" filterUnits="userSpaceOnUse" color-interpolation-filters="sRGB">
<feFlood flood-opacity="0" result="BackgroundImageFix"/>
<feGaussianBlur in="BackgroundImageFix" stdDeviation="2"/>
<feComposite in2="SourceAlpha" operator="in" result="effect1_backgroundBlur_371_1214"/>
<feBlend mode="normal" in="SourceGraphic" in2="effect1_backgroundBlur_371_1214" result="shape"/>
</filter>
<filter id="filter5_b_371_1214" x="2.82715" y="-3.69336" width="169.794" height="125.253" filterUnits="userSpaceOnUse" color-interpolation-filters="sRGB">
<feFlood flood-opacity="0" result="BackgroundImageFix"/>
<feGaussianBlur in="BackgroundImageFix" stdDeviation="2"/>
<feComposite in2="SourceAlpha" operator="in" result="effect1_backgroundBlur_371_1214"/>
<feBlend mode="normal" in="SourceGraphic" in2="effect1_backgroundBlur_371_1214" result="shape"/>
</filter>
<clipPath id="clip0_371_1214">
<rect width="365" height="194" fill="white"/>
</clipPath>
</defs>
</svg>
