<svg width="159" height="26" viewBox="0 0 159 26" fill="none" xmlns="http://www.w3.org/2000/svg">
<g clip-path="url(#clip0_303_30)">
<path d="M11.05 17.525C10.6 18.075 10.0167 18.5 9.3 18.8C8.58333 19.0833 7.75833 19.225 6.825 19.225C5.69167 19.225 4.675 19.0083 3.775 18.575C2.89167 18.1417 2.18333 17.4917 1.65 16.625C1.13333 15.7583 0.875 14.6583 0.875 13.325C0.875 12.325 1.09167 11.3667 1.525 10.45C1.95833 9.53333 2.6 8.78333 3.45 8.2C4.31667 7.61667 5.38333 7.325 6.65 7.325C7.55 7.325 8.33333 7.41667 9 7.6C9.68333 7.76667 10.2917 8.025 10.825 8.375C10.725 8.84167 10.6583 9.325 10.625 9.825C10.5917 10.3083 10.575 10.85 10.575 11.45C10.3083 11.5667 10 11.65 9.65 11.7C9.3 11.75 8.96667 11.775 8.65 11.775C8.6 10.8083 8.39167 10.075 8.025 9.575C7.675 9.075 7.20833 8.825 6.625 8.825C5.925 8.825 5.38333 9.2 5 9.95C4.61667 10.7 4.425 11.7083 4.425 12.975C4.425 13.6917 4.54167 14.3917 4.775 15.075C5.025 15.7417 5.4 16.2917 5.9 16.725C6.4 17.1417 7.04167 17.35 7.825 17.35C8.35833 17.35 8.84167 17.2667 9.275 17.1C9.725 16.9167 10.1167 16.6667 10.45 16.35C10.6 16.4833 10.725 16.65 10.825 16.85C10.9417 17.05 11.0167 17.275 11.05 17.525ZM18.7205 19.225C17.4038 19.225 16.2788 18.9917 15.3455 18.525C14.4122 18.0417 13.7038 17.3667 13.2205 16.5C12.7538 15.6167 12.5205 14.5833 12.5205 13.4C12.5205 12.1167 12.7955 11.025 13.3455 10.125C13.8955 9.20833 14.6455 8.51667 15.5955 8.05C16.5622 7.56667 17.6372 7.325 18.8205 7.325C20.1872 7.325 21.3288 7.575 22.2455 8.075C23.1788 8.575 23.8788 9.26667 24.3455 10.15C24.8288 11.0167 25.0705 12.025 25.0705 13.175C25.0705 14.3917 24.8122 15.4583 24.2955 16.375C23.7788 17.275 23.0455 17.975 22.0955 18.475C21.1455 18.975 20.0205 19.225 18.7205 19.225ZM19.0455 17.65C19.8288 17.65 20.4122 17.2833 20.7955 16.55C21.1955 15.8 21.3955 14.8667 21.3955 13.75C21.3955 12.6833 21.2622 11.7833 20.9955 11.05C20.7288 10.3167 20.3788 9.76667 19.9455 9.4C19.5122 9.03333 19.0372 8.85 18.5205 8.85C17.7372 8.85 17.1538 9.21667 16.7705 9.95C16.3872 10.6667 16.1955 11.5667 16.1955 12.65C16.1955 13.6167 16.3038 14.4833 16.5205 15.25C16.7538 16 17.0872 16.5917 17.5205 17.025C17.9538 17.4417 18.4622 17.65 19.0455 17.65ZM26.6801 19.075C26.6801 18.775 26.6884 18.5 26.7051 18.25C26.7384 17.9833 26.7967 17.75 26.8801 17.55C27.5634 17.5167 28.0051 17.3583 28.2051 17.075C28.4217 16.775 28.5301 16.2083 28.5301 15.375V11.8C28.5301 11.25 28.4884 10.825 28.4051 10.525C28.3384 10.2083 28.1717 9.98333 27.9051 9.85C27.6551 9.7 27.2551 9.60833 26.7051 9.575C26.7051 9.34167 26.7217 9.10833 26.7551 8.875C26.8051 8.625 26.8884 8.38333 27.0051 8.15C27.5051 8.15 28.0301 8.11667 28.5801 8.05C29.1467 7.96667 29.6717 7.86667 30.1551 7.75C30.6551 7.61667 31.0467 7.475 31.3301 7.325C31.5301 7.39167 31.6967 7.53333 31.8301 7.75C31.9634 7.95 32.0301 8.25 32.0301 8.65C32.0301 8.93333 31.9967 9.25 31.9301 9.6C31.8801 9.95 31.7717 10.4917 31.6051 11.225H31.4051C31.7051 10.4583 31.9301 9.925 32.0801 9.625C32.2467 9.30833 32.3967 9.08333 32.5301 8.95C32.8801 8.55 33.3551 8.18333 33.9551 7.85C34.5551 7.51667 35.2384 7.35 36.0051 7.35C36.7884 7.35 37.4801 7.51667 38.0801 7.85C38.6967 8.18333 39.1551 8.68333 39.4551 9.35C39.6384 9.68333 39.7301 10.0417 39.7301 10.425H39.6301C39.8801 9.75833 40.1634 9.26667 40.4801 8.95C40.8134 8.58333 41.2551 8.25 41.8051 7.95C42.3717 7.65 43.0217 7.5 43.7551 7.5C44.5717 7.5 45.2717 7.64167 45.8551 7.925C46.4384 8.19167 46.8884 8.63333 47.2051 9.25C47.5384 9.86667 47.7051 10.6917 47.7051 11.725V14.75C47.7051 15.5333 47.7384 16.125 47.8051 16.525C47.8884 16.9083 48.0217 17.1667 48.2051 17.3C48.3884 17.4333 48.6551 17.5167 49.0051 17.55C49.0717 17.7667 49.1134 18 49.1301 18.25C49.1634 18.5 49.1801 18.775 49.1801 19.075C48.7801 19.0417 48.3051 19.0167 47.7551 19C47.2051 19 46.6384 19 46.0551 19C45.6717 19 45.2634 19 44.8301 19C44.3967 19.0167 43.9801 19.025 43.5801 19.025C43.1801 19.0417 42.8301 19.0583 42.5301 19.075C42.5301 18.7417 42.5384 18.4583 42.5551 18.225C42.5884 17.9917 42.6384 17.7667 42.7051 17.55C43.0551 17.5167 43.3384 17.4333 43.5551 17.3C43.7717 17.15 43.9217 16.8833 44.0051 16.5C44.1051 16.1167 44.1551 15.575 44.1551 14.875V12.475C44.1551 11.3917 43.9884 10.6583 43.6551 10.275C43.3384 9.89167 42.9134 9.7 42.3801 9.7C41.9301 9.7 41.5134 9.85 41.1301 10.15C40.7467 10.45 40.4467 10.9 40.2301 11.5C40.0134 12.0833 39.9051 12.825 39.9051 13.725V15.3C39.9051 16.15 40.0051 16.7333 40.2051 17.05C40.4217 17.35 40.8134 17.5167 41.3801 17.55C41.4467 17.7333 41.4967 17.9583 41.5301 18.225C41.5634 18.4917 41.5801 18.775 41.5801 19.075C41.1801 19.0417 40.6634 19.0167 40.0301 19C39.3967 19 38.7717 19 38.1551 19C37.5551 19 36.9384 19 36.3051 19C35.6884 19.0167 35.1551 19.0417 34.7051 19.075C34.7051 18.775 34.7134 18.4917 34.7301 18.225C34.7634 17.9583 34.8134 17.7333 34.8801 17.55C35.2801 17.5167 35.5884 17.4333 35.8051 17.3C36.0217 17.1667 36.1717 16.9 36.2551 16.5C36.3384 16.1 36.3801 15.5167 36.3801 14.75V12.275C36.3801 11.275 36.2134 10.5917 35.8801 10.225C35.5634 9.84167 35.1051 9.65 34.5051 9.65C34.0884 9.65 33.6884 9.80833 33.3051 10.125C32.9384 10.4417 32.6384 10.9 32.4051 11.5C32.1884 12.1 32.0801 12.825 32.0801 13.675V15.3C32.0801 16.1667 32.1801 16.75 32.3801 17.05C32.5801 17.35 32.9717 17.5167 33.5551 17.55C33.6217 17.75 33.6634 17.9833 33.6801 18.25C33.7134 18.5 33.7301 18.775 33.7301 19.075C33.4634 19.0417 33.1134 19.0167 32.6801 19C32.2634 19 31.8301 19 31.3801 19C30.9301 19 30.5217 19 30.1551 19C29.8051 19 29.4051 19 28.9551 19C28.5051 19 28.0717 19 27.6551 19C27.2551 19.0167 26.9301 19.0417 26.6801 19.075ZM50.85 19.075C50.85 18.775 50.8583 18.5 50.875 18.25C50.9083 17.9833 50.9667 17.75 51.05 17.55C51.7333 17.5167 52.175 17.3583 52.375 17.075C52.5917 16.775 52.7 16.2083 52.7 15.375V11.8C52.7 11.25 52.6583 10.825 52.575 10.525C52.5083 10.2083 52.3417 9.98333 52.075 9.85C51.825 9.7 51.425 9.60833 50.875 9.575C50.875 9.34167 50.8917 9.10833 50.925 8.875C50.975 8.625 51.0583 8.38333 51.175 8.15C51.675 8.15 52.2 8.11667 52.75 8.05C53.3167 7.96667 53.8417 7.86667 54.325 7.75C54.825 7.61667 55.2167 7.475 55.5 7.325C55.7 7.39167 55.8667 7.53333 56 7.75C56.1333 7.95 56.2 8.25 56.2 8.65C56.2 8.93333 56.1667 9.25 56.1 9.6C56.05 9.95 55.9417 10.4917 55.775 11.225H55.575C55.875 10.4583 56.1 9.925 56.25 9.625C56.4167 9.30833 56.5667 9.08333 56.7 8.95C57.05 8.55 57.525 8.18333 58.125 7.85C58.725 7.51667 59.4083 7.35 60.175 7.35C60.9583 7.35 61.65 7.51667 62.25 7.85C62.8667 8.18333 63.325 8.68333 63.625 9.35C63.8083 9.68333 63.9 10.0417 63.9 10.425H63.8C64.05 9.75833 64.3333 9.26667 64.65 8.95C64.9833 8.58333 65.425 8.25 65.975 7.95C66.5417 7.65 67.1917 7.5 67.925 7.5C68.7417 7.5 69.4417 7.64167 70.025 7.925C70.6083 8.19167 71.0583 8.63333 71.375 9.25C71.7083 9.86667 71.875 10.6917 71.875 11.725V14.75C71.875 15.5333 71.9083 16.125 71.975 16.525C72.0583 16.9083 72.1917 17.1667 72.375 17.3C72.5583 17.4333 72.825 17.5167 73.175 17.55C73.2417 17.7667 73.2833 18 73.3 18.25C73.3333 18.5 73.35 18.775 73.35 19.075C72.95 19.0417 72.475 19.0167 71.925 19C71.375 19 70.8083 19 70.225 19C69.8417 19 69.4333 19 69 19C68.5667 19.0167 68.15 19.025 67.75 19.025C67.35 19.0417 67 19.0583 66.7 19.075C66.7 18.7417 66.7083 18.4583 66.725 18.225C66.7583 17.9917 66.8083 17.7667 66.875 17.55C67.225 17.5167 67.5083 17.4333 67.725 17.3C67.9417 17.15 68.0917 16.8833 68.175 16.5C68.275 16.1167 68.325 15.575 68.325 14.875V12.475C68.325 11.3917 68.1583 10.6583 67.825 10.275C67.5083 9.89167 67.0833 9.7 66.55 9.7C66.1 9.7 65.6833 9.85 65.3 10.15C64.9167 10.45 64.6167 10.9 64.4 11.5C64.1833 12.0833 64.075 12.825 64.075 13.725V15.3C64.075 16.15 64.175 16.7333 64.375 17.05C64.5917 17.35 64.9833 17.5167 65.55 17.55C65.6167 17.7333 65.6667 17.9583 65.7 18.225C65.7333 18.4917 65.75 18.775 65.75 19.075C65.35 19.0417 64.8333 19.0167 64.2 19C63.5667 19 62.9417 19 62.325 19C61.725 19 61.1083 19 60.475 19C59.8583 19.0167 59.325 19.0417 58.875 19.075C58.875 18.775 58.8833 18.4917 58.9 18.225C58.9333 17.9583 58.9833 17.7333 59.05 17.55C59.45 17.5167 59.7583 17.4333 59.975 17.3C60.1917 17.1667 60.3417 16.9 60.425 16.5C60.5083 16.1 60.55 15.5167 60.55 14.75V12.275C60.55 11.275 60.3833 10.5917 60.05 10.225C59.7333 9.84167 59.275 9.65 58.675 9.65C58.2583 9.65 57.8583 9.80833 57.475 10.125C57.1083 10.4417 56.8083 10.9 56.575 11.5C56.3583 12.1 56.25 12.825 56.25 13.675V15.3C56.25 16.1667 56.35 16.75 56.55 17.05C56.75 17.35 57.1417 17.5167 57.725 17.55C57.7917 17.75 57.8333 17.9833 57.85 18.25C57.8833 18.5 57.9 18.775 57.9 19.075C57.6333 19.0417 57.2833 19.0167 56.85 19C56.4333 19 56 19 55.55 19C55.1 19 54.6917 19 54.325 19C53.975 19 53.575 19 53.125 19C52.675 19 52.2417 19 51.825 19C51.425 19.0167 51.1 19.0417 50.85 19.075ZM80.8543 19.225C79.5376 19.225 78.4126 18.9917 77.4793 18.525C76.546 18.0417 75.8376 17.3667 75.3543 16.5C74.8876 15.6167 74.6543 14.5833 74.6543 13.4C74.6543 12.1167 74.9293 11.025 75.4793 10.125C76.0293 9.20833 76.7793 8.51667 77.7293 8.05C78.696 7.56667 79.771 7.325 80.9543 7.325C82.321 7.325 83.4626 7.575 84.3793 8.075C85.3126 8.575 86.0126 9.26667 86.4793 10.15C86.9626 11.0167 87.2043 12.025 87.2043 13.175C87.2043 14.3917 86.946 15.4583 86.4293 16.375C85.9126 17.275 85.1793 17.975 84.2293 18.475C83.2793 18.975 82.1543 19.225 80.8543 19.225ZM81.1793 17.65C81.9626 17.65 82.546 17.2833 82.9293 16.55C83.3293 15.8 83.5293 14.8667 83.5293 13.75C83.5293 12.6833 83.396 11.7833 83.1293 11.05C82.8626 10.3167 82.5126 9.76667 82.0793 9.4C81.646 9.03333 81.171 8.85 80.6543 8.85C79.871 8.85 79.2876 9.21667 78.9043 9.95C78.521 10.6667 78.3293 11.5667 78.3293 12.65C78.3293 13.6167 78.4376 14.4833 78.6543 15.25C78.8876 16 79.221 16.5917 79.6543 17.025C80.0876 17.4417 80.596 17.65 81.1793 17.65ZM90.6639 13.775V11.6C90.6639 11.1167 90.6222 10.7417 90.5389 10.475C90.4722 10.1917 90.3055 9.98333 90.0389 9.85C89.7889 9.7 89.3889 9.60833 88.8389 9.575C88.8389 9.325 88.8555 9.08333 88.8889 8.85C88.9389 8.6 89.0222 8.36667 89.1389 8.15C90.0222 8.15 90.8722 8.06667 91.6889 7.9C92.5222 7.71667 93.1305 7.525 93.5139 7.325C93.7472 7.40833 93.9222 7.55833 94.0389 7.775C94.1722 7.975 94.2389 8.275 94.2389 8.675L90.6639 13.775ZM102.164 15.375C102.164 16.2083 102.256 16.7833 102.439 17.1C102.639 17.4 102.964 17.55 103.414 17.55C103.497 17.75 103.547 17.975 103.564 18.225C103.597 18.4583 103.614 18.7417 103.614 19.075C103.247 19.0583 102.772 19.0417 102.189 19.025C101.622 19.0083 101.064 19 100.514 19C100.147 19 99.7305 19 99.2639 19C98.8139 19.0167 98.3805 19.025 97.9639 19.025C97.5472 19.0417 97.2139 19.0583 96.9639 19.075C96.9639 18.775 96.9722 18.5 96.9889 18.25C97.0055 18 97.0555 17.7667 97.1389 17.55C97.6055 17.55 97.9639 17.3833 98.2139 17.05C98.4639 16.7167 98.5889 16.1083 98.5889 15.225V12.5C98.5889 11.45 98.4222 10.725 98.0889 10.325C97.7555 9.90833 97.2805 9.7 96.6639 9.7C96.2639 9.7 95.8722 9.85833 95.4889 10.175C95.1222 10.475 94.8222 10.925 94.5889 11.525C94.3555 12.1083 94.2389 12.8417 94.2389 13.725V15.375C94.2389 16.225 94.3472 16.8 94.5639 17.1C94.7972 17.4 95.1639 17.55 95.6639 17.55C95.7639 17.7833 95.8222 18.0167 95.8389 18.25C95.8555 18.4833 95.8639 18.7583 95.8639 19.075C95.6305 19.0583 95.3139 19.0417 94.9139 19.025C94.5139 19.025 94.0972 19.0167 93.6639 19C93.2472 19 92.8472 19 92.4639 19C92.0805 19 91.6555 19 91.1889 19C90.7222 19.0167 90.2722 19.025 89.8389 19.025C89.4055 19.0417 89.0639 19.0583 88.8139 19.075C88.8139 18.7583 88.8305 18.4667 88.8639 18.2C88.8972 17.9333 88.9472 17.7167 89.0139 17.55C89.6639 17.55 90.0972 17.4 90.3139 17.1C90.5472 16.7833 90.6639 16.2083 90.6639 15.375V11.6L94.2389 8.675C94.2389 8.875 94.2139 9.10833 94.1639 9.375C94.1305 9.625 94.0722 9.89167 93.9889 10.175C94.0889 9.975 94.1889 9.775 94.2889 9.575C94.3889 9.375 94.5222 9.18333 94.6889 9C95.0222 8.61667 95.4889 8.26667 96.0889 7.95C96.6889 7.61667 97.3805 7.45 98.1639 7.45C98.8639 7.45 99.5139 7.58333 100.114 7.85C100.731 8.11667 101.222 8.55 101.589 9.15C101.972 9.75 102.164 10.5417 102.164 11.525V15.375ZM113.543 19.225C113.26 19.1083 113.06 18.9417 112.943 18.725C112.827 18.4917 112.768 18.175 112.768 17.775C112.768 17.575 112.785 17.3417 112.818 17.075C112.852 16.7917 112.91 16.525 112.993 16.275L113.068 16.2C112.952 16.6333 112.785 17.0333 112.568 17.4C112.352 17.75 112.093 18.0417 111.793 18.275C111.46 18.575 111.052 18.8 110.568 18.95C110.102 19.1 109.543 19.175 108.893 19.175C107.777 19.175 106.91 18.9333 106.293 18.45C105.677 17.9667 105.368 17.275 105.368 16.375C105.368 15.7417 105.51 15.2 105.793 14.75C106.093 14.2833 106.493 13.8917 106.993 13.575C107.493 13.2583 108.052 13 108.668 12.8C109.285 12.6 109.91 12.4417 110.543 12.325C111.193 12.2083 111.802 12.1083 112.368 12.025C112.368 11.5417 112.352 11.1417 112.318 10.825C112.302 10.4917 112.252 10.2167 112.168 10C112.102 9.76667 111.985 9.56667 111.818 9.4C111.635 9.16667 111.418 9.00833 111.168 8.925C110.935 8.825 110.685 8.775 110.418 8.775C109.952 8.775 109.577 8.91667 109.293 9.2C109.027 9.46667 108.827 9.81667 108.693 10.25C108.56 10.6833 108.477 11.125 108.443 11.575C108.043 11.575 107.668 11.5583 107.318 11.525C106.968 11.4917 106.66 11.425 106.393 11.325C106.427 10.875 106.435 10.3917 106.418 9.875C106.402 9.35833 106.343 8.84167 106.243 8.325C106.943 8.00833 107.743 7.75833 108.643 7.575C109.56 7.39167 110.418 7.3 111.218 7.3C112.168 7.3 112.935 7.41667 113.518 7.65C114.102 7.86667 114.543 8.125 114.843 8.425C115.193 8.79167 115.46 9.29167 115.643 9.925C115.843 10.5417 115.943 11.4333 115.943 12.6V14.775C115.943 15.3083 115.977 15.725 116.043 16.025C116.11 16.3083 116.243 16.5083 116.443 16.625C116.66 16.7417 116.985 16.8083 117.418 16.825C117.452 17.0917 117.452 17.3667 117.418 17.65C117.385 17.9167 117.31 18.1667 117.193 18.4C116.593 18.4167 115.968 18.5 115.318 18.65C114.685 18.7833 114.093 18.975 113.543 19.225ZM110.143 17.1C110.477 17.1 110.818 16.9917 111.168 16.775C111.518 16.5417 111.802 16.2 112.018 15.75C112.252 15.3 112.368 14.725 112.368 14.025V13.35C111.885 13.4333 111.427 13.5333 110.993 13.65C110.577 13.7667 110.21 13.9167 109.893 14.1C109.593 14.2667 109.36 14.4833 109.193 14.75C109.027 15 108.943 15.3167 108.943 15.7C108.943 16.2 109.06 16.5583 109.293 16.775C109.543 16.9917 109.827 17.1 110.143 17.1ZM118.791 19.075C118.791 18.775 118.799 18.5 118.816 18.25C118.849 17.9833 118.899 17.75 118.966 17.55C119.632 17.5333 120.074 17.375 120.291 17.075C120.524 16.775 120.641 16.2083 120.641 15.375V4.975C120.641 4.60833 120.591 4.31667 120.491 4.1C120.391 3.86667 120.207 3.69167 119.941 3.575C119.674 3.44167 119.282 3.35833 118.766 3.325C118.766 3.075 118.782 2.83333 118.816 2.6C118.866 2.35 118.941 2.11667 119.041 1.9C119.607 1.9 120.182 1.85833 120.766 1.775C121.366 1.69167 121.907 1.59167 122.391 1.475C122.874 1.34167 123.232 1.20833 123.466 1.075C123.682 1.15833 123.857 1.30833 123.991 1.525C124.124 1.725 124.191 2.01667 124.191 2.4V15.375C124.191 16.2083 124.299 16.775 124.516 17.075C124.732 17.375 125.149 17.5333 125.766 17.55C125.832 17.75 125.874 17.9917 125.891 18.275C125.907 18.5417 125.916 18.8083 125.916 19.075C125.682 19.0583 125.366 19.0417 124.966 19.025C124.582 19.025 124.166 19.0167 123.716 19C123.266 19 122.816 19 122.366 19C121.916 19 121.457 19 120.991 19C120.524 19.0167 120.099 19.025 119.716 19.025C119.332 19.0417 119.024 19.0583 118.791 19.075ZM127.437 19.075C127.437 18.775 127.445 18.5 127.462 18.25C127.495 17.9833 127.545 17.75 127.612 17.55C128.279 17.5333 128.72 17.375 128.937 17.075C129.17 16.775 129.287 16.2083 129.287 15.375V11.35C129.287 10.95 129.245 10.625 129.162 10.375C129.079 10.125 128.904 9.94167 128.637 9.825C128.37 9.69167 127.97 9.60833 127.437 9.575C127.437 9.325 127.454 9.08333 127.487 8.85C127.52 8.6 127.595 8.36667 127.712 8.15C128.262 8.15 128.829 8.10833 129.412 8.025C130.012 7.94167 130.554 7.84167 131.037 7.725C131.537 7.59167 131.904 7.45833 132.137 7.325C132.354 7.40833 132.529 7.55833 132.662 7.775C132.795 7.975 132.862 8.26667 132.862 8.65V15.375C132.862 16.2083 132.97 16.775 133.187 17.075C133.404 17.375 133.812 17.5333 134.412 17.55C134.479 17.75 134.52 17.9917 134.537 18.275C134.57 18.5417 134.587 18.8083 134.587 19.075C134.337 19.0583 134.02 19.0417 133.637 19.025C133.254 19.025 132.837 19.0167 132.387 19C131.937 19 131.487 19 131.037 19C130.587 19 130.129 19 129.662 19C129.195 19.0167 128.77 19.025 128.387 19.025C128.004 19.0417 127.687 19.0583 127.437 19.075ZM130.762 5.35C130.162 5.35 129.67 5.19167 129.287 4.875C128.92 4.54167 128.737 4.11667 128.737 3.6C128.737 3 128.945 2.53333 129.362 2.2C129.779 1.86667 130.279 1.7 130.862 1.7C131.545 1.7 132.07 1.86667 132.437 2.2C132.804 2.53333 132.987 2.99167 132.987 3.575C132.987 4.075 132.787 4.5 132.387 4.85C131.987 5.18333 131.445 5.35 130.762 5.35ZM141.025 19.225C139.875 19.225 139.009 18.925 138.425 18.325C137.842 17.725 137.55 16.7167 137.55 15.3V9.675C137.284 9.575 137.009 9.5 136.725 9.45C136.442 9.4 136.1 9.36667 135.7 9.35C135.7 9.05 135.717 8.78333 135.75 8.55C135.8 8.31667 135.884 8.06667 136 7.8H137.55V4.725C138.1 4.64167 138.642 4.49167 139.175 4.275C139.709 4.04167 140.15 3.78333 140.5 3.5C140.734 3.6 140.892 3.74167 140.975 3.925C141.059 4.10833 141.1 4.475 141.1 5.025V7.8H144.175C144.175 8.1 144.159 8.38333 144.125 8.65C144.092 8.9 144.034 9.14167 143.95 9.375C143.384 9.375 142.867 9.40833 142.4 9.475C141.934 9.54167 141.5 9.63333 141.1 9.75V14.875C141.1 15.5417 141.142 16.0667 141.225 16.45C141.325 16.8167 141.475 17.075 141.675 17.225C141.875 17.375 142.117 17.45 142.4 17.45C142.684 17.45 142.95 17.4167 143.2 17.35C143.467 17.2667 143.717 17.1583 143.95 17.025C144.184 17.325 144.309 17.7333 144.325 18.25C143.992 18.5333 143.517 18.7667 142.9 18.95C142.3 19.1333 141.675 19.225 141.025 19.225ZM154.6 11.55C154.983 10.6333 155.091 10.0083 154.925 9.675C154.775 9.34167 154.4 9.125 153.8 9.025C153.733 8.80833 153.675 8.56667 153.625 8.3C153.591 8.03333 153.575 7.75833 153.575 7.475C153.958 7.49167 154.366 7.50833 154.8 7.525C155.233 7.54167 155.658 7.55 156.075 7.55C156.525 7.55 156.95 7.54167 157.35 7.525C157.75 7.50833 158.133 7.49167 158.5 7.475C158.5 7.70833 158.483 7.96667 158.45 8.25C158.433 8.53333 158.375 8.79167 158.275 9.025C157.991 9.09167 157.75 9.2 157.55 9.35C157.366 9.48333 157.191 9.69167 157.025 9.975C156.858 10.2583 156.666 10.6583 156.45 11.175L152.775 19.925C152.308 21.0583 151.875 21.975 151.475 22.675C151.091 23.375 150.716 23.9083 150.35 24.275C150 24.6417 149.641 24.8917 149.275 25.025C148.925 25.1583 148.55 25.225 148.15 25.225C147.616 25.225 147.133 25.125 146.7 24.925C146.283 24.725 145.966 24.5 145.75 24.25C145.7 23.95 145.691 23.575 145.725 23.125C145.758 22.675 145.833 22.2917 145.95 21.975C146.233 22.0583 146.566 22.125 146.95 22.175C147.35 22.2417 147.775 22.275 148.225 22.275C148.758 22.275 149.208 22.1833 149.575 22C149.958 21.8167 150.291 21.4917 150.575 21.025C150.741 20.775 151.033 20.1917 151.45 19.275C151.883 18.3583 152.358 17.2333 152.875 15.9L154.6 11.55ZM151.3 20.025C150.9 19.075 150.458 18.075 149.975 17.025C149.508 15.975 149.05 14.9583 148.6 13.975C148.15 12.975 147.733 12.0917 147.35 11.325C147.066 10.6917 146.816 10.225 146.6 9.925C146.383 9.625 146.175 9.40833 145.975 9.275C145.775 9.14167 145.55 9.05833 145.3 9.025C145.233 8.825 145.183 8.58333 145.15 8.3C145.116 8.01667 145.1 7.74167 145.1 7.475C145.583 7.49167 146.116 7.50833 146.7 7.525C147.3 7.54167 147.883 7.55 148.45 7.55C149.05 7.55 149.708 7.54167 150.425 7.525C151.141 7.50833 151.758 7.49167 152.275 7.475C152.275 7.75833 152.25 8.04167 152.2 8.325C152.166 8.60833 152.116 8.84167 152.05 9.025C151.283 9.14167 150.85 9.35 150.75 9.65C150.666 9.95 150.825 10.5083 151.225 11.325C151.458 11.7917 151.708 12.325 151.975 12.925C152.241 13.525 152.491 14.1333 152.725 14.75C152.975 15.3667 153.2 15.975 153.4 16.575L151.3 20.025Z" fill="black"/>
</g>
<defs>
<clipPath id="clip0_303_30">
<rect width="159" height="26" fill="white"/>
</clipPath>
</defs>
</svg>
