<?xml version="1.0" encoding="UTF-8"?><!DOCTYPE svg>
<svg width="36" height="36" viewBox="0 0 36 36" fill="none"
    xmlns="http://www.w3.org/2000/svg">
    <mask id="mask0_0_3" style="mask-type:luminance" maskUnits="userSpaceOnUse" x="2" y="0" width="33" height="36">
        <path d="M17.1551 0.227733L2.86366 8.37161C2.32836 8.67637 2 9.23902 2 9.8472V26.1463C2 26.7549 2.32836 27.3172 2.86366 27.6219L17.1561 35.7722C17.6904 36.0759 18.3492 36.0759 18.8828 35.7722L33.1729 27.6219C33.7055 27.3172 34.0345 26.7545 34.0345 26.1463V9.8472C34.0345 9.23902 33.7055 8.67637 33.1695 8.37161L18.8814 0.227733C18.6134 0.0760209 18.3149 0 18.0164 0C17.7179 0 17.4194 0.0760209 17.1514 0.227733" fill="white"/>
    </mask>
    <g mask="url(#mask0_0_3)">
        <path d="M48.4767 6.98878L8.20584 -12.4993L-12.4427 29.0871L27.8272 48.5763L48.4767 6.98878Z" fill="url(#paint0_linear_0_3)"/>
    </g>
    <mask id="mask1_0_3" style="mask-type:luminance" maskUnits="userSpaceOnUse" x="2" y="0" width="32" height="36">
        <path d="M2.35425 27.1812C2.49095 27.3564 2.66192 27.5081 2.86308 27.622L15.1226 34.6131L17.1647 35.7719C17.47 35.946 17.8181 36.0197 18.16 35.9946C18.274 35.9855 18.388 35.9644 18.4992 35.9333L33.5723 8.68543C33.4569 8.56151 33.3219 8.4577 33.1706 8.37062L23.8128 3.03558L18.8663 0.225732C18.7258 0.145355 18.5735 0.0884216 18.4185 0.048233L2.35425 27.1812Z" fill="white"/>
    </mask>
    <g mask="url(#mask1_0_3)">
        <path d="M-15.0574 12.7529L13.378 50.7488L50.9842 23.3181L22.5472 -14.6768L-15.0574 12.7529Z" fill="url(#paint1_linear_0_3)"/>
    </g>
    <mask id="mask2_0_3" style="mask-type:luminance" maskUnits="userSpaceOnUse" x="2" y="0" width="33" height="36">
        <path d="M17.8458 0.00935297C17.606 0.0327963 17.3716 0.106473 17.1555 0.227708L2.90475 8.34815L18.2716 35.9811C18.4853 35.951 18.6956 35.8807 18.8855 35.7722L33.177 27.6219C33.618 27.3694 33.9199 26.9421 34.0115 26.4578L18.3462 0.0371476C18.2308 0.014709 18.1155 0.00299072 17.9968 0.00299072C17.9493 0.00299072 17.9018 0.00533138 17.8543 0.00968514" fill="white"/>
    </mask>
    <g mask="url(#mask2_0_3)">
        <path d="M2.90451 0.00299072V35.9818H34.0055V0.00299072H2.90451Z" fill="url(#paint2_linear_0_3)"/>
    </g>
    <defs>
        <linearGradient id="paint0_linear_0_3" x1="28.3292" y1="-2.78592" x2="8.10528" y2="39.0026" gradientUnits="userSpaceOnUse">
            <stop offset="0.3" stop-color="#3E863D"/>
            <stop offset="0.5" stop-color="#55934F"/>
            <stop offset="0.8" stop-color="#5AAD45"/>
        </linearGradient>
        <linearGradient id="paint1_linear_0_3" x1="-0.669319" y1="31.9686" x2="36.5968" y2="4.07834" gradientUnits="userSpaceOnUse">
            <stop offset="0.57" stop-color="#3E863D"/>
            <stop offset="0.72" stop-color="#619857"/>
            <stop offset="1" stop-color="#76AC64"/>
        </linearGradient>
        <linearGradient id="paint2_linear_0_3" x1="2.915" y1="17.9934" x2="34.0114" y2="17.9934" gradientUnits="userSpaceOnUse">
            <stop offset="0.16" stop-color="#6BBF47"/>
            <stop offset="0.38" stop-color="#79B461"/>
            <stop offset="0.47" stop-color="#75AC64"/>
            <stop offset="0.7" stop-color="#659E5A"/>
            <stop offset="0.9" stop-color="#3E863D"/>
        </linearGradient>
    </defs>
</svg>
