<svg width="100" height="100" viewBox="0 0 100 100" fill="none" xmlns="http://www.w3.org/2000/svg">
<g clip-path="url(#clip0_848_401)">
<path d="M63.5541 12.2173C64.9618 13.8013 63.0468 15.9803 61.0273 15.3384C57.5493 14.2329 53.8444 13.6364 50.0002 13.6364C29.9171 13.6364 13.6364 29.9168 13.6364 49.9996C13.6364 53.8435 14.2329 57.5481 15.3383 61.0259C15.9802 63.0455 13.8011 64.9603 12.2171 63.5526C4.72207 56.8918 0 47.1789 0 36.3632C0 16.2804 16.2806 0 36.3638 0C47.1799 0 56.8931 4.72218 63.5541 12.2173Z" fill="white"/>
<path d="M49.9998 86.3636C70.0829 86.3636 86.3636 70.0832 86.3636 50.0004C86.3636 46.1565 85.7671 42.4519 84.6618 38.9741C84.0199 36.9546 86.199 35.0397 87.783 36.4474C95.2779 43.1083 100 52.8211 100 63.6368C100 83.7196 83.7194 100 63.6362 100C52.8201 100 43.1069 95.2778 36.4459 87.7827C35.0382 86.1987 36.9532 84.0197 38.9728 84.6616C42.4508 85.7671 46.1556 86.3636 49.9998 86.3636Z" fill="white"/>
</g>
<defs>
<clipPath id="clip0_848_401">
<rect width="100" height="100" fill="white"/>
</clipPath>
</defs>
</svg>
