<svg width="144" height="144" viewBox="0 0 144 144" fill="none" xmlns="http://www.w3.org/2000/svg">
<g clip-path="url(#clip0_415_3344)">
<rect width="144" height="144" rx="8" fill="#18181B"/>
<path d="M85.5541 34.2173C86.9618 35.8013 85.0468 37.9803 83.0273 37.3384C79.5492 36.2329 75.8444 35.6364 72.0002 35.6364C51.9171 35.6364 35.6364 51.9168 35.6364 71.9996C35.6364 75.8435 36.2329 79.5481 37.3383 83.0259C37.9802 85.0455 35.8011 86.9603 34.2171 85.5526C26.7221 78.8918 22 69.1789 22 58.3632C22 38.2804 38.2806 22 58.3638 22C69.1799 22 78.8931 26.7222 85.5541 34.2173Z" fill="white"/>
<path d="M71.9998 108.364C92.0829 108.364 108.364 92.0832 108.364 72.0004C108.364 68.1565 107.767 64.4519 106.662 60.9741C106.02 58.9546 108.199 57.0397 109.783 58.4474C117.278 65.1083 122 74.8211 122 85.6368C122 105.72 105.719 122 85.6362 122C74.8201 122 65.1069 117.278 58.4459 109.783C57.0382 108.199 58.9532 106.02 60.9728 106.662C64.4508 107.767 68.1556 108.364 71.9998 108.364Z" fill="white"/>
</g>
<defs>
<clipPath id="clip0_415_3344">
<rect width="144" height="144" fill="white"/>
</clipPath>
</defs>
</svg>
