<svg width="160" height="24" viewBox="0 0 160 24" fill="none" xmlns="http://www.w3.org/2000/svg">
<g clip-path="url(#clip0_643_290)">
<path fill-rule="evenodd" clip-rule="evenodd" d="M15.2526 2.93258C15.5904 3.31277 15.1308 3.83569 14.6461 3.68161C13.8113 3.41621 12.922 3.273 11.9993 3.273C7.17962 3.273 3.27249 7.18013 3.27249 11.9998C3.27249 12.922 3.41555 13.8109 3.68069 14.6453C3.8347 15.13 3.3117 15.5895 2.93157 15.2517C1.13308 13.6531 0 11.3223 0 8.7268C0 3.90712 3.90712 0 8.7268 0C11.3228 0 13.654 1.13351 15.2526 2.93258Z" fill="white"/>
<path fill-rule="evenodd" clip-rule="evenodd" d="M11.9988 20.7266C16.8185 20.7266 20.7256 16.8195 20.7256 11.9998C20.7256 11.0776 20.5825 10.1888 20.3174 9.35435C20.1634 8.86965 20.6864 8.41012 21.0665 8.74799C22.865 10.3465 23.9981 12.6774 23.9981 15.2729C23.9981 20.0925 20.091 23.9997 15.2713 23.9997C12.6753 23.9997 10.3441 22.8661 8.7455 21.0671C8.40769 20.6869 8.86731 20.164 9.35198 20.318C10.1868 20.5834 11.0761 20.7266 11.9988 20.7266Z" fill="white"/>
<path d="M41.82 17.14C40.74 17.14 39.8133 16.92 39.04 16.48C38.28 16.04 37.7 15.42 37.3 14.62C36.9 13.8067 36.7 12.8533 36.7 11.76C36.7 10.6533 36.9067 9.69333 37.32 8.88C37.7333 8.05333 38.3267 7.41333 39.1 6.96C39.8867 6.50667 40.8333 6.28 41.94 6.28C42.7933 6.28 43.5533 6.43333 44.22 6.74C44.8867 7.04667 45.42 7.48667 45.82 8.06C46.2333 8.63333 46.4733 9.34 46.54 10.18H43.8C43.68 9.71333 43.4467 9.37333 43.1 9.16C42.7667 8.94667 42.3667 8.84 41.9 8.84C41.3 8.84 40.82 8.98667 40.46 9.28C40.1133 9.57333 39.86 9.94667 39.7 10.4C39.5533 10.8533 39.48 11.3067 39.48 11.76C39.48 12.2533 39.56 12.72 39.72 13.16C39.88 13.5867 40.1333 13.94 40.48 14.22C40.84 14.4867 41.3067 14.62 41.88 14.62C42.36 14.62 42.78 14.5133 43.14 14.3C43.5 14.0733 43.7333 13.7267 43.84 13.26H46.64C46.5733 14.1267 46.3133 14.8467 45.86 15.42C45.4067 15.9933 44.8267 16.4267 44.12 16.72C43.4267 17 42.66 17.14 41.82 17.14ZM53.2505 17.14C52.1838 17.14 51.2505 16.9267 50.4505 16.5C49.6505 16.06 49.0305 15.44 48.5905 14.64C48.1505 13.8267 47.9305 12.8667 47.9305 11.76C47.9305 10.6267 48.1505 9.65333 48.5905 8.84C49.0438 8.01333 49.6705 7.38 50.4705 6.94C51.2705 6.5 52.1905 6.28 53.2305 6.28C54.2971 6.28 55.2238 6.50667 56.0105 6.96C56.7971 7.41333 57.4105 8.04667 57.8505 8.86C58.2905 9.67333 58.5105 10.6467 58.5105 11.78C58.5105 12.8867 58.2905 13.8467 57.8505 14.66C57.4238 15.46 56.8171 16.0733 56.0305 16.5C55.2571 16.9267 54.3305 17.14 53.2505 17.14ZM53.2105 14.58C53.8238 14.58 54.3171 14.4467 54.6905 14.18C55.0638 13.9133 55.3305 13.5667 55.4905 13.14C55.6638 12.7 55.7505 12.24 55.7505 11.76C55.7505 11.28 55.6638 10.82 55.4905 10.38C55.3305 9.94 55.0638 9.58 54.6905 9.3C54.3305 9.00667 53.8371 8.86 53.2105 8.86C52.6105 8.86 52.1238 9.00667 51.7505 9.3C51.3771 9.58 51.1038 9.94 50.9305 10.38C50.7705 10.82 50.6905 11.28 50.6905 11.76C50.6905 12.2533 50.7705 12.7133 50.9305 13.14C51.1038 13.5667 51.3771 13.9133 51.7505 14.18C52.1238 14.4467 52.6105 14.58 53.2105 14.58ZM60.3031 17V6.46H62.8231L63.0631 7.64C63.3298 7.26667 63.6231 6.98667 63.9431 6.8C64.2765 6.6 64.6098 6.46667 64.9431 6.4C65.2765 6.33333 65.5831 6.3 65.8631 6.3C66.4898 6.3 67.0431 6.42 67.5231 6.66C68.0031 6.9 68.3898 7.28667 68.6831 7.82C68.9631 7.43333 69.2698 7.13333 69.6031 6.92C69.9365 6.69333 70.2898 6.53333 70.6631 6.44C71.0365 6.34667 71.4165 6.3 71.8031 6.3C72.6165 6.3 73.2698 6.47333 73.7631 6.82C74.2698 7.15333 74.6365 7.62 74.8631 8.22C75.1031 8.82 75.2231 9.52 75.2231 10.32V17H72.4231V11.06C72.4231 10.82 72.4098 10.5733 72.3831 10.32C72.3565 10.0667 72.2898 9.82667 72.1831 9.6C72.0898 9.37333 71.9431 9.18667 71.7431 9.04C71.5565 8.89333 71.2898 8.82 70.9431 8.82C70.6098 8.82 70.3298 8.89333 70.1031 9.04C69.8765 9.18667 69.6965 9.38667 69.5631 9.64C69.4298 9.88 69.3298 10.1467 69.2631 10.44C69.2098 10.72 69.1831 11.0067 69.1831 11.3V17H66.3831V11.04C66.3831 10.8133 66.3698 10.5733 66.3431 10.32C66.3165 10.0667 66.2565 9.82667 66.1631 9.6C66.0698 9.37333 65.9165 9.18667 65.7031 9.04C65.5031 8.89333 65.2231 8.82 64.8631 8.82C64.3698 8.82 63.9898 8.96667 63.7231 9.26C63.4698 9.54 63.3031 9.88 63.2231 10.28C63.1431 10.6667 63.1031 11.0267 63.1031 11.36V17H60.3031ZM77.3344 17V6.46H79.8544L80.0944 7.64C80.361 7.26667 80.6544 6.98667 80.9744 6.8C81.3077 6.6 81.641 6.46667 81.9744 6.4C82.3077 6.33333 82.6144 6.3 82.8944 6.3C83.521 6.3 84.0744 6.42 84.5544 6.66C85.0344 6.9 85.421 7.28667 85.7144 7.82C85.9944 7.43333 86.301 7.13333 86.6344 6.92C86.9677 6.69333 87.321 6.53333 87.6944 6.44C88.0677 6.34667 88.4477 6.3 88.8344 6.3C89.6477 6.3 90.301 6.47333 90.7944 6.82C91.301 7.15333 91.6677 7.62 91.8944 8.22C92.1344 8.82 92.2544 9.52 92.2544 10.32V17H89.4544V11.06C89.4544 10.82 89.441 10.5733 89.4144 10.32C89.3877 10.0667 89.321 9.82667 89.2144 9.6C89.121 9.37333 88.9744 9.18667 88.7744 9.04C88.5877 8.89333 88.321 8.82 87.9744 8.82C87.641 8.82 87.361 8.89333 87.1344 9.04C86.9077 9.18667 86.7277 9.38667 86.5944 9.64C86.461 9.88 86.361 10.1467 86.2944 10.44C86.241 10.72 86.2144 11.0067 86.2144 11.3V17H83.4144V11.04C83.4144 10.8133 83.401 10.5733 83.3744 10.32C83.3477 10.0667 83.2877 9.82667 83.1944 9.6C83.101 9.37333 82.9477 9.18667 82.7344 9.04C82.5344 8.89333 82.2544 8.82 81.8944 8.82C81.401 8.82 81.021 8.96667 80.7544 9.26C80.501 9.54 80.3344 9.88 80.2544 10.28C80.1744 10.6667 80.1344 11.0267 80.1344 11.36V17H77.3344ZM99.2856 17.14C98.219 17.14 97.2856 16.9267 96.4856 16.5C95.6856 16.06 95.0656 15.44 94.6256 14.64C94.1856 13.8267 93.9656 12.8667 93.9656 11.76C93.9656 10.6267 94.1856 9.65333 94.6256 8.84C95.079 8.01333 95.7056 7.38 96.5056 6.94C97.3056 6.5 98.2256 6.28 99.2656 6.28C100.332 6.28 101.259 6.50667 102.046 6.96C102.832 7.41333 103.446 8.04667 103.886 8.86C104.326 9.67333 104.546 10.6467 104.546 11.78C104.546 12.8867 104.326 13.8467 103.886 14.66C103.459 15.46 102.852 16.0733 102.066 16.5C101.292 16.9267 100.366 17.14 99.2856 17.14ZM99.2456 14.58C99.859 14.58 100.352 14.4467 100.726 14.18C101.099 13.9133 101.366 13.5667 101.526 13.14C101.699 12.7 101.786 12.24 101.786 11.76C101.786 11.28 101.699 10.82 101.526 10.38C101.366 9.94 101.099 9.58 100.726 9.3C100.366 9.00667 99.8723 8.86 99.2456 8.86C98.6456 8.86 98.159 9.00667 97.7856 9.3C97.4123 9.58 97.139 9.94 96.9656 10.38C96.8056 10.82 96.7256 11.28 96.7256 11.76C96.7256 12.2533 96.8056 12.7133 96.9656 13.14C97.139 13.5667 97.4123 13.9133 97.7856 14.18C98.159 14.4467 98.6456 14.58 99.2456 14.58ZM106.338 17V6.46H108.958L109.098 7.68C109.392 7.32 109.725 7.04 110.098 6.84C110.485 6.62667 110.872 6.48 111.258 6.4C111.658 6.32 112.018 6.28 112.338 6.28C113.352 6.28 114.138 6.5 114.698 6.94C115.272 7.38 115.678 7.97333 115.918 8.72C116.172 9.45333 116.298 10.2733 116.298 11.18V17H113.498V11.54C113.498 11.22 113.472 10.9 113.418 10.58C113.365 10.26 113.265 9.96667 113.118 9.7C112.985 9.43333 112.792 9.22 112.538 9.06C112.285 8.9 111.952 8.82 111.538 8.82C111.005 8.82 110.558 8.95333 110.198 9.22C109.838 9.48667 109.572 9.84667 109.398 10.3C109.225 10.7533 109.138 11.2533 109.138 11.8V17H106.338ZM121.788 17.14C121.308 17.14 120.841 17.08 120.388 16.96C119.948 16.8267 119.554 16.6267 119.208 16.36C118.861 16.0933 118.588 15.76 118.388 15.36C118.188 14.96 118.088 14.4933 118.088 13.96C118.088 13.24 118.234 12.6667 118.528 12.24C118.821 11.8 119.214 11.4667 119.708 11.24C120.201 11.0133 120.768 10.86 121.408 10.78C122.061 10.7 122.734 10.66 123.428 10.66H124.948C124.948 10.2733 124.874 9.93333 124.728 9.64C124.594 9.33333 124.388 9.1 124.108 8.94C123.828 8.76667 123.468 8.68 123.028 8.68C122.748 8.68 122.474 8.72 122.208 8.8C121.954 8.86667 121.741 8.96667 121.568 9.1C121.394 9.23333 121.281 9.40667 121.228 9.62H118.388C118.468 9.03333 118.654 8.53333 118.948 8.12C119.241 7.69333 119.608 7.34667 120.048 7.08C120.488 6.81333 120.968 6.62 121.488 6.5C122.021 6.36667 122.568 6.3 123.128 6.3C124.661 6.3 125.794 6.74 126.528 7.62C127.261 8.48667 127.628 9.72 127.628 11.32V17H125.108L125.068 15.64C124.734 16.1067 124.354 16.4467 123.928 16.66C123.514 16.8733 123.114 17.0067 122.728 17.06C122.341 17.1133 122.028 17.14 121.788 17.14ZM122.428 14.92C122.894 14.92 123.321 14.8267 123.708 14.64C124.094 14.4533 124.401 14.2 124.628 13.88C124.854 13.56 124.968 13.2 124.968 12.8V12.54H123.048C122.768 12.54 122.494 12.5533 122.228 12.58C121.974 12.6067 121.741 12.66 121.528 12.74C121.328 12.8067 121.168 12.92 121.048 13.08C120.928 13.24 120.868 13.4533 120.868 13.72C120.868 13.9867 120.934 14.2133 121.068 14.4C121.214 14.5733 121.408 14.7067 121.648 14.8C121.888 14.88 122.148 14.92 122.428 14.92ZM129.815 17V2.84H132.615V17H129.815ZM134.834 17V6.46H137.634V17H134.834ZM136.234 5.4C135.714 5.4 135.294 5.24667 134.974 4.94C134.654 4.62 134.494 4.21333 134.494 3.72C134.494 3.2 134.661 2.78 134.994 2.46C135.328 2.14 135.748 1.98 136.254 1.98C136.721 1.98 137.121 2.14 137.454 2.46C137.801 2.76667 137.974 3.18 137.974 3.7C137.974 4.20667 137.808 4.62 137.474 4.94C137.154 5.24667 136.741 5.4 136.234 5.4ZM144.154 17.14C142.967 17.14 142.087 16.8067 141.514 16.14C140.954 15.4733 140.674 14.56 140.674 13.4V8.96H139.094V6.46H140.674V3.62H143.474V6.46H146.674V8.96H143.474V12.82C143.474 13.1667 143.514 13.4667 143.594 13.72C143.687 13.9733 143.834 14.1733 144.034 14.32C144.247 14.4533 144.534 14.52 144.894 14.52C145.214 14.52 145.481 14.4733 145.694 14.38C145.921 14.2733 146.107 14.16 146.254 14.04L147.134 16.2C146.854 16.4267 146.541 16.6133 146.194 16.76C145.861 16.8933 145.521 16.9867 145.174 17.04C144.827 17.1067 144.487 17.14 144.154 17.14ZM152.951 21.86C152.138 21.86 151.345 21.7533 150.571 21.54C149.798 21.3267 149.071 20.9667 148.391 20.46L149.331 18.22C149.758 18.54 150.245 18.7933 150.791 18.98C151.338 19.18 151.945 19.28 152.611 19.28C153.638 19.28 154.398 19.04 154.891 18.56C155.398 18.08 155.651 17.3867 155.651 16.48V15.92C155.425 16.2267 155.138 16.4733 154.791 16.66C154.458 16.8333 154.098 16.96 153.711 17.04C153.325 17.12 152.938 17.16 152.551 17.16C151.538 17.16 150.725 16.9467 150.111 16.52C149.498 16.0933 149.051 15.5133 148.771 14.78C148.505 14.0333 148.371 13.1867 148.371 12.24V6.46H151.171V11.66C151.171 12.0067 151.191 12.3533 151.231 12.7C151.271 13.0467 151.365 13.3667 151.511 13.66C151.658 13.9533 151.878 14.1933 152.171 14.38C152.465 14.5533 152.858 14.64 153.351 14.64C153.991 14.64 154.471 14.4867 154.791 14.18C155.111 13.86 155.325 13.46 155.431 12.98C155.551 12.5 155.611 12 155.611 11.48V6.46H158.411V15.48C158.411 16.44 158.318 17.3133 158.131 18.1C157.958 18.8867 157.658 19.56 157.231 20.12C156.818 20.68 156.258 21.1067 155.551 21.4C154.858 21.7067 153.991 21.86 152.951 21.86Z" fill="white"/>
</g>
<defs>
<clipPath id="clip0_643_290">
<rect width="160" height="24" fill="white"/>
</clipPath>
</defs>
</svg>
