<svg width="36" height="36" viewBox="0 0 36 36" fill="none" xmlns="http://www.w3.org/2000/svg">
<g clip-path="url(#clip0_0_3)">
<g clip-path="url(#clip1_0_3)">
<mask id="mask0_0_3" style="mask-type:alpha" maskUnits="userSpaceOnUse" x="0" y="0" width="36" height="36">
<path d="M18 36C27.9411 36 36 27.9411 36 18C36 8.05888 27.9411 0 18 0C8.05888 0 0 8.05888 0 18C0 27.9411 8.05888 36 18 36Z" fill="black"/>
</mask>
<g mask="url(#mask0_0_3)">
<path d="M18 35.4C27.6098 35.4 35.4 27.6098 35.4 18C35.4 8.39025 27.6098 0.600006 18 0.600006C8.39025 0.600006 0.600006 8.39025 0.600006 18C0.600006 27.6098 8.39025 35.4 18 35.4Z" fill="black" stroke="white"/>
<path d="M29.9016 31.504L13.8284 10.8H10.8V25.194H13.2227V13.8767L27.9998 32.969C28.6666 32.5228 29.3018 32.033 29.9016 31.504Z" fill="url(#paint0_linear_0_3)"/>
<path d="M25.4 10.8H23V25.2H25.4V10.8Z" fill="url(#paint1_linear_0_3)"/>
</g>
</g>
</g>
<defs>
<linearGradient id="paint0_linear_0_3" x1="21.8" y1="23.3" x2="28.9" y2="32.1" gradientUnits="userSpaceOnUse">
<stop stop-color="white"/>
<stop offset="1" stop-color="white" stop-opacity="0"/>
</linearGradient>
<linearGradient id="paint1_linear_0_3" x1="24.2" y1="10.8" x2="24.1598" y2="21.375" gradientUnits="userSpaceOnUse">
<stop stop-color="white"/>
<stop offset="1" stop-color="white" stop-opacity="0"/>
</linearGradient>
<clipPath id="clip0_0_3">
<rect width="36" height="36" fill="white"/>
</clipPath>
<clipPath id="clip1_0_3">
<rect width="36" height="36" fill="white"/>
</clipPath>
</defs>
</svg>
